<?xml version="1.0" standalone="no"?>
<!DOCTYPE svg PUBLIC "-//W3C//DTD SVG 1.1//EN" "http://www.w3.org/Graphics/SVG/1.1/DTD/svg11.dtd" >
<svg xmlns="http://www.w3.org/2000/svg" xmlns:xlink="http://www.w3.org/1999/xlink" version="1.1">
<metadata>
Created by FontForge 20170910 at Tue Nov  7 12:47:05 2017
 By Jimmy Wärting
Copyright \(c\) 2017 by Octavio Pardo Virto. All rights reserved.
</metadata>
<defs>
<font id="AshlerText-Book" horiz-adv-x="530" >
  <font-face 
    font-family="Ashler Text Book"
    font-weight="300"
    font-stretch="normal"
    units-per-em="1000"
    panose-1="2 2 0 3 4 5 3 4 7 4"
    ascent="750"
    descent="-250"
    x-height="526"
    cap-height="713"
    bbox="-207 -322 2710 985.801"
    underline-thickness="44"
    underline-position="-103"
    stemh="45"
    stemv="95"
    unicode-range="U+0020-FB02"
  />
<missing-glyph horiz-adv-x="500" 
d="M410 750v-1000h-317v1000h317zM333 683h-165v-33h65v-37h-66v-33h166v33h-66v37h66v33zM267 554h-100v-104h166v34h-66v70zM233 520v-36h-33v36h33zM333 423h-166v-33h66v-37h-66v-33h100v70h66v33zM333 363h-33v-66h-133v-34h166v100zM333 241h-100v-56h34v23h33v-47
h-100v80h-33v-113h166v113zM333 68h-166v-113h166v113zM300 35v-47h-100v47h100zM333 -68h-166v-33h70l-70 -47v-33h166v33h-102l70 47h32v33z" />
    <glyph glyph-name="f_f" unicode="ff" horiz-adv-x="709" 
d="M623 716c-48 0 -75 -37 -75 -116v-74h135v-45h-135v-392c0 -36 11 -50 41 -53l49 -5v-31h-261v31l36 5c31 4 40 17 40 53v392h-236v-392c0 -37 12 -50 41 -53l44 -5v-31h-256v31l36 5c30 4 40 16 40 53v392h-86v31l85 14v24c0 121 83 199 246 199c47 0 95 -11 146 -27
c31 25 73 39 125 39c33 0 68 -5 104 -14l5 -115l-31 -6c-24 70 -49 90 -93 90zM217 526h235v45c0 33 5 62 15 87c-29 38 -75 54 -136 54c-74 0 -114 -39 -114 -129v-57z" />
    <glyph glyph-name="f_f_i" unicode="ffi" horiz-adv-x="987" 
d="M921 36l36 -5v-31h-249v31l36 5c31 4 40 16 40 53v368c0 12 -3 24 -15 24h-221v-392c0 -37 12 -50 41 -53l44 -5v-31h-256v31l36 5c30 4 40 16 40 53v392h-236v-392c0 -37 12 -50 41 -53l44 -5v-31h-256v31l36 5c30 4 40 16 40 53v392h-86v31l85 14v24
c0 121 83 199 246 199c47 0 97 -9 161 -32c40 28 97 44 170 44c50 0 104 -7 138 -14l5 -112l-37 -4c-27 52 -71 93 -142 93c-74 0 -114 -39 -114 -129v-69h240l79 18l12 -7v-448c0 -37 12 -49 42 -53zM217 526h235v36c0 34 7 64 19 91c-29 41 -76 59 -140 59
c-74 0 -114 -39 -114 -129v-57z" />
    <glyph glyph-name="f_f_l" unicode="ffl" horiz-adv-x="953" 
d="M887 36l36 -5v-31h-248v31l36 5c31 4 40 17 40 53v392h-236v-392c0 -37 12 -50 41 -53l44 -5v-31h-256v31l36 5c30 4 40 16 40 53v392h-203v-392c0 -37 12 -50 41 -53l44 -5v-31h-256v31l36 5c30 4 40 16 40 53v392h-86v31l85 14v24c0 121 83 199 246 199
c44 0 90 -10 138 -25c40 24 93 37 160 37c35 0 72 -3 103 -8l66 15l12 -6v-673c0 -35 10 -49 41 -53zM515 526h236v137c-27 36 -66 61 -122 61c-74 0 -114 -39 -114 -129v-69zM217 526h202v36c0 44 11 82 33 113c-29 26 -70 37 -121 37c-74 0 -114 -39 -114 -129v-57z" />
    <glyph glyph-name="fi" unicode="fi" horiz-adv-x="656" 
d="M590 36l36 -5v-31h-249v31l36 5c31 4 40 16 40 53v368c0 12 -3 24 -15 24h-221v-392c0 -37 12 -50 41 -53l44 -5v-31h-256v31l36 5c30 4 40 16 40 53v392h-86v31l85 14v36c0 121 83 199 246 199c50 0 104 -7 138 -14l5 -112l-37 -4c-27 52 -71 93 -142 93
c-74 0 -114 -39 -114 -129v-69h240l79 18l12 -7v-448c0 -37 12 -49 42 -53z" />
    <glyph glyph-name="fl" unicode="fl" horiz-adv-x="655" 
d="M589 36l36 -5v-31h-248v31l36 5c31 4 40 17 40 53v392h-236v-392c0 -37 12 -50 41 -53l44 -5v-31h-256v31l36 5c30 4 40 16 40 53v392h-86v31l85 14v36c0 121 83 199 246 199c35 0 72 -3 103 -8l66 15l12 -6v-673c0 -35 10 -49 41 -53zM217 526h236v137
c-27 36 -66 61 -122 61c-74 0 -114 -39 -114 -129v-69z" />
    <glyph glyph-name=".notdef" horiz-adv-x="500" 
d="M410 750v-1000h-317v1000h317zM333 683h-165v-33h65v-37h-66v-33h166v33h-66v37h66v33zM267 554h-100v-104h166v34h-66v70zM233 520v-36h-33v36h33zM333 423h-166v-33h66v-37h-66v-33h100v70h66v33zM333 363h-33v-66h-133v-34h166v100zM333 241h-100v-56h34v23h33v-47
h-100v80h-33v-113h166v113zM333 68h-166v-113h166v113zM300 35v-47h-100v47h100zM333 -68h-166v-33h70l-70 -47v-33h166v33h-102l70 47h32v33z" />
    <glyph glyph-name="A" unicode="A" horiz-adv-x="734" 
d="M691 44l35 -7v-37h-300v37l72 9c23 3 33 15 23 43l-51 137h-263l-43 -117c-12 -32 -4 -53 29 -60l55 -12v-37h-240v37l37 12c34 11 46 35 59 68l231 596h63l243 -622c13 -32 23 -42 50 -47zM227 280h223l-108 291h-7z" />
    <glyph glyph-name="Aacute" unicode="&#xc1;" horiz-adv-x="734" 
d="M469 839l-187 -84l-12 19l150 136c23 21 56 17 69 -5c14 -23 6 -54 -20 -66zM691 44l35 -7v-37h-300v37l72 9c23 3 33 15 23 43l-51 137h-263l-43 -117c-12 -32 -4 -53 29 -60l55 -12v-37h-240v37l37 12c34 11 46 35 59 68l231 596h63l243 -622c13 -32 23 -42 50 -47z
M227 280h223l-108 291h-7z" />
    <glyph glyph-name="Abreve" unicode="&#x102;" horiz-adv-x="734" 
d="M357 757c-80 0 -131 44 -145 134l28 8c17 -56 52 -68 117 -68s100 12 117 68l28 -8c-14 -90 -65 -134 -145 -134zM691 44l35 -7v-37h-300v37l72 9c23 3 33 15 23 43l-51 137h-263l-43 -117c-12 -32 -4 -53 29 -60l55 -12v-37h-240v37l37 12c34 11 46 35 59 68l231 596h63
l243 -622c13 -32 23 -42 50 -47zM227 280h223l-108 291h-7z" />
    <glyph glyph-name="Acircumflex" unicode="&#xc2;" horiz-adv-x="734" 
d="M358 818l-132 -62l-13 22l133 114h22l133 -114l-13 -22zM691 44l35 -7v-37h-300v37l72 9c23 3 33 15 23 43l-51 137h-263l-43 -117c-12 -32 -4 -53 29 -60l55 -12v-37h-240v37l37 12c34 11 46 35 59 68l231 596h63l243 -622c13 -32 23 -42 50 -47zM227 280h223l-108 291
h-7z" />
    <glyph glyph-name="Adieresis" unicode="&#xc4;" horiz-adv-x="734" 
d="M271 771c-33 0 -55 22 -55 53c0 28 22 51 55 51c31 0 54 -23 54 -51c0 -31 -23 -53 -54 -53zM444 772c-34 0 -55 22 -55 52c0 28 21 50 55 50c31 0 54 -22 54 -50c0 -30 -23 -52 -54 -52zM691 44l35 -7v-37h-300v37l72 9c23 3 33 15 23 43l-51 137h-263l-43 -117
c-12 -32 -4 -53 29 -60l55 -12v-37h-240v37l37 12c34 11 46 35 59 68l231 596h63l243 -622c13 -32 23 -42 50 -47zM227 280h223l-108 291h-7z" />
    <glyph glyph-name="Agrave" unicode="&#xc0;" horiz-adv-x="734" 
d="M249 835c-24 11 -32 41 -19 63c13 21 44 24 66 4l142 -129l-11 -18zM691 44l35 -7v-37h-300v37l72 9c23 3 33 15 23 43l-51 137h-263l-43 -117c-12 -32 -4 -53 29 -60l55 -12v-37h-240v37l37 12c34 11 46 35 59 68l231 596h63l243 -622c13 -32 23 -42 50 -47zM227 280
h223l-108 291h-7z" />
    <glyph glyph-name="Amacron" unicode="&#x100;" horiz-adv-x="734" 
d="M523 838v-51h-332v51h332zM691 44l35 -7v-37h-300v37l72 9c23 3 33 15 23 43l-51 137h-263l-43 -117c-12 -32 -4 -53 29 -60l55 -12v-37h-240v37l37 12c34 11 46 35 59 68l231 596h63l243 -622c13 -32 23 -42 50 -47zM227 280h223l-108 291h-7z" />
    <glyph glyph-name="Aogonek" unicode="&#x104;" horiz-adv-x="734" 
d="M725 -136l11 -15c-42 -44 -85 -74 -134 -74c-65 0 -127 35 -127 106c0 58 34 89 98 119h-147v37l72 9c23 3 33 15 23 43l-51 137h-263l-43 -117c-12 -32 -4 -53 29 -60l55 -12v-37h-240v37l37 12c34 11 46 35 59 68l231 596h63l243 -622c13 -32 23 -42 50 -47l35 -7v-37
h-76c-64 -29 -85 -52 -85 -106c0 -44 25 -64 61 -64c28 0 62 7 99 34zM227 280h223l-108 291h-7z" />
    <glyph glyph-name="Aring" unicode="&#xc5;" horiz-adv-x="734" 
d="M355 751c-75 0 -108 40 -108 92c0 56 40 91 112 91c75 0 108 -40 108 -92c0 -54 -39 -91 -112 -91zM358 902c-36 0 -52 -21 -52 -57c0 -34 15 -63 50 -63c36 0 52 22 52 59c0 34 -15 61 -50 61zM691 44l35 -7v-37h-300v37l72 9c23 3 33 15 23 43l-51 137h-263l-43 -117
c-12 -32 -4 -53 29 -60l55 -12v-37h-240v37l37 12c34 11 46 35 59 68l231 596h63l243 -622c13 -32 23 -42 50 -47zM227 280h223l-108 291h-7z" />
    <glyph glyph-name="Aringacute" unicode="&#x1fa;" horiz-adv-x="734" 
d="M691 44l35 -7v-37h-300v37l72 9c23 3 33 15 23 43l-51 137h-263l-43 -117c-12 -32 -4 -53 29 -60l55 -12v-37h-240v37l37 12c34 11 46 35 59 68l221 570c-47 12 -68 45 -68 87c0 25 8 47 24 62c2 1 3 3 5 4l145 132c23 21 56 17 69 -5c14 -23 6 -54 -20 -66l-84 -38
c56 -8 81 -45 81 -90c0 -42 -24 -74 -69 -86l233 -596c13 -32 23 -42 50 -47zM368 833c-36 0 -52 -21 -52 -57c0 -34 15 -63 50 -63c36 0 52 22 52 59c0 34 -15 61 -50 61zM227 280h223l-108 291h-7z" />
    <glyph glyph-name="Atilde" unicode="&#xc3;" horiz-adv-x="734" 
d="M263 810c-28 0 -46 -20 -62 -55l-23 10c12 43 42 114 94 114c28 0 60 -14 92 -29c30 -14 61 -28 87 -28c27 0 43 19 61 54l23 -10c-13 -42 -43 -114 -94 -114c-26 0 -57 11 -86 26c-32 16 -64 32 -92 32zM691 44l35 -7v-37h-300v37l72 9c23 3 33 15 23 43l-51 137h-263
l-43 -117c-12 -32 -4 -53 29 -60l55 -12v-37h-240v37l37 12c34 11 46 35 59 68l231 596h63l243 -622c13 -32 23 -42 50 -47zM227 280h223l-108 291h-7z" />
    <glyph glyph-name="AE" unicode="&#xc6;" horiz-adv-x="1012" 
d="M944 231l29 -9l-36 -222h-565v37l61 8c30 4 41 16 41 53v214h-186l-111 -207c-20 -38 -14 -46 17 -53l67 -15v-37h-253v37l48 15c32 10 39 28 59 64l331 597h460l35 -193l-30 -9l-61 88c-29 42 -60 59 -118 59h-147v-291h59c76 0 101 13 116 76l10 43h29v-291h-29l-10 42
c-15 63 -40 75 -116 75h-59v-257h180c58 0 93 15 117 60zM317 367h157v281h-7z" />
    <glyph glyph-name="AEacute" unicode="&#x1fc;" horiz-adv-x="1012" 
d="M788 839l-187 -84l-12 19l150 136c23 21 56 17 69 -5c14 -23 6 -54 -20 -66zM944 231l29 -9l-36 -222h-565v37l61 8c30 4 41 16 41 53v214h-186l-111 -207c-20 -38 -14 -46 17 -53l67 -15v-37h-253v37l48 15c32 10 39 28 59 64l331 597h460l35 -193l-30 -9l-61 88
c-29 42 -60 59 -118 59h-147v-291h59c76 0 101 13 116 76l10 43h29v-291h-29l-10 42c-15 63 -40 75 -116 75h-59v-257h180c58 0 93 15 117 60zM317 367h157v281h-7z" />
    <glyph glyph-name="B" unicode="B" horiz-adv-x="683" 
d="M423 380c146 -19 217 -75 217 -171c0 -146 -93 -209 -310 -209h-302v37l61 8c32 4 42 16 42 52v518c0 37 -10 49 -42 53l-61 7v38h309c177 0 271 -54 271 -156c0 -92 -63 -149 -185 -170v-7zM316 660h-74v-256h74c119 0 177 44 177 134c0 83 -56 122 -177 122zM338 53
c128 0 184 43 184 142c0 107 -57 156 -182 156h-98v-298h96z" />
    <glyph glyph-name="C" unicode="C" horiz-adv-x="724" 
d="M396 -16c-210 0 -349 123 -349 374c0 228 141 368 357 368c74 0 166 -22 233 -57l17 -199l-35 -8c-42 134 -108 206 -215 206c-165 0 -239 -105 -239 -302c0 -221 78 -324 239 -324c113 0 183 62 230 205l35 -4l-25 -203c-82 -37 -167 -56 -248 -56z" />
    <glyph glyph-name="Cacute" unicode="&#x106;" horiz-adv-x="724" 
d="M327 755l-12 19l150 136c23 21 56 17 69 -5c14 -23 6 -54 -20 -66zM396 -16c-210 0 -349 123 -349 374c0 228 141 368 357 368c74 0 166 -22 233 -57l17 -199l-35 -8c-42 134 -108 206 -215 206c-165 0 -239 -105 -239 -302c0 -221 78 -324 239 -324
c113 0 183 62 230 205l35 -4l-25 -203c-82 -37 -167 -56 -248 -56z" />
    <glyph glyph-name="Ccaron" unicode="&#x10c;" horiz-adv-x="724" 
d="M412 759h-20l-127 108l13 21l125 -59l123 59l13 -21zM634 247l35 -4l-25 -203c-82 -37 -167 -56 -248 -56c-210 0 -349 123 -349 374c0 228 141 368 357 368c74 0 166 -22 233 -57l17 -199l-35 -8c-42 134 -108 206 -215 206c-165 0 -239 -105 -239 -302
c0 -221 78 -324 239 -324c113 0 183 62 230 205z" />
    <glyph glyph-name="Ccedilla" unicode="&#xc7;" horiz-adv-x="724" 
d="M644 40c-82 -37 -166 -56 -247 -56l-9 -29c82 -7 119 -42 119 -83c0 -58 -76 -122 -216 -122v24c87 10 119 34 119 64c0 27 -20 48 -86 53l28 95c-185 16 -305 139 -305 372c0 228 141 368 357 368c74 0 166 -22 233 -57l17 -199l-35 -8c-42 134 -108 206 -215 206
c-165 0 -239 -105 -239 -302c0 -221 78 -324 239 -324c113 0 183 62 230 205l35 -4z" />
    <glyph glyph-name="Ccircumflex" unicode="&#x108;" horiz-adv-x="724" 
d="M403 818l-132 -62l-13 22l133 114h22l133 -114l-13 -22zM634 247l35 -4l-25 -203c-82 -37 -167 -56 -248 -56c-210 0 -349 123 -349 374c0 228 141 368 357 368c74 0 166 -22 233 -57l17 -199l-35 -8c-42 134 -108 206 -215 206c-165 0 -239 -105 -239 -302
c0 -221 78 -324 239 -324c113 0 183 62 230 205z" />
    <glyph glyph-name="Cdotaccent" unicode="&#x10a;" horiz-adv-x="724" 
d="M403 757c-39 0 -71 31 -71 69s32 69 71 69c37 0 69 -31 69 -69s-32 -69 -69 -69zM396 -16c-210 0 -349 123 -349 374c0 228 141 368 357 368c74 0 166 -22 233 -57l17 -199l-35 -8c-42 134 -108 206 -215 206c-165 0 -239 -105 -239 -302c0 -221 78 -324 239 -324
c113 0 183 62 230 205l35 -4l-25 -203c-82 -37 -167 -56 -248 -56z" />
    <glyph glyph-name="D" unicode="D" horiz-adv-x="781" 
d="M361 713c246 0 373 -118 373 -358c0 -232 -123 -355 -373 -355h-333v37l61 8c32 4 42 16 42 52v518c0 37 -10 49 -42 53l-61 7v38h333zM366 55c185 0 250 83 250 300c0 220 -82 303 -250 303h-124v-603h124z" />
    <glyph glyph-name="Eth" unicode="&#xd0;" horiz-adv-x="781" 
d="M361 713c246 0 373 -118 373 -358c0 -232 -123 -355 -373 -355h-333v37l61 8c32 4 42 16 42 52v244h-103v48h103v226c0 37 -10 49 -42 53l-61 7v38h333zM366 55c185 0 250 83 250 300c0 220 -82 303 -250 303h-124v-269h230v-48h-230v-286h124z" />
    <glyph glyph-name="Dcaron" unicode="&#x10e;" horiz-adv-x="781" 
d="M361 759h-20l-127 108l13 21l125 -59l123 59l13 -21zM361 713c246 0 373 -118 373 -358c0 -232 -123 -355 -373 -355h-333v37l61 8c32 4 42 16 42 52v518c0 37 -10 49 -42 53l-61 7v38h333zM366 55c185 0 250 83 250 300c0 220 -82 303 -250 303h-124v-603h124z" />
    <glyph glyph-name="Dcroat" unicode="&#x110;" horiz-adv-x="781" 
d="M361 713c246 0 373 -118 373 -358c0 -232 -123 -355 -373 -355h-333v37l61 8c32 4 42 16 42 52v244h-103v48h103v226c0 37 -10 49 -42 53l-61 7v38h333zM366 55c185 0 250 83 250 300c0 220 -82 303 -250 303h-124v-269h230v-48h-230v-286h124z" />
    <glyph glyph-name="E" unicode="E" horiz-adv-x="685" 
d="M617 231l29 -9l-36 -222h-582v37l61 8c31 4 42 16 42 53v516c0 38 -11 50 -42 54l-61 7v38h551l35 -193l-30 -9l-61 88c-30 44 -60 59 -118 59h-163v-263h75c76 0 101 13 116 77l10 42h29v-290h-29l-10 41c-15 63 -40 75 -116 75h-75v-285h196c58 0 93 14 117 60z" />
    <glyph glyph-name="Eacute" unicode="&#xc9;" horiz-adv-x="685" 
d="M444 839l-187 -84l-12 19l150 136c23 21 56 17 69 -5c14 -23 6 -54 -20 -66zM617 231l29 -9l-36 -222h-582v37l61 8c31 4 42 16 42 53v516c0 38 -11 50 -42 54l-61 7v38h551l35 -193l-30 -9l-61 88c-30 44 -60 59 -118 59h-163v-263h75c76 0 101 13 116 77l10 42h29v-290
h-29l-10 41c-15 63 -40 75 -116 75h-75v-285h196c58 0 93 14 117 60z" />
    <glyph glyph-name="Ebreve" unicode="&#x114;" horiz-adv-x="685" 
d="M332 757c-80 0 -131 44 -145 134l28 8c17 -56 52 -68 117 -68s100 12 117 68l28 -8c-14 -90 -65 -134 -145 -134zM617 231l29 -9l-36 -222h-582v37l61 8c31 4 42 16 42 53v516c0 38 -11 50 -42 54l-61 7v38h551l35 -193l-30 -9l-61 88c-30 44 -60 59 -118 59h-163v-263
h75c76 0 101 13 116 77l10 42h29v-290h-29l-10 41c-15 63 -40 75 -116 75h-75v-285h196c58 0 93 14 117 60z" />
    <glyph glyph-name="Ecaron" unicode="&#x11a;" horiz-adv-x="685" 
d="M342 759h-20l-127 108l13 21l125 -59l123 59l13 -21zM617 231l29 -9l-36 -222h-582v37l61 8c31 4 42 16 42 53v516c0 38 -11 50 -42 54l-61 7v38h551l35 -193l-30 -9l-61 88c-30 44 -60 59 -118 59h-163v-263h75c76 0 101 13 116 77l10 42h29v-290h-29l-10 41
c-15 63 -40 75 -116 75h-75v-285h196c58 0 93 14 117 60z" />
    <glyph glyph-name="Ecircumflex" unicode="&#xca;" horiz-adv-x="685" 
d="M333 818l-132 -62l-13 22l133 114h22l133 -114l-13 -22zM617 231l29 -9l-36 -222h-582v37l61 8c31 4 42 16 42 53v516c0 38 -11 50 -42 54l-61 7v38h551l35 -193l-30 -9l-61 88c-30 44 -60 59 -118 59h-163v-263h75c76 0 101 13 116 77l10 42h29v-290h-29l-10 41
c-15 63 -40 75 -116 75h-75v-285h196c58 0 93 14 117 60z" />
    <glyph glyph-name="Edieresis" unicode="&#xcb;" horiz-adv-x="685" 
d="M246 771c-33 0 -55 22 -55 53c0 28 22 51 55 51c31 0 54 -23 54 -51c0 -31 -23 -53 -54 -53zM419 772c-34 0 -55 22 -55 52c0 28 21 50 55 50c31 0 54 -22 54 -50c0 -30 -23 -52 -54 -52zM617 231l29 -9l-36 -222h-582v37l61 8c31 4 42 16 42 53v516c0 38 -11 50 -42 54
l-61 7v38h551l35 -193l-30 -9l-61 88c-30 44 -60 59 -118 59h-163v-263h75c76 0 101 13 116 77l10 42h29v-290h-29l-10 41c-15 63 -40 75 -116 75h-75v-285h196c58 0 93 14 117 60z" />
    <glyph glyph-name="Edotaccent" unicode="&#x116;" horiz-adv-x="685" 
d="M333 757c-39 0 -71 31 -71 69s32 69 71 69c37 0 69 -31 69 -69s-32 -69 -69 -69zM617 231l29 -9l-36 -222h-582v37l61 8c31 4 42 16 42 53v516c0 38 -11 50 -42 54l-61 7v38h551l35 -193l-30 -9l-61 88c-30 44 -60 59 -118 59h-163v-263h75c76 0 101 13 116 77l10 42h29
v-290h-29l-10 41c-15 63 -40 75 -116 75h-75v-285h196c58 0 93 14 117 60z" />
    <glyph glyph-name="Egrave" unicode="&#xc8;" horiz-adv-x="685" 
d="M224 835c-24 11 -32 41 -19 63c13 21 44 24 66 4l142 -129l-11 -18zM617 231l29 -9l-36 -222h-582v37l61 8c31 4 42 16 42 53v516c0 38 -11 50 -42 54l-61 7v38h551l35 -193l-30 -9l-61 88c-30 44 -60 59 -118 59h-163v-263h75c76 0 101 13 116 77l10 42h29v-290h-29
l-10 41c-15 63 -40 75 -116 75h-75v-285h196c58 0 93 14 117 60z" />
    <glyph glyph-name="Emacron" unicode="&#x112;" horiz-adv-x="685" 
d="M498 838v-51h-332v51h332zM617 231l29 -9l-36 -222h-582v37l61 8c31 4 42 16 42 53v516c0 38 -11 50 -42 54l-61 7v38h551l35 -193l-30 -9l-61 88c-30 44 -60 59 -118 59h-163v-263h75c76 0 101 13 116 77l10 42h29v-290h-29l-10 41c-15 63 -40 75 -116 75h-75v-285h196
c58 0 93 14 117 60z" />
    <glyph glyph-name="Eogonek" unicode="&#x118;" horiz-adv-x="685" 
d="M637 -136l11 -15c-42 -44 -85 -74 -134 -74c-65 0 -127 35 -127 106c0 58 34 89 98 119h-457v37l61 8c31 4 42 16 42 53v516c0 38 -11 50 -42 54l-61 7v38h551l35 -193l-30 -9l-61 88c-30 44 -60 59 -118 59h-163v-263h75c76 0 101 13 116 77l10 42h29v-290h-29l-10 41
c-15 63 -40 75 -116 75h-75v-285h196c58 0 93 14 117 60l62 116l29 -9l-36 -222h-48c-64 -29 -85 -52 -85 -106c0 -44 25 -64 61 -64c28 0 62 7 99 34z" />
    <glyph glyph-name="F" unicode="F" horiz-adv-x="622" 
d="M568 713l36 -193l-30 -9l-62 88c-31 45 -58 59 -116 59h-154v-294h71c78 0 101 15 115 76l10 43h30v-291h-30l-10 42c-14 61 -36 75 -115 75h-71v-210c0 -37 10 -49 41 -53l77 -9v-37h-332v37l61 8c32 4 42 17 42 53v497c0 52 -13 70 -57 75l-46 5v38h540z" />
    <glyph glyph-name="G" unicode="G" horiz-adv-x="774" 
d="M446 339h305v-38l-46 -6c-30 -4 -40 -17 -40 -50v-206c-79 -40 -148 -55 -240 -55c-248 0 -378 121 -378 371c0 223 137 371 378 371c79 0 172 -22 238 -57l17 -189l-37 -8c-47 139 -114 196 -218 196c-185 0 -260 -100 -260 -313c0 -222 80 -313 256 -313
c43 0 90 10 133 29v174c0 35 -10 47 -42 50l-66 6v38z" />
    <glyph glyph-name="Gbreve" unicode="&#x11e;" horiz-adv-x="774" 
d="M409 757c-80 0 -131 44 -145 134l28 8c17 -56 52 -68 117 -68s100 12 117 68l28 -8c-14 -90 -65 -134 -145 -134zM446 339h305v-38l-46 -6c-30 -4 -40 -17 -40 -50v-206c-79 -40 -148 -55 -240 -55c-248 0 -378 121 -378 371c0 223 137 371 378 371c79 0 172 -22 238 -57
l17 -189l-37 -8c-47 139 -114 196 -218 196c-185 0 -260 -100 -260 -313c0 -222 80 -313 256 -313c43 0 90 10 133 29v174c0 35 -10 47 -42 50l-66 6v38z" />
    <glyph glyph-name="Gcircumflex" unicode="&#x11c;" horiz-adv-x="774" 
d="M410 818l-132 -62l-13 22l133 114h22l133 -114l-13 -22zM446 339h305v-38l-46 -6c-30 -4 -40 -17 -40 -50v-206c-79 -40 -148 -55 -240 -55c-248 0 -378 121 -378 371c0 223 137 371 378 371c79 0 172 -22 238 -57l17 -189l-37 -8c-47 139 -114 196 -218 196
c-185 0 -260 -100 -260 -313c0 -222 80 -313 256 -313c43 0 90 10 133 29v174c0 35 -10 47 -42 50l-66 6v38z" />
    <glyph glyph-name="Gcommaaccent" unicode="&#x122;" horiz-adv-x="774" 
d="M446 339h305v-38l-46 -6c-30 -4 -40 -17 -40 -50v-206c-79 -40 -148 -55 -240 -55c-248 0 -378 121 -378 371c0 223 137 371 378 371c79 0 172 -22 238 -57l17 -189l-37 -8c-47 139 -114 196 -218 196c-185 0 -260 -100 -260 -313c0 -222 80 -313 256 -313
c43 0 90 10 133 29v174c0 35 -10 47 -42 50l-66 6v38zM401 -81c47 0 84 -34 84 -94c0 -78 -51 -122 -156 -147l-10 36c68 21 82 42 82 74c0 35 -18 58 -81 61c0 43 33 70 81 70z" />
    <glyph glyph-name="Gdotaccent" unicode="&#x120;" horiz-adv-x="774" 
d="M410 757c-39 0 -71 31 -71 69s32 69 71 69c37 0 69 -31 69 -69s-32 -69 -69 -69zM446 339h305v-38l-46 -6c-30 -4 -40 -17 -40 -50v-206c-79 -40 -148 -55 -240 -55c-248 0 -378 121 -378 371c0 223 137 371 378 371c79 0 172 -22 238 -57l17 -189l-37 -8
c-47 139 -114 196 -218 196c-185 0 -260 -100 -260 -313c0 -222 80 -313 256 -313c43 0 90 10 133 29v174c0 35 -10 47 -42 50l-66 6v38z" />
    <glyph glyph-name="H" unicode="H" horiz-adv-x="849" 
d="M760 668c-32 -4 -41 -16 -41 -54v-516c0 -37 9 -49 41 -53l61 -8v-37h-314v37l60 8c31 4 41 16 41 53v242h-366v-242c0 -37 10 -49 41 -53l60 -8v-37h-315v37l61 8c31 4 42 16 42 53v516c0 38 -11 50 -42 54l-61 7v38h315v-38l-60 -7c-31 -4 -41 -16 -41 -54v-219h366
v219c0 38 -10 50 -41 54l-60 7v38h314v-38z" />
    <glyph glyph-name="Hbar" unicode="&#x126;" horiz-adv-x="849" 
d="M760 668c-32 -4 -41 -16 -41 -54v-52h102v-48h-102v-416c0 -37 9 -49 41 -53l61 -8v-37h-314v37l60 8c31 4 41 16 41 53v242h-366v-242c0 -37 10 -49 41 -53l60 -8v-37h-315v37l61 8c31 4 42 16 42 53v416h-103v48h103v52c0 38 -11 50 -42 54l-61 7v38h315v-38l-60 -7
c-31 -4 -41 -16 -41 -54v-52h366v52c0 38 -10 50 -41 54l-60 7v38h314v-38zM608 395v119h-366v-119h366z" />
    <glyph glyph-name="Hcircumflex" unicode="&#x124;" horiz-adv-x="849" 
d="M425 818l-132 -62l-13 22l133 114h22l133 -114l-13 -22zM760 668c-32 -4 -41 -16 -41 -54v-516c0 -37 9 -49 41 -53l61 -8v-37h-314v37l60 8c31 4 41 16 41 53v242h-366v-242c0 -37 10 -49 41 -53l60 -8v-37h-315v37l61 8c31 4 42 16 42 53v516c0 38 -11 50 -42 54l-61 7
v38h315v-38l-60 -7c-31 -4 -41 -16 -41 -54v-219h366v219c0 38 -10 50 -41 54l-60 7v38h314v-38z" />
    <glyph glyph-name="I" unicode="I" horiz-adv-x="371" 
d="M28 0v37l61 8c31 4 42 16 42 53v516c0 38 -11 50 -42 54l-61 7v38h315v-38l-60 -7c-31 -4 -41 -16 -41 -54v-516c0 -37 10 -49 41 -53l60 -8v-37h-315z" />
    <glyph glyph-name="Iacute" unicode="&#xcd;" horiz-adv-x="371" 
d="M110 755l-12 19l150 136c23 21 56 17 69 -5c14 -23 6 -54 -20 -66zM28 0v37l61 8c31 4 42 16 42 53v516c0 38 -11 50 -42 54l-61 7v38h315v-38l-60 -7c-31 -4 -41 -16 -41 -54v-516c0 -37 10 -49 41 -53l60 -8v-37h-315z" />
    <glyph glyph-name="Ibreve" unicode="&#x12c;" horiz-adv-x="371" 
d="M185 757c80 0 131 44 145 134l-28 8c-17 -56 -52 -68 -117 -68s-100 12 -117 68l-28 -8c14 -90 65 -134 145 -134zM28 0v37l61 8c31 4 42 16 42 53v516c0 38 -11 50 -42 54l-61 7v38h315v-38l-60 -7c-31 -4 -41 -16 -41 -54v-516c0 -37 10 -49 41 -53l60 -8v-37h-315z
" />
    <glyph glyph-name="Icircumflex" unicode="&#xce;" horiz-adv-x="371" 
d="M186 818l-132 -62l-13 22l133 114h22l133 -114l-13 -22zM283 668c-31 -4 -41 -16 -41 -54v-516c0 -37 10 -49 41 -53l60 -8v-37h-315v37l61 8c31 4 42 16 42 53v516c0 38 -11 50 -42 54l-61 7v38h315v-38z" />
    <glyph glyph-name="Idieresis" unicode="&#xcf;" horiz-adv-x="371" 
d="M99 771c-33 0 -55 22 -55 53c0 28 22 51 55 51c31 0 54 -23 54 -51c0 -31 -23 -53 -54 -53zM272 772c-34 0 -55 22 -55 52c0 28 21 50 55 50c31 0 54 -22 54 -50c0 -30 -23 -52 -54 -52zM28 0v37l61 8c31 4 42 16 42 53v516c0 38 -11 50 -42 54l-61 7v38h315v-38l-60 -7
c-31 -4 -41 -16 -41 -54v-516c0 -37 10 -49 41 -53l60 -8v-37h-315z" />
    <glyph glyph-name="Idotaccent" unicode="&#x130;" horiz-adv-x="371" 
d="M186 757c-39 0 -71 31 -71 69s32 69 71 69c37 0 69 -31 69 -69s-32 -69 -69 -69zM28 0v37l61 8c31 4 42 16 42 53v516c0 38 -11 50 -42 54l-61 7v38h315v-38l-60 -7c-31 -4 -41 -16 -41 -54v-516c0 -37 10 -49 41 -53l60 -8v-37h-315z" />
    <glyph glyph-name="Igrave" unicode="&#xcc;" horiz-adv-x="371" 
d="M255 755l-178 80c-24 11 -32 41 -19 63c13 21 44 24 66 4l142 -129zM28 0v37l61 8c31 4 42 16 42 53v516c0 38 -11 50 -42 54l-61 7v38h315v-38l-60 -7c-31 -4 -41 -16 -41 -54v-516c0 -37 10 -49 41 -53l60 -8v-37h-315z" />
    <glyph glyph-name="Imacron" unicode="&#x12a;" horiz-adv-x="371" 
d="M19 838h332v-51h-332v51zM28 0v37l61 8c31 4 42 16 42 53v516c0 38 -11 50 -42 54l-61 7v38h315v-38l-60 -7c-31 -4 -41 -16 -41 -54v-516c0 -37 10 -49 41 -53l60 -8v-37h-315z" />
    <glyph glyph-name="Iogonek" unicode="&#x12e;" horiz-adv-x="371" 
d="M283 668c-31 -4 -41 -16 -41 -54v-516c0 -37 10 -49 41 -53l60 -8v-37h-105c-64 -29 -85 -52 -85 -106c0 -44 25 -64 61 -64c28 0 62 7 99 34l11 -15c-42 -44 -85 -74 -134 -74c-65 0 -127 35 -127 106c0 58 34 89 98 119h-133v37l61 8c31 4 42 16 42 53v516
c0 38 -11 50 -42 54l-61 7v38h315v-38z" />
    <glyph glyph-name="J" unicode="J" horiz-adv-x="372" 
d="M11 -147l-26 43c116 58 150 114 150 248v470c0 37 -10 50 -41 54l-60 7v38h314v-38l-60 -7c-32 -4 -42 -16 -42 -54v-442c0 -153 -53 -225 -235 -319z" />
    <glyph glyph-name="Jcircumflex" unicode="&#x134;" horiz-adv-x="372" 
d="M196 818l-132 -62l-13 22l133 114h22l133 -114l-13 -22zM34 713h314v-38l-60 -7c-32 -4 -42 -16 -42 -54v-442c0 -153 -53 -225 -235 -319l-26 43c116 58 150 114 150 248v470c0 37 -10 50 -41 54l-60 7v38z" />
    <glyph glyph-name="K" unicode="K" horiz-adv-x="699" 
d="M242 98c0 -37 10 -49 41 -53l60 -8v-37h-315v37l61 8c32 4 42 17 42 53v516c0 37 -10 50 -42 54l-61 7v38h315v-38l-60 -7c-31 -4 -41 -17 -41 -54v-516zM663 45l30 -8v-37h-168l-263 369v13l212 236c22 25 21 37 -13 45l-46 12v38h252v-38l-36 -8
c-36 -8 -48 -17 -81 -53l-190 -206l240 -320c18 -24 34 -35 63 -43z" />
    <glyph glyph-name="Kcommaaccent" unicode="&#x136;" horiz-adv-x="699" 
d="M343 37v-37h-315v37l61 8c32 4 42 17 42 53v516c0 37 -10 50 -42 54l-61 7v38h315v-38l-60 -7c-31 -4 -41 -17 -41 -54v-516c0 -37 10 -49 41 -53zM663 45l30 -8v-37h-168l-263 369v13l212 236c22 25 21 37 -13 45l-46 12v38h252v-38l-36 -8c-36 -8 -48 -17 -81 -53
l-190 -206l240 -320c18 -24 34 -35 63 -43zM395 -81c47 0 84 -34 84 -94c0 -78 -51 -122 -156 -147l-10 36c68 21 82 42 82 74c0 35 -18 58 -81 61c0 43 33 70 81 70z" />
    <glyph glyph-name="L" unicode="L" horiz-adv-x="658" 
d="M607 251l29 -9l-36 -242h-572v37l56 7c36 4 47 16 47 54v516c0 37 -10 50 -42 54l-61 7v38h332v-38l-77 -8c-31 -3 -41 -16 -41 -54v-558h182c74 0 103 21 137 96z" />
    <glyph glyph-name="Lacute" unicode="&#x139;" horiz-adv-x="658" 
d="M302 839l-187 -84l-12 19l150 136c23 21 56 17 69 -5c14 -23 6 -54 -20 -66zM607 251l29 -9l-36 -242h-572v37l56 7c36 4 47 16 47 54v516c0 37 -10 50 -42 54l-61 7v38h332v-38l-77 -8c-31 -3 -41 -16 -41 -54v-558h182c74 0 103 21 137 96z" />
    <glyph glyph-name="Lcaron" unicode="&#x13d;" horiz-adv-x="658" 
d="M526 723l-88 -178l-21 5l26 199c5 30 31 48 58 38c25 -9 38 -37 25 -64zM607 251l29 -9l-36 -242h-572v37l56 7c36 4 47 16 47 54v516c0 37 -10 50 -42 54l-61 7v38h332v-38l-77 -8c-31 -3 -41 -16 -41 -54v-558h182c74 0 103 21 137 96z" />
    <glyph glyph-name="Lcommaaccent" unicode="&#x13b;" horiz-adv-x="658" 
d="M607 251l29 -9l-36 -242h-572v37l56 7c36 4 47 16 47 54v516c0 37 -10 50 -42 54l-61 7v38h332v-38l-77 -8c-31 -3 -41 -16 -41 -54v-558h182c74 0 103 21 137 96zM351 -81c47 0 84 -34 84 -94c0 -78 -51 -122 -156 -147l-10 36c68 21 82 42 82 74c0 35 -18 58 -81 61
c0 43 33 70 81 70z" />
    <glyph glyph-name="Lslash" unicode="&#x141;" horiz-adv-x="663" 
d="M612 251l29 -9l-36 -242h-572v37l56 7c36 4 47 16 47 54v172l-93 -44l-21 43l114 54v291c0 37 -10 50 -42 54l-61 7v38h332v-38l-77 -8c-31 -3 -41 -16 -41 -54v-248l212 97l20 -43l-232 -109v-255h182c74 0 103 21 137 96z" />
    <glyph glyph-name="M" unicode="M" horiz-adv-x="976" 
d="M913 43l43 -6v-37h-295v37l37 6c42 7 60 21 55 71l-47 466h-5l-211 -580h-34v2l-220 578h-8l-51 -456c-5 -47 6 -61 71 -77l40 -10v-37h-268v37l31 8c39 10 58 31 64 83l57 470c6 51 -13 67 -56 72l-43 5v38h220l202 -534l190 534h215v-38l-42 -5c-44 -5 -63 -21 -57 -72
l55 -484c6 -50 14 -65 57 -71z" />
    <glyph glyph-name="N" unicode="N" horiz-adv-x="811" 
d="M507 713h281v-38l-39 -8c-45 -9 -64 -29 -64 -76v-591h-38l-450 553h-5v-430c0 -47 8 -59 79 -76l38 -9v-38h-281v38l38 10c38 10 65 27 65 71v495c0 38 -11 50 -42 54l-61 7v38h171l421 -516h4v393c0 51 -10 63 -73 76l-44 9v38z" />
    <glyph glyph-name="Nacute" unicode="&#x143;" horiz-adv-x="811" 
d="M520 839l-187 -84l-12 19l150 136c23 21 56 17 69 -5c14 -23 6 -54 -20 -66zM507 713h281v-38l-39 -8c-45 -9 -64 -29 -64 -76v-591h-38l-450 553h-5v-430c0 -47 8 -59 79 -76l38 -9v-38h-281v38l38 10c38 10 65 27 65 71v495c0 38 -11 50 -42 54l-61 7v38h171l421 -516
h4v393c0 51 -10 63 -73 76l-44 9v38z" />
    <glyph glyph-name="Ncaron" unicode="&#x147;" horiz-adv-x="811" 
d="M418 759h-20l-127 108l13 21l125 -59l123 59l13 -21zM507 713h281v-38l-39 -8c-45 -9 -64 -29 -64 -76v-591h-38l-450 553h-5v-430c0 -47 8 -59 79 -76l38 -9v-38h-281v38l38 10c38 10 65 27 65 71v495c0 38 -11 50 -42 54l-61 7v38h171l421 -516h4v393
c0 51 -10 63 -73 76l-44 9v38z" />
    <glyph glyph-name="Ncommaaccent" unicode="&#x145;" horiz-adv-x="811" 
d="M507 713h281v-38l-39 -8c-45 -9 -64 -29 -64 -76v-591h-38l-450 553h-5v-430c0 -47 8 -59 79 -76l38 -9v-38h-281v38l38 10c38 10 65 27 65 71v495c0 38 -11 50 -42 54l-61 7v38h171l421 -516h4v393c0 51 -10 63 -73 76l-44 9v38zM409 -81c47 0 84 -34 84 -94
c0 -78 -51 -122 -156 -147l-10 36c68 21 82 42 82 74c0 35 -18 58 -81 61c0 43 33 70 81 70z" />
    <glyph glyph-name="Eng" unicode="&#x14a;" horiz-adv-x="810" 
d="M508 713h279v-38l-32 -2c-44 -3 -70 -29 -70 -73v-600c0 -133 -60 -222 -189 -222c-59 0 -110 15 -135 31l40 81c37 -30 85 -50 113 -51c55 -2 109 51 109 145v46l-427 525h-4v-441c0 -54 13 -66 79 -73l38 -4v-37h-281v37l33 3c46 4 70 30 70 73v501c0 37 -10 50 -42 54
l-61 7v38h171l422 -516h3v400c0 48 -21 65 -86 74l-30 4v38z" />
    <glyph glyph-name="uni019D" unicode="&#x19d;" horiz-adv-x="804" 
d="M503 713h278v-38l-32 -2c-44 -3 -70 -30 -70 -73v-600h-38l-451 554h-4v-554c0 -133 -60 -222 -189 -222c-59 0 -110 15 -135 31l40 81c37 -30 85 -50 113 -51c55 -2 110 51 110 145v630c0 37 -10 50 -42 54l-61 7v38h171l422 -516h3v400c0 48 -20 65 -86 74l-29 4v38z
" />
    <glyph glyph-name="Ntilde" unicode="&#xd1;" horiz-adv-x="811" 
d="M314 810c-28 0 -46 -20 -62 -55l-23 10c12 43 42 114 94 114c28 0 60 -14 92 -29c30 -14 61 -28 87 -28c27 0 43 19 61 54l23 -10c-13 -42 -43 -114 -94 -114c-26 0 -57 11 -86 26c-32 16 -64 32 -92 32zM507 713h281v-38l-39 -8c-45 -9 -64 -29 -64 -76v-591h-38
l-450 553h-5v-430c0 -47 8 -59 79 -76l38 -9v-38h-281v38l38 10c38 10 65 27 65 71v495c0 38 -11 50 -42 54l-61 7v38h171l421 -516h4v393c0 51 -10 63 -73 76l-44 9v38z" />
    <glyph glyph-name="O" unicode="O" horiz-adv-x="747" 
d="M364 -16c-193 0 -317 146 -317 374c0 227 128 368 335 368c193 0 318 -145 318 -368c0 -233 -127 -374 -336 -374zM383 42c129 0 199 111 199 316s-74 310 -218 310c-129 0 -199 -110 -199 -310c0 -211 72 -316 218 -316z" />
    <glyph glyph-name="Oacute" unicode="&#xd3;" horiz-adv-x="747" 
d="M309 755l-12 19l150 136c23 21 56 17 69 -5c14 -23 6 -54 -20 -66zM364 -16c-193 0 -317 146 -317 374c0 227 128 368 335 368c193 0 318 -145 318 -368c0 -233 -127 -374 -336 -374zM383 42c129 0 199 111 199 316s-74 310 -218 310c-129 0 -199 -110 -199 -310
c0 -211 72 -316 218 -316z" />
    <glyph glyph-name="Ocircumflex" unicode="&#xd4;" horiz-adv-x="747" 
d="M385 818l-132 -62l-13 22l133 114h22l133 -114l-13 -22zM382 726c193 0 318 -145 318 -368c0 -233 -127 -374 -336 -374c-193 0 -317 146 -317 374c0 227 128 368 335 368zM383 42c129 0 199 111 199 316s-74 310 -218 310c-129 0 -199 -110 -199 -310
c0 -211 72 -316 218 -316z" />
    <glyph glyph-name="Odieresis" unicode="&#xd6;" horiz-adv-x="747" 
d="M298 771c-33 0 -55 22 -55 53c0 28 22 51 55 51c31 0 54 -23 54 -51c0 -31 -23 -53 -54 -53zM471 772c-34 0 -55 22 -55 52c0 28 21 50 55 50c31 0 54 -22 54 -50c0 -30 -23 -52 -54 -52zM364 -16c-193 0 -317 146 -317 374c0 227 128 368 335 368
c193 0 318 -145 318 -368c0 -233 -127 -374 -336 -374zM383 42c129 0 199 111 199 316s-74 310 -218 310c-129 0 -199 -110 -199 -310c0 -211 72 -316 218 -316z" />
    <glyph glyph-name="uni1ECC" unicode="&#x1ecc;" horiz-adv-x="747" 
d="M364 -16c-193 0 -317 146 -317 374c0 227 128 368 335 368c193 0 318 -145 318 -368c0 -233 -127 -374 -336 -374zM383 42c129 0 199 111 199 316s-74 310 -218 310c-129 0 -199 -110 -199 -310c0 -211 72 -316 218 -316zM381 -207c-37 0 -67 29 -67 65c0 37 30 65 67 65
c35 0 65 -28 65 -65c0 -36 -30 -65 -65 -65z" />
    <glyph glyph-name="Ograve" unicode="&#xd2;" horiz-adv-x="747" 
d="M454 755l-178 80c-24 11 -32 41 -19 63c13 21 44 24 66 4l142 -129zM364 -16c-193 0 -317 146 -317 374c0 227 128 368 335 368c193 0 318 -145 318 -368c0 -233 -127 -374 -336 -374zM383 42c129 0 199 111 199 316s-74 310 -218 310c-129 0 -199 -110 -199 -310
c0 -211 72 -316 218 -316z" />
    <glyph glyph-name="Ohungarumlaut" unicode="&#x150;" horiz-adv-x="747" 
d="M239 742l-13 17l126 145c19 23 50 23 65 4c16 -20 12 -51 -11 -65zM433 742l-13 17l126 145c19 23 50 23 65 4c16 -20 12 -51 -11 -65zM364 -16c-193 0 -317 146 -317 374c0 227 128 368 335 368c193 0 318 -145 318 -368c0 -233 -127 -374 -336 -374zM383 42
c129 0 199 111 199 316s-74 310 -218 310c-129 0 -199 -110 -199 -310c0 -211 72 -316 218 -316z" />
    <glyph glyph-name="Omacron" unicode="&#x14c;" horiz-adv-x="747" 
d="M218 838h332v-51h-332v51zM364 -16c-193 0 -317 146 -317 374c0 227 128 368 335 368c193 0 318 -145 318 -368c0 -233 -127 -374 -336 -374zM383 42c129 0 199 111 199 316s-74 310 -218 310c-129 0 -199 -110 -199 -310c0 -211 72 -316 218 -316z" />
    <glyph glyph-name="uni01EA" unicode="&#x1ea;" horiz-adv-x="747" 
d="M435 -10c-48 -25 -64 -48 -64 -96c0 -44 25 -64 61 -64c28 0 62 7 99 34l11 -15c-42 -44 -85 -74 -134 -74c-65 0 -127 35 -127 106c0 48 23 77 68 103c-185 8 -302 152 -302 374c0 227 128 368 335 368c193 0 318 -145 318 -368c0 -205 -99 -339 -265 -368zM165 358
c0 -211 72 -316 218 -316c129 0 199 111 199 316s-74 310 -218 310c-129 0 -199 -110 -199 -310z" />
    <glyph glyph-name="Oslash" unicode="&#xd8;" horiz-adv-x="747" 
d="M578 660c77 -63 122 -169 122 -302c0 -233 -127 -374 -336 -374c-58 0 -110 13 -154 38l-60 -104l-41 24l62 107c-79 64 -124 171 -124 309c0 227 128 368 335 368c59 0 112 -14 156 -39l58 100l42 -24zM165 358c0 -102 17 -179 50 -231l285 494c-35 31 -80 47 -136 47
c-129 0 -199 -110 -199 -310zM383 42c129 0 199 111 199 316c0 97 -17 171 -49 223l-285 -493c34 -31 79 -46 135 -46z" />
    <glyph glyph-name="Oslashacute" unicode="&#x1fe;" horiz-adv-x="747" 
d="M496 839l-187 -84l-12 19l150 136c23 21 56 17 69 -5c14 -23 6 -54 -20 -66zM578 660c77 -63 122 -169 122 -302c0 -233 -127 -374 -336 -374c-58 0 -110 13 -154 38l-60 -104l-41 24l62 107c-79 64 -124 171 -124 309c0 227 128 368 335 368c59 0 112 -14 156 -39
l58 100l42 -24zM165 358c0 -102 17 -179 50 -231l285 494c-35 31 -80 47 -136 47c-129 0 -199 -110 -199 -310zM383 42c129 0 199 111 199 316c0 97 -17 171 -49 223l-285 -493c34 -31 79 -46 135 -46z" />
    <glyph glyph-name="Otilde" unicode="&#xd5;" horiz-adv-x="747" 
d="M468 752c-26 0 -57 11 -86 26c-32 16 -64 32 -92 32s-46 -20 -62 -55l-23 10c12 43 42 114 94 114c28 0 60 -14 92 -29c30 -14 61 -28 87 -28c27 0 43 19 61 54l23 -10c-13 -42 -43 -114 -94 -114zM364 -16c-193 0 -317 146 -317 374c0 227 128 368 335 368
c193 0 318 -145 318 -368c0 -233 -127 -374 -336 -374zM383 42c129 0 199 111 199 316s-74 310 -218 310c-129 0 -199 -110 -199 -310c0 -211 72 -316 218 -316z" />
    <glyph glyph-name="OE" unicode="&#x152;" horiz-adv-x="1033" 
d="M994 222l-36 -222h-497c-33 -11 -70 -16 -109 -16c-185 0 -305 146 -305 372c0 229 123 370 321 370c32 0 63 -4 91 -13h468l34 -193l-29 -9l-61 88c-30 43 -59 59 -118 59h-194c66 -57 107 -148 115 -263c71 1 92 17 106 77l10 42h30v-290h-30l-10 41
c-14 58 -34 74 -105 75c-3 -126 -44 -224 -115 -285h226c62 0 95 18 117 60l62 116zM165 356c0 -208 72 -314 208 -314c121 0 191 114 191 314c0 204 -73 312 -209 312c-120 0 -190 -111 -190 -312z" />
    <glyph glyph-name="P" unicode="P" horiz-adv-x="640" 
d="M313 348c118 0 184 59 184 169c0 97 -53 141 -167 141h-88v-561c0 -37 10 -49 41 -52l78 -8v-37h-333v37l61 8c32 4 42 16 42 52v518c0 37 -10 49 -42 53l-61 7v38h313c179 0 274 -64 274 -183c0 -144 -111 -228 -302 -228h-15v46h15z" />
    <glyph glyph-name="Thorn" unicode="&#xde;" horiz-adv-x="650" 
d="M313 216c116 0 184 59 184 170c0 101 -55 144 -169 144h-86v-432c0 -37 10 -50 41 -53l73 -8v-37h-328v37l61 8c32 4 42 17 42 53v516c0 37 -10 50 -42 54l-61 7v38h315v-38l-60 -7c-31 -4 -41 -17 -41 -54v-32h99c179 0 274 -64 274 -183c0 -144 -111 -228 -302 -228
h-15v45h15z" />
    <glyph glyph-name="Q" unicode="Q" horiz-adv-x="747" 
d="M550 -118c46 -53 99 -80 175 -90v-35c-46 -11 -75 -16 -98 -16c-86 0 -141 30 -179 98l-82 145h-2c-193 0 -317 146 -317 374c0 227 128 368 335 368c193 0 318 -145 318 -368c0 -198 -92 -329 -247 -365zM165 358c0 -211 72 -316 218 -316c129 0 199 111 199 316
s-74 310 -218 310c-129 0 -199 -110 -199 -310z" />
    <glyph glyph-name="R" unicode="R" horiz-adv-x="699" 
d="M654 42l25 -5v-37h-154l-252 364v17h25c133 0 188 41 188 141c0 103 -45 138 -173 138h-71v-563c0 -36 9 -48 41 -52l60 -8v-37h-315v37l61 8c32 4 42 16 42 52v518c0 37 -10 49 -42 53l-61 7v38h314c172 0 260 -59 260 -175c0 -99 -76 -168 -199 -184l216 -291
c9 -12 19 -18 35 -21z" />
    <glyph glyph-name="Racute" unicode="&#x154;" horiz-adv-x="699" 
d="M438 839l-187 -84l-12 19l150 136c23 21 56 17 69 -5c14 -23 6 -54 -20 -66zM654 42l25 -5v-37h-154l-252 364v17h25c133 0 188 41 188 141c0 103 -45 138 -173 138h-71v-563c0 -36 9 -48 41 -52l60 -8v-37h-315v37l61 8c32 4 42 16 42 52v518c0 37 -10 49 -42 53l-61 7
v38h314c172 0 260 -59 260 -175c0 -99 -76 -168 -199 -184l216 -291c9 -12 19 -18 35 -21z" />
    <glyph glyph-name="Rcaron" unicode="&#x158;" horiz-adv-x="699" 
d="M336 759h-20l-127 108l13 21l125 -59l123 59l13 -21zM654 42l25 -5v-37h-154l-252 364v17h25c133 0 188 41 188 141c0 103 -45 138 -173 138h-71v-563c0 -36 9 -48 41 -52l60 -8v-37h-315v37l61 8c32 4 42 16 42 52v518c0 37 -10 49 -42 53l-61 7v38h314
c172 0 260 -59 260 -175c0 -99 -76 -168 -199 -184l216 -291c9 -12 19 -18 35 -21z" />
    <glyph glyph-name="Rcommaaccent" unicode="&#x156;" horiz-adv-x="699" 
d="M654 42l25 -5v-37h-154l-252 364v17h25c133 0 188 41 188 141c0 103 -45 138 -173 138h-71v-563c0 -36 9 -48 41 -52l60 -8v-37h-315v37l61 8c32 4 42 16 42 52v518c0 37 -10 49 -42 53l-61 7v38h314c172 0 260 -59 260 -175c0 -99 -76 -168 -199 -184l216 -291
c9 -12 19 -18 35 -21zM386 -81c47 0 84 -34 84 -94c0 -78 -51 -122 -156 -147l-10 36c68 21 82 42 82 74c0 35 -18 58 -81 61c0 43 33 70 81 70z" />
    <glyph glyph-name="S" unicode="S" horiz-adv-x="572" 
d="M276 -16c-84 0 -152 17 -212 53l-19 172l42 8c41 -126 98 -175 189 -175c89 0 135 43 135 122c0 51 -29 89 -92 122l-98 51c-103 53 -150 110 -150 189c0 120 104 200 233 200c74 0 134 -15 183 -41l19 -168l-39 -7c-38 114 -89 159 -163 159c-81 0 -129 -40 -129 -107
c0 -56 27 -92 105 -132l90 -46c113 -58 150 -106 150 -195c0 -115 -107 -205 -244 -205z" />
    <glyph glyph-name="Sacute" unicode="&#x15a;" horiz-adv-x="572" 
d="M227 755l-12 19l150 136c23 21 56 17 69 -5c14 -23 6 -54 -20 -66zM276 -16c-84 0 -152 17 -212 53l-19 172l42 8c41 -126 98 -175 189 -175c89 0 135 43 135 122c0 51 -29 89 -92 122l-98 51c-103 53 -150 110 -150 189c0 120 104 200 233 200c74 0 134 -15 183 -41
l19 -168l-39 -7c-38 114 -89 159 -163 159c-81 0 -129 -40 -129 -107c0 -56 27 -92 105 -132l90 -46c113 -58 150 -106 150 -195c0 -115 -107 -205 -244 -205z" />
    <glyph glyph-name="Scaron" unicode="&#x160;" horiz-adv-x="572" 
d="M312 759h-20l-127 108l13 21l125 -59l123 59l13 -21zM370 384c113 -58 150 -106 150 -195c0 -115 -107 -205 -244 -205c-84 0 -152 17 -212 53l-19 172l42 8c41 -126 98 -175 189 -175c89 0 135 43 135 122c0 51 -29 89 -92 122l-98 51c-103 53 -150 110 -150 189
c0 120 104 200 233 200c74 0 134 -15 183 -41l19 -168l-39 -7c-38 114 -89 159 -163 159c-81 0 -129 -40 -129 -107c0 -56 27 -92 105 -132z" />
    <glyph glyph-name="Scedilla" unicode="&#x15e;" horiz-adv-x="572" 
d="M520 189c0 -112 -101 -200 -232 -205l-9 -29c82 -7 119 -42 119 -83c0 -58 -76 -122 -216 -122v24c87 10 119 34 119 64c0 27 -20 48 -86 53l28 94c-69 4 -127 21 -179 52l-19 172l42 8c41 -126 98 -175 189 -175c89 0 135 43 135 122c0 51 -29 89 -92 122l-98 51
c-103 53 -150 110 -150 189c0 120 104 200 233 200c74 0 134 -15 183 -41l19 -168l-39 -7c-38 114 -89 159 -163 159c-81 0 -129 -40 -129 -107c0 -56 27 -92 105 -132l90 -46c113 -58 150 -106 150 -195z" />
    <glyph glyph-name="Scircumflex" unicode="&#x15c;" horiz-adv-x="572" 
d="M303 818l-132 -62l-13 22l133 114h22l133 -114l-13 -22zM370 384c113 -58 150 -106 150 -195c0 -115 -107 -205 -244 -205c-84 0 -152 17 -212 53l-19 172l42 8c41 -126 98 -175 189 -175c89 0 135 43 135 122c0 51 -29 89 -92 122l-98 51c-103 53 -150 110 -150 189
c0 120 104 200 233 200c74 0 134 -15 183 -41l19 -168l-39 -7c-38 114 -89 159 -163 159c-81 0 -129 -40 -129 -107c0 -56 27 -92 105 -132z" />
    <glyph glyph-name="Scommaaccent" unicode="&#x218;" horiz-adv-x="572" 
d="M276 -16c-84 0 -152 17 -212 53l-19 172l42 8c41 -126 98 -175 189 -175c89 0 135 43 135 122c0 51 -29 89 -92 122l-98 51c-103 53 -150 110 -150 189c0 120 104 200 233 200c74 0 134 -15 183 -41l19 -168l-39 -7c-38 114 -89 159 -163 159c-81 0 -129 -40 -129 -107
c0 -56 27 -92 105 -132l90 -46c113 -58 150 -106 150 -195c0 -115 -107 -205 -244 -205zM218 -322l-10 36c68 21 82 42 82 74c0 35 -18 58 -81 61c0 43 33 70 81 70c47 0 84 -34 84 -94c0 -78 -51 -122 -156 -147z" />
    <glyph glyph-name="T" unicode="T" horiz-adv-x="695" 
d="M638 713l36 -216l-30 -8l-62 110c-25 44 -53 59 -113 59h-65v-560c0 -37 10 -49 41 -53l61 -8v-37h-315v37l61 8c31 4 41 17 41 53v560h-66c-61 0 -89 -15 -114 -59l-62 -110l-29 8l36 216h580z" />
    <glyph glyph-name="Tbar" unicode="&#x166;" horiz-adv-x="695" 
d="M638 713l36 -216l-30 -8l-62 110c-25 44 -53 59 -113 59h-65v-269h166v-48h-166v-243c0 -37 10 -49 41 -53l61 -8v-37h-315v37l61 8c31 4 41 17 41 53v243h-167v48h167v269h-66c-61 0 -89 -15 -114 -59l-62 -110l-29 8l36 216h580z" />
    <glyph glyph-name="Tcaron" unicode="&#x164;" horiz-adv-x="695" 
d="M359 759h-20l-127 108l13 21l125 -59l123 59l13 -21zM638 713l36 -216l-30 -8l-62 110c-25 44 -53 59 -113 59h-65v-560c0 -37 10 -49 41 -53l61 -8v-37h-315v37l61 8c31 4 41 17 41 53v560h-66c-61 0 -89 -15 -114 -59l-62 -110l-29 8l36 216h580z" />
    <glyph glyph-name="uni0162" unicode="&#x162;" horiz-adv-x="695" 
d="M638 713l36 -216l-30 -8l-62 110c-25 44 -53 59 -113 59h-65v-560c0 -37 10 -49 41 -53l61 -8v-37h-144l-14 -45c82 -7 119 -42 119 -83c0 -58 -76 -122 -216 -122v24c87 10 119 34 119 64c0 27 -20 48 -86 53l33 109h-126v37l61 8c31 4 41 17 41 53v560h-66
c-61 0 -89 -15 -114 -59l-62 -110l-29 8l36 216h580z" />
    <glyph glyph-name="uni021A" unicode="&#x21a;" horiz-adv-x="695" 
d="M638 713l36 -216l-30 -8l-62 110c-25 44 -53 59 -113 59h-65v-560c0 -37 10 -49 41 -53l61 -8v-37h-315v37l61 8c31 4 41 17 41 53v560h-66c-61 0 -89 -15 -114 -59l-62 -110l-29 8l36 216h580zM359 -81c47 0 84 -34 84 -94c0 -78 -51 -122 -156 -147l-10 36
c68 21 82 42 82 74c0 35 -18 58 -81 61c0 43 33 70 81 70z" />
    <glyph glyph-name="U" unicode="U" horiz-adv-x="746" 
d="M387 -16c-164 0 -266 102 -266 283v346c0 39 -10 52 -44 56l-56 6v38h311v-38l-56 -6c-34 -4 -44 -17 -44 -56v-368c0 -116 64 -186 173 -186s173 70 173 186v359c0 36 -14 56 -50 62l-49 8v39h254v-39l-36 -8c-41 -9 -58 -27 -58 -75v-324c0 -181 -88 -283 -252 -283z
" />
    <glyph glyph-name="Uacute" unicode="&#xda;" horiz-adv-x="746" 
d="M325 755l-12 19l150 136c23 21 56 17 69 -5c14 -23 6 -54 -20 -66zM387 -16c-164 0 -266 102 -266 283v346c0 39 -10 52 -44 56l-56 6v38h311v-38l-56 -6c-34 -4 -44 -17 -44 -56v-368c0 -116 64 -186 173 -186s173 70 173 186v359c0 36 -14 56 -50 62l-49 8v39h254v-39
l-36 -8c-41 -9 -58 -27 -58 -75v-324c0 -181 -88 -283 -252 -283z" />
    <glyph glyph-name="Ubreve" unicode="&#x16c;" horiz-adv-x="746" 
d="M400 757c80 0 131 44 145 134l-28 8c-17 -56 -52 -68 -117 -68s-100 12 -117 68l-28 -8c14 -90 65 -134 145 -134zM387 -16c-164 0 -266 102 -266 283v346c0 39 -10 52 -44 56l-56 6v38h311v-38l-56 -6c-34 -4 -44 -17 -44 -56v-368c0 -116 64 -186 173 -186
s173 70 173 186v359c0 36 -14 56 -50 62l-49 8v39h254v-39l-36 -8c-41 -9 -58 -27 -58 -75v-324c0 -181 -88 -283 -252 -283z" />
    <glyph glyph-name="Ucircumflex" unicode="&#xdb;" horiz-adv-x="746" 
d="M401 818l-132 -62l-13 22l133 114h22l133 -114l-13 -22zM479 713h254v-39l-36 -8c-41 -9 -58 -27 -58 -75v-324c0 -181 -88 -283 -252 -283s-266 102 -266 283v346c0 39 -10 52 -44 56l-56 6v38h311v-38l-56 -6c-34 -4 -44 -17 -44 -56v-368c0 -116 64 -186 173 -186
s173 70 173 186v359c0 36 -14 56 -50 62l-49 8v39z" />
    <glyph glyph-name="Udieresis" unicode="&#xdc;" horiz-adv-x="746" 
d="M314 771c-33 0 -55 22 -55 53c0 28 22 51 55 51c31 0 54 -23 54 -51c0 -31 -23 -53 -54 -53zM487 772c-34 0 -55 22 -55 52c0 28 21 50 55 50c31 0 54 -22 54 -50c0 -30 -23 -52 -54 -52zM387 -16c-164 0 -266 102 -266 283v346c0 39 -10 52 -44 56l-56 6v38h311v-38
l-56 -6c-34 -4 -44 -17 -44 -56v-368c0 -116 64 -186 173 -186s173 70 173 186v359c0 36 -14 56 -50 62l-49 8v39h254v-39l-36 -8c-41 -9 -58 -27 -58 -75v-324c0 -181 -88 -283 -252 -283z" />
    <glyph glyph-name="uni1EE4" unicode="&#x1ee4;" horiz-adv-x="746" 
d="M387 -16c-164 0 -266 102 -266 283v346c0 39 -10 52 -44 56l-56 6v38h311v-38l-56 -6c-34 -4 -44 -17 -44 -56v-368c0 -116 64 -186 173 -186s173 70 173 186v359c0 36 -14 56 -50 62l-49 8v39h254v-39l-36 -8c-41 -9 -58 -27 -58 -75v-324c0 -181 -88 -283 -252 -283z
M400 -207c-37 0 -67 29 -67 65c0 37 30 65 67 65c35 0 65 -28 65 -65c0 -36 -30 -65 -65 -65z" />
    <glyph glyph-name="Ugrave" unicode="&#xd9;" horiz-adv-x="746" 
d="M470 755l-178 80c-24 11 -32 41 -19 63c13 21 44 24 66 4l142 -129zM387 -16c-164 0 -266 102 -266 283v346c0 39 -10 52 -44 56l-56 6v38h311v-38l-56 -6c-34 -4 -44 -17 -44 -56v-368c0 -116 64 -186 173 -186s173 70 173 186v359c0 36 -14 56 -50 62l-49 8v39h254v-39
l-36 -8c-41 -9 -58 -27 -58 -75v-324c0 -181 -88 -283 -252 -283z" />
    <glyph glyph-name="Uhungarumlaut" unicode="&#x170;" horiz-adv-x="746" 
d="M255 742l-13 17l126 145c19 23 50 23 65 4c16 -20 12 -51 -11 -65zM449 742l-13 17l126 145c19 23 50 23 65 4c16 -20 12 -51 -11 -65zM387 -16c-164 0 -266 102 -266 283v346c0 39 -10 52 -44 56l-56 6v38h311v-38l-56 -6c-34 -4 -44 -17 -44 -56v-368
c0 -116 64 -186 173 -186s173 70 173 186v359c0 36 -14 56 -50 62l-49 8v39h254v-39l-36 -8c-41 -9 -58 -27 -58 -75v-324c0 -181 -88 -283 -252 -283z" />
    <glyph glyph-name="Umacron" unicode="&#x16a;" horiz-adv-x="746" 
d="M234 838h332v-51h-332v51zM387 -16c-164 0 -266 102 -266 283v346c0 39 -10 52 -44 56l-56 6v38h311v-38l-56 -6c-34 -4 -44 -17 -44 -56v-368c0 -116 64 -186 173 -186s173 70 173 186v359c0 36 -14 56 -50 62l-49 8v39h254v-39l-36 -8c-41 -9 -58 -27 -58 -75v-324
c0 -181 -88 -283 -252 -283z" />
    <glyph glyph-name="Uogonek" unicode="&#x172;" horiz-adv-x="746" 
d="M479 713h254v-39l-36 -8c-41 -9 -58 -27 -58 -75v-324c0 -158 -67 -256 -194 -278c-46 -25 -62 -48 -62 -95c0 -44 25 -64 61 -64c28 0 62 7 99 34l11 -15c-42 -44 -85 -74 -134 -74c-65 0 -127 35 -127 106c0 49 24 78 69 104c-149 10 -241 111 -241 282v346
c0 39 -10 52 -44 56l-56 6v38h311v-38l-56 -6c-34 -4 -44 -17 -44 -56v-368c0 -116 64 -186 173 -186s173 70 173 186v359c0 36 -14 56 -50 62l-49 8v39z" />
    <glyph glyph-name="Uring" unicode="&#x16e;" horiz-adv-x="746" 
d="M398 751c-75 0 -108 40 -108 92c0 56 40 91 112 91c75 0 108 -40 108 -92c0 -54 -39 -91 -112 -91zM399 782c36 0 52 22 52 59c0 34 -15 61 -50 61c-36 0 -52 -21 -52 -57c0 -34 15 -63 50 -63zM387 -16c-164 0 -266 102 -266 283v346c0 39 -10 52 -44 56l-56 6v38h311
v-38l-56 -6c-34 -4 -44 -17 -44 -56v-368c0 -116 64 -186 173 -186s173 70 173 186v359c0 36 -14 56 -50 62l-49 8v39h254v-39l-36 -8c-41 -9 -58 -27 -58 -75v-324c0 -181 -88 -283 -252 -283z" />
    <glyph glyph-name="V" unicode="V" horiz-adv-x="731" 
d="M466 713h257v-38l-40 -11c-34 -9 -48 -28 -61 -63l-228 -601h-36l-258 621c-15 37 -21 44 -44 47l-47 7v38h307v-38l-73 -8c-25 -3 -39 -16 -26 -48l178 -435h7l157 422c13 36 11 46 -17 52l-76 17v38z" />
    <glyph glyph-name="W" unicode="W" horiz-adv-x="1042" 
d="M774 713h255v-38l-38 -10c-32 -8 -49 -24 -64 -73l-184 -592h-37l-176 498h-7l-179 -498h-36l-203 621c-9 29 -18 43 -45 47l-47 7v38h304v-38l-73 -8c-25 -3 -36 -16 -26 -48l127 -427h7l183 521h32l172 -519h2l126 405c11 37 7 57 -29 64l-64 12v38z" />
    <glyph glyph-name="Wacute" unicode="&#x1e82;" horiz-adv-x="1042" 
d="M655 839l-187 -84l-12 19l150 136c23 21 56 17 69 -5c14 -23 6 -54 -20 -66zM774 713h255v-38l-38 -10c-32 -8 -49 -24 -64 -73l-184 -592h-37l-176 498h-7l-179 -498h-36l-203 621c-9 29 -18 43 -45 47l-47 7v38h304v-38l-73 -8c-25 -3 -36 -16 -26 -48l127 -427h7
l183 521h32l172 -519h2l126 405c11 37 7 57 -29 64l-64 12v38z" />
    <glyph glyph-name="Wcircumflex" unicode="&#x174;" horiz-adv-x="1042" 
d="M544 818l-132 -62l-13 22l133 114h22l133 -114l-13 -22zM774 713h255v-38l-38 -10c-32 -8 -49 -24 -64 -73l-184 -592h-37l-176 498h-7l-179 -498h-36l-203 621c-9 29 -18 43 -45 47l-47 7v38h304v-38l-73 -8c-25 -3 -36 -16 -26 -48l127 -427h7l183 521h32l172 -519h2
l126 405c11 37 7 57 -29 64l-64 12v38z" />
    <glyph glyph-name="Wdieresis" unicode="&#x1e84;" horiz-adv-x="1042" 
d="M457 771c-33 0 -55 22 -55 53c0 28 22 51 55 51c31 0 54 -23 54 -51c0 -31 -23 -53 -54 -53zM630 772c-34 0 -55 22 -55 52c0 28 21 50 55 50c31 0 54 -22 54 -50c0 -30 -23 -52 -54 -52zM774 713h255v-38l-38 -10c-32 -8 -49 -24 -64 -73l-184 -592h-37l-176 498h-7
l-179 -498h-36l-203 621c-9 29 -18 43 -45 47l-47 7v38h304v-38l-73 -8c-25 -3 -36 -16 -26 -48l127 -427h7l183 521h32l172 -519h2l126 405c11 37 7 57 -29 64l-64 12v38z" />
    <glyph glyph-name="Wgrave" unicode="&#x1e80;" horiz-adv-x="1042" 
d="M435 835c-24 11 -32 41 -19 63c13 21 44 24 66 4l142 -129l-11 -18zM774 713h255v-38l-38 -10c-32 -8 -49 -24 -64 -73l-184 -592h-37l-176 498h-7l-179 -498h-36l-203 621c-9 29 -18 43 -45 47l-47 7v38h304v-38l-73 -8c-25 -3 -36 -16 -26 -48l127 -427h7l183 521h32
l172 -519h2l126 405c11 37 7 57 -29 64l-64 12v38z" />
    <glyph glyph-name="X" unicode="X" horiz-adv-x="700" 
d="M652 45l42 -7v-38h-316v38l66 9c28 4 38 14 24 36l-139 209l-149 -196c-18 -24 -8 -40 20 -45l70 -13v-38h-265v38l42 10c30 7 44 19 66 48l177 240v8l-192 291c-12 19 -20 28 -46 33l-38 7v38h316v-38l-81 -9c-26 -3 -35 -16 -20 -39l134 -198h2l144 194
c13 18 14 33 -17 39l-69 13v38h255v-38l-44 -9c-30 -6 -40 -24 -59 -49l-172 -233v-11l189 -287c16 -25 34 -37 60 -41z" />
    <glyph glyph-name="Y" unicode="Y" horiz-adv-x="669" 
d="M420 713h244v-38l-33 -8c-31 -7 -40 -23 -60 -56l-182 -291v-222c0 -37 10 -49 42 -53l60 -8v-37h-316v37l62 8c30 4 41 16 41 53v217l-190 319c-13 22 -30 33 -55 37l-28 4v38h298v-38l-65 -9c-25 -3 -34 -21 -19 -47l140 -242h3l142 240c15 25 16 36 -18 43l-66 14v39z
" />
    <glyph glyph-name="Yacute" unicode="&#xdd;" horiz-adv-x="669" 
d="M472 839l-187 -84l-12 19l150 136c23 21 56 17 69 -5c14 -23 6 -54 -20 -66zM420 713h244v-38l-33 -8c-31 -7 -40 -23 -60 -56l-182 -291v-222c0 -37 10 -49 42 -53l60 -8v-37h-316v37l62 8c30 4 41 16 41 53v217l-190 319c-13 22 -30 33 -55 37l-28 4v38h298v-38l-65 -9
c-25 -3 -34 -21 -19 -47l140 -242h3l142 240c15 25 16 36 -18 43l-66 14v39z" />
    <glyph glyph-name="Ycircumflex" unicode="&#x176;" horiz-adv-x="669" 
d="M361 818l-132 -62l-13 22l133 114h22l133 -114l-13 -22zM420 713h244v-38l-33 -8c-31 -7 -40 -23 -60 -56l-182 -291v-222c0 -37 10 -49 42 -53l60 -8v-37h-316v37l62 8c30 4 41 16 41 53v217l-190 319c-13 22 -30 33 -55 37l-28 4v38h298v-38l-65 -9
c-25 -3 -34 -21 -19 -47l140 -242h3l142 240c15 25 16 36 -18 43l-66 14v39z" />
    <glyph glyph-name="Ydieresis" unicode="&#x178;" horiz-adv-x="669" 
d="M274 771c-33 0 -55 22 -55 53c0 28 22 51 55 51c31 0 54 -23 54 -51c0 -31 -23 -53 -54 -53zM447 772c-34 0 -55 22 -55 52c0 28 21 50 55 50c31 0 54 -22 54 -50c0 -30 -23 -52 -54 -52zM420 713h244v-38l-33 -8c-31 -7 -40 -23 -60 -56l-182 -291v-222
c0 -37 10 -49 42 -53l60 -8v-37h-316v37l62 8c30 4 41 16 41 53v217l-190 319c-13 22 -30 33 -55 37l-28 4v38h298v-38l-65 -9c-25 -3 -34 -21 -19 -47l140 -242h3l142 240c15 25 16 36 -18 43l-66 14v39z" />
    <glyph glyph-name="Ygrave" unicode="&#x1ef2;" horiz-adv-x="669" 
d="M252 835c-24 11 -32 41 -19 63c13 21 44 24 66 4l142 -129l-11 -18zM420 713h244v-38l-33 -8c-31 -7 -40 -23 -60 -56l-182 -291v-222c0 -37 10 -49 42 -53l60 -8v-37h-316v37l62 8c30 4 41 16 41 53v217l-190 319c-13 22 -30 33 -55 37l-28 4v38h298v-38l-65 -9
c-25 -3 -34 -21 -19 -47l140 -242h3l142 240c15 25 16 36 -18 43l-66 14v39z" />
    <glyph glyph-name="uni0232" unicode="&#x232;" horiz-adv-x="669" 
d="M526 838v-51h-332v51h332zM420 713h244v-38l-33 -8c-31 -7 -40 -23 -60 -56l-182 -291v-222c0 -37 10 -49 42 -53l60 -8v-37h-316v37l62 8c30 4 41 16 41 53v217l-190 319c-13 22 -30 33 -55 37l-28 4v38h298v-38l-65 -9c-25 -3 -34 -21 -19 -47l140 -242h3l142 240
c15 25 16 36 -18 43l-66 14v39z" />
    <glyph glyph-name="uni1EF8" unicode="&#x1ef8;" horiz-adv-x="669" 
d="M266 810c-28 0 -46 -20 -62 -55l-23 10c12 43 42 114 94 114c28 0 60 -14 92 -29c30 -14 61 -28 87 -28c27 0 43 19 61 54l23 -10c-13 -42 -43 -114 -94 -114c-26 0 -57 11 -86 26c-32 16 -64 32 -92 32zM420 713h244v-38l-33 -8c-31 -7 -40 -23 -60 -56l-182 -291v-222
c0 -37 10 -49 42 -53l60 -8v-37h-316v37l62 8c30 4 41 16 41 53v217l-190 319c-13 22 -30 33 -55 37l-28 4v38h298v-38l-65 -9c-25 -3 -34 -21 -19 -47l140 -242h3l142 240c15 25 16 36 -18 43l-66 14v39z" />
    <glyph glyph-name="Z" unicode="Z" horiz-adv-x="689" 
d="M605 231l29 -9l-36 -222h-538v35l406 623h-190c-59 0 -88 -15 -118 -59l-61 -88l-29 9l34 193h501v-32l-403 -622v-4h226c62 0 94 17 117 60z" />
    <glyph glyph-name="Zacute" unicode="&#x179;" horiz-adv-x="689" 
d="M442 839l-187 -84l-12 19l150 136c23 21 56 17 69 -5c14 -23 6 -54 -20 -66zM605 231l29 -9l-36 -222h-538v35l406 623h-190c-59 0 -88 -15 -118 -59l-61 -88l-29 9l34 193h501v-32l-403 -622v-4h226c62 0 94 17 117 60z" />
    <glyph glyph-name="Zcaron" unicode="&#x17d;" horiz-adv-x="689" 
d="M340 759h-20l-127 108l13 21l125 -59l123 59l13 -21zM605 231l29 -9l-36 -222h-538v35l406 623h-190c-59 0 -88 -15 -118 -59l-61 -88l-29 9l34 193h501v-32l-403 -622v-4h226c62 0 94 17 117 60z" />
    <glyph glyph-name="Zdotaccent" unicode="&#x17b;" horiz-adv-x="689" 
d="M331 757c-39 0 -71 31 -71 69s32 69 71 69c37 0 69 -31 69 -69s-32 -69 -69 -69zM605 231l29 -9l-36 -222h-538v35l406 623h-190c-59 0 -88 -15 -118 -59l-61 -88l-29 9l34 193h501v-32l-403 -622v-4h226c62 0 94 17 117 60z" />
    <glyph glyph-name="a" unicode="a" horiz-adv-x="541" 
d="M509 55l14 -22c-19 -27 -59 -49 -96 -49c-46 0 -75 31 -81 82h-8c-51 -55 -100 -82 -151 -82c-87 0 -141 46 -141 118c0 107 87 163 296 188v76c0 68 -43 109 -113 109c-59 0 -106 -36 -133 -101l-29 12c36 101 101 152 194 152c116 0 176 -60 176 -174v-281
c0 -25 15 -40 38 -40c11 0 23 5 34 12zM225 49c31 0 72 16 117 45v140c-155 -7 -195 -24 -195 -102c0 -51 31 -83 78 -83z" />
    <glyph glyph-name="aacute" unicode="&#xe1;" horiz-adv-x="541" 
d="M380 718l-166 -110l-15 15l122 159c19 24 51 26 69 4c17 -20 15 -51 -10 -68zM509 55l14 -22c-19 -27 -59 -49 -96 -49c-46 0 -75 31 -81 82h-8c-51 -55 -100 -82 -151 -82c-87 0 -141 46 -141 118c0 107 87 163 296 188v76c0 68 -43 109 -113 109
c-59 0 -106 -36 -133 -101l-29 12c36 101 101 152 194 152c116 0 176 -60 176 -174v-281c0 -25 15 -40 38 -40c11 0 23 5 34 12zM225 49c31 0 72 16 117 45v140c-155 -7 -195 -24 -195 -102c0 -51 31 -83 78 -83z" />
    <glyph glyph-name="abreve" unicode="&#x103;" horiz-adv-x="541" 
d="M259 615c-80 0 -131 48 -145 146l24 6c16 -61 56 -78 121 -78s105 17 121 78l24 -6c-14 -98 -65 -146 -145 -146zM509 55l14 -22c-19 -27 -59 -49 -96 -49c-46 0 -75 31 -81 82h-8c-51 -55 -100 -82 -151 -82c-87 0 -141 46 -141 118c0 107 87 163 296 188v76
c0 68 -43 109 -113 109c-59 0 -106 -36 -133 -101l-29 12c36 101 101 152 194 152c116 0 176 -60 176 -174v-281c0 -25 15 -40 38 -40c11 0 23 5 34 12zM225 49c31 0 72 16 117 45v140c-155 -7 -195 -24 -195 -102c0 -51 31 -83 78 -83z" />
    <glyph glyph-name="acircumflex" unicode="&#xe2;" horiz-adv-x="541" 
d="M259 690l-124 -95l-18 15l137 182h12l136 -182l-17 -15zM509 55l14 -22c-19 -27 -59 -49 -96 -49c-46 0 -75 31 -81 82h-8c-51 -55 -100 -82 -151 -82c-87 0 -141 46 -141 118c0 107 87 163 296 188v76c0 68 -43 109 -113 109c-59 0 -106 -36 -133 -101l-29 12
c36 101 101 152 194 152c116 0 176 -60 176 -174v-281c0 -25 15 -40 38 -40c11 0 23 5 34 12zM225 49c31 0 72 16 117 45v140c-155 -7 -195 -24 -195 -102c0 -51 31 -83 78 -83z" />
    <glyph glyph-name="adieresis" unicode="&#xe4;" horiz-adv-x="541" 
d="M167 649c-31 0 -56 26 -56 57s25 58 56 58c32 0 58 -27 58 -58s-26 -57 -58 -57zM352 650c-34 0 -59 26 -59 56c0 31 25 57 59 57c29 0 55 -26 55 -57c0 -30 -26 -56 -55 -56zM509 55l14 -22c-19 -27 -59 -49 -96 -49c-46 0 -75 31 -81 82h-8c-51 -55 -100 -82 -151 -82
c-87 0 -141 46 -141 118c0 107 87 163 296 188v76c0 68 -43 109 -113 109c-59 0 -106 -36 -133 -101l-29 12c36 101 101 152 194 152c116 0 176 -60 176 -174v-281c0 -25 15 -40 38 -40c11 0 23 5 34 12zM225 49c31 0 72 16 117 45v140c-155 -7 -195 -24 -195 -102
c0 -51 31 -83 78 -83z" />
    <glyph glyph-name="agrave" unicode="&#xe0;" horiz-adv-x="541" 
d="M151 718c-25 17 -27 48 -10 68c18 22 50 20 69 -4l122 -159l-15 -15zM509 55l14 -22c-19 -27 -59 -49 -96 -49c-46 0 -75 31 -81 82h-8c-51 -55 -100 -82 -151 -82c-87 0 -141 46 -141 118c0 107 87 163 296 188v76c0 68 -43 109 -113 109c-59 0 -106 -36 -133 -101
l-29 12c36 101 101 152 194 152c116 0 176 -60 176 -174v-281c0 -25 15 -40 38 -40c11 0 23 5 34 12zM225 49c31 0 72 16 117 45v140c-155 -7 -195 -24 -195 -102c0 -51 31 -83 78 -83z" />
    <glyph glyph-name="amacron" unicode="&#x101;" horiz-adv-x="541" 
d="M434 731v-54h-350v54h350zM509 55l14 -22c-19 -27 -59 -49 -96 -49c-46 0 -75 31 -81 82h-8c-51 -55 -100 -82 -151 -82c-87 0 -141 46 -141 118c0 107 87 163 296 188v76c0 68 -43 109 -113 109c-59 0 -106 -36 -133 -101l-29 12c36 101 101 152 194 152
c116 0 176 -60 176 -174v-281c0 -25 15 -40 38 -40c11 0 23 5 34 12zM225 49c31 0 72 16 117 45v140c-155 -7 -195 -24 -195 -102c0 -51 31 -83 78 -83z" />
    <glyph glyph-name="aogonek" unicode="&#x105;" horiz-adv-x="541" 
d="M413 -186c28 0 62 7 99 34l11 -15c-42 -44 -85 -74 -134 -74c-65 0 -127 35 -127 106c0 66 43 96 123 130c-22 14 -35 38 -39 71h-8c-51 -55 -100 -82 -151 -82c-87 0 -141 46 -141 118c0 107 87 163 296 188v76c0 68 -43 109 -113 109c-59 0 -106 -36 -133 -101l-29 12
c36 101 101 152 194 152c116 0 176 -60 176 -174v-281c0 -25 15 -40 38 -40c11 0 23 5 34 12l14 -22c-17 -25 -52 -45 -86 -49c-64 -29 -85 -52 -85 -106c0 -44 25 -64 61 -64zM225 49c31 0 72 16 117 45v140c-155 -7 -195 -24 -195 -102c0 -51 31 -83 78 -83z" />
    <glyph glyph-name="aring" unicode="&#xe5;" horiz-adv-x="541" 
d="M257 580c-68 0 -100 48 -100 101c0 58 40 101 104 101c68 0 100 -47 100 -102c0 -57 -39 -100 -104 -100zM257 750c-33 0 -46 -20 -46 -62c0 -51 14 -77 50 -77c33 0 46 19 46 62c0 52 -14 77 -50 77zM509 55l14 -22c-19 -27 -59 -49 -96 -49c-46 0 -75 31 -81 82h-8
c-51 -55 -100 -82 -151 -82c-87 0 -141 46 -141 118c0 107 87 163 296 188v76c0 68 -43 109 -113 109c-59 0 -106 -36 -133 -101l-29 12c36 101 101 152 194 152c116 0 176 -60 176 -174v-281c0 -25 15 -40 38 -40c11 0 23 5 34 12zM225 49c31 0 72 16 117 45v140
c-155 -7 -195 -24 -195 -102c0 -51 31 -83 78 -83z" />
    <glyph glyph-name="aringacute" unicode="&#x1fb;" horiz-adv-x="541" 
d="M257 580c-68 0 -100 48 -100 101c0 35 14 64 40 82l143 130c23 21 56 17 69 -5c14 -23 6 -54 -20 -66l-97 -44c47 -12 69 -52 69 -98c0 -57 -39 -100 -104 -100zM261 611c33 0 46 19 46 62c0 52 -14 77 -50 77c-33 0 -46 -20 -46 -62c0 -51 14 -77 50 -77zM509 55l14 -22
c-19 -27 -59 -49 -96 -49c-46 0 -75 31 -81 82h-8c-51 -55 -100 -82 -151 -82c-87 0 -141 46 -141 118c0 107 87 163 296 188v76c0 68 -43 109 -113 109c-59 0 -106 -36 -133 -101l-29 12c36 101 101 152 194 152c116 0 176 -60 176 -174v-281c0 -25 15 -40 38 -40
c11 0 23 5 34 12zM225 49c31 0 72 16 117 45v140c-155 -7 -195 -24 -195 -102c0 -51 31 -83 78 -83z" />
    <glyph glyph-name="atilde" unicode="&#xe3;" horiz-adv-x="541" 
d="M174 680c-28 0 -46 -19 -62 -53l-23 8c12 43 42 116 94 116c28 0 60 -16 92 -31c30 -14 61 -27 87 -27c27 0 43 20 61 54l23 -10c-13 -43 -43 -115 -94 -115c-26 0 -56 14 -86 28c-32 15 -64 30 -92 30zM509 55l14 -22c-19 -27 -59 -49 -96 -49c-46 0 -75 31 -81 82h-8
c-51 -55 -100 -82 -151 -82c-87 0 -141 46 -141 118c0 107 87 163 296 188v76c0 68 -43 109 -113 109c-59 0 -106 -36 -133 -101l-29 12c36 101 101 152 194 152c116 0 176 -60 176 -174v-281c0 -25 15 -40 38 -40c11 0 23 5 34 12zM225 49c31 0 72 16 117 45v140
c-155 -7 -195 -24 -195 -102c0 -51 31 -83 78 -83z" />
    <glyph glyph-name="ae" unicode="&#xe6;" horiz-adv-x="840" 
d="M790 290h-346v-2c0 -132 67 -224 170 -224c69 0 106 16 150 45l18 -20c-51 -56 -107 -105 -196 -105c-64 0 -123 23 -167 66c-15 15 -28 32 -38 52h-11c-40 -72 -112 -118 -185 -118c-84 0 -139 47 -139 118c0 107 88 163 296 188v76c0 68 -43 109 -113 109
c-59 0 -106 -37 -133 -101l-29 12c36 101 101 152 194 152c75 0 127 -25 154 -74c42 48 103 74 177 74c118 0 199 -88 199 -215c0 -17 0 -26 -1 -33zM580 490c-70 0 -120 -54 -133 -152h251c-3 90 -47 152 -118 152zM226 49c49 0 104 32 142 81c-12 31 -19 67 -20 106
c-159 -8 -201 -25 -201 -104c0 -52 29 -83 79 -83z" />
    <glyph glyph-name="aeacute" unicode="&#x1fd;" horiz-adv-x="840" 
d="M598 718l-166 -110l-15 15l122 159c19 24 51 26 69 4c17 -20 15 -51 -10 -68zM790 290h-346v-2c0 -132 67 -224 170 -224c69 0 106 16 150 45l18 -20c-51 -56 -107 -105 -196 -105c-64 0 -123 23 -167 66c-15 15 -28 32 -38 52h-11c-40 -72 -112 -118 -185 -118
c-84 0 -139 47 -139 118c0 107 88 163 296 188v76c0 68 -43 109 -113 109c-59 0 -106 -37 -133 -101l-29 12c36 101 101 152 194 152c75 0 127 -25 154 -74c42 48 103 74 177 74c118 0 199 -88 199 -215c0 -17 0 -26 -1 -33zM580 490c-70 0 -120 -54 -133 -152h251
c-3 90 -47 152 -118 152zM226 49c49 0 104 32 142 81c-12 31 -19 67 -20 106c-159 -8 -201 -25 -201 -104c0 -52 29 -83 79 -83z" />
    <glyph glyph-name="b" unicode="b" horiz-adv-x="636" 
d="M515 485c46 -44 71 -115 71 -203c0 -173 -119 -298 -284 -298c-58 0 -117 16 -190 52v629c0 14 -5 22 -15 24l-72 17v26l170 36l12 -6v-302h9c31 47 94 78 158 78c57 0 105 -18 141 -53zM328 33c98 0 163 83 163 208c0 141 -60 223 -165 223c-46 0 -88 -14 -119 -39v-346
c29 -29 73 -46 121 -46z" />
    <glyph glyph-name="c" unicode="c" horiz-adv-x="509" 
d="M274 -16c-132 0 -224 113 -224 274c0 174 104 280 258 280c51 0 98 -10 134 -28l19 -155l-31 -5c-32 89 -73 137 -139 137c-92 0 -142 -75 -142 -199c0 -133 62 -224 158 -224c67 0 101 16 143 45l18 -20c-49 -56 -105 -105 -194 -105z" />
    <glyph glyph-name="cacute" unicode="&#x107;" horiz-adv-x="509" 
d="M245 608l-15 15l122 159c19 24 51 26 69 4c17 -20 15 -51 -10 -68zM274 -16c-132 0 -224 113 -224 274c0 174 104 280 258 280c51 0 98 -10 134 -28l19 -155l-31 -5c-32 89 -73 137 -139 137c-92 0 -142 -75 -142 -199c0 -133 62 -224 158 -224c67 0 101 16 143 45
l18 -20c-49 -56 -105 -105 -194 -105z" />
    <glyph glyph-name="ccaron" unicode="&#x10d;" horiz-adv-x="509" 
d="M297 619h-12l-130 173l17 14l118 -91l120 91l16 -14zM450 109l18 -20c-49 -56 -105 -105 -194 -105c-132 0 -224 113 -224 274c0 174 104 280 258 280c51 0 98 -10 134 -28l19 -155l-31 -5c-32 89 -73 137 -139 137c-92 0 -142 -75 -142 -199c0 -133 62 -224 158 -224
c67 0 101 16 143 45z" />
    <glyph glyph-name="ccedilla" unicode="&#xe7;" horiz-adv-x="509" 
d="M274 -16h-1l-9 -29c82 -7 119 -42 119 -83c0 -58 -76 -122 -216 -122v24c87 10 119 34 119 64c0 27 -20 48 -86 53l29 98c-107 22 -179 127 -179 269c0 174 104 280 258 280c51 0 98 -10 134 -28l19 -155l-31 -5c-32 89 -73 137 -139 137c-92 0 -142 -75 -142 -199
c0 -133 62 -224 158 -224c67 0 101 16 143 45l18 -20c-49 -56 -105 -105 -194 -105z" />
    <glyph glyph-name="ccircumflex" unicode="&#x109;" horiz-adv-x="509" 
d="M290 690l-124 -95l-18 15l137 182h12l136 -182l-17 -15zM450 109l18 -20c-49 -56 -105 -105 -194 -105c-132 0 -224 113 -224 274c0 174 104 280 258 280c51 0 98 -10 134 -28l19 -155l-31 -5c-32 89 -73 137 -139 137c-92 0 -142 -75 -142 -199c0 -133 62 -224 158 -224
c67 0 101 16 143 45z" />
    <glyph glyph-name="cdotaccent" unicode="&#x10b;" horiz-adv-x="509" 
d="M291 642c-39 0 -71 31 -71 69s32 68 71 68c37 0 69 -30 69 -68s-32 -69 -69 -69zM274 -16c-132 0 -224 113 -224 274c0 174 104 280 258 280c51 0 98 -10 134 -28l19 -155l-31 -5c-32 89 -73 137 -139 137c-92 0 -142 -75 -142 -199c0 -133 62 -224 158 -224
c67 0 101 16 143 45l18 -20c-49 -56 -105 -105 -194 -105z" />
    <glyph glyph-name="d" unicode="d" horiz-adv-x="629" 
d="M541 52l58 -16v-25l-153 -33l-12 7v77h-14c-30 -45 -92 -78 -148 -78c-61 0 -116 22 -156 62c-43 43 -66 110 -66 194c0 173 119 298 284 298c32 0 64 -5 95 -14v133c0 14 -5 21 -15 24l-80 23v26l178 38l12 -6v-685c0 -14 4 -21 17 -25zM310 58c46 0 88 14 119 39v345
c-29 29 -75 47 -121 47c-100 0 -162 -80 -162 -208c0 -142 60 -223 164 -223z" />
    <glyph glyph-name="eth" unicode="&#xf0;" horiz-adv-x="619" 
d="M564 725l-66 -45c42 -54 66 -134 66 -233c0 -265 -139 -463 -319 -463c-122 0 -205 94 -205 230c0 158 97 266 239 266c63 0 123 -32 167 -87h9v18c0 97 -13 167 -37 213l-110 -75l-24 36l109 75c-25 27 -58 39 -98 39c-42 0 -86 -15 -131 -44l-15 27
c61 51 124 79 181 79c53 0 100 -17 138 -49l71 49zM257 34c99 0 181 134 196 316c-52 46 -109 72 -162 72c-96 0 -147 -73 -147 -216c0 -118 36 -172 113 -172z" />
    <glyph glyph-name="dcaron" unicode="&#x10f;" horiz-adv-x="743" 
d="M696 787c25 -9 38 -37 25 -64l-88 -178l-21 5l26 199c5 30 31 48 58 38zM524 77c0 -14 4 -21 17 -25l58 -16v-25l-153 -33l-12 7v77h-14c-30 -45 -92 -78 -148 -78c-61 0 -116 22 -156 62c-43 43 -66 110 -66 194c0 173 119 298 284 298c32 0 64 -5 95 -14v133
c0 14 -5 21 -15 24l-80 23v26l178 38l12 -6v-685zM310 58c46 0 88 14 119 39v345c-29 29 -75 47 -121 47c-100 0 -162 -80 -162 -208c0 -142 60 -223 164 -223z" />
    <glyph glyph-name="dcroat" unicode="&#x111;" horiz-adv-x="633" 
d="M603 560h-79v-483c0 -13 5 -21 14 -24l61 -17v-25l-153 -33l-12 7v70h-14c-30 -41 -92 -71 -148 -71c-61 0 -116 20 -156 56c-43 39 -66 99 -66 175c0 156 119 269 284 269c31 0 64 -4 95 -13v89h-186v44h186v61c0 14 -5 21 -19 24l-68 17v26l170 36l12 -6v-158h79v-44z
M310 57c48 0 88 11 119 33v300c-35 30 -78 47 -121 47c-103 0 -162 -67 -162 -185c0 -121 62 -195 164 -195z" />
    <glyph glyph-name="e" unicode="e" horiz-adv-x="543" 
d="M493 290h-346v-2c0 -132 67 -224 170 -224c69 0 106 16 150 45l18 -20c-51 -56 -107 -105 -196 -105c-64 0 -123 23 -167 66c-47 47 -72 119 -72 208c0 172 94 280 245 280c118 0 199 -88 199 -215c0 -17 0 -26 -1 -33zM283 490c-70 0 -120 -54 -133 -152h251
c-3 90 -47 152 -118 152z" />
    <glyph glyph-name="eacute" unicode="&#xe9;" horiz-adv-x="543" 
d="M407 718l-166 -110l-15 15l122 159c19 24 51 26 69 4c17 -20 15 -51 -10 -68zM493 290h-346v-2c0 -132 67 -224 170 -224c69 0 106 16 150 45l18 -20c-51 -56 -107 -105 -196 -105c-64 0 -123 23 -167 66c-47 47 -72 119 -72 208c0 172 94 280 245 280
c118 0 199 -88 199 -215c0 -17 0 -26 -1 -33zM283 490c-70 0 -120 -54 -133 -152h251c-3 90 -47 152 -118 152z" />
    <glyph glyph-name="ebreve" unicode="&#x115;" horiz-adv-x="543" 
d="M286 615c-80 0 -131 48 -145 146l24 6c16 -61 56 -78 121 -78s105 17 121 78l24 -6c-14 -98 -65 -146 -145 -146zM493 290h-346v-2c0 -132 67 -224 170 -224c69 0 106 16 150 45l18 -20c-51 -56 -107 -105 -196 -105c-64 0 -123 23 -167 66c-47 47 -72 119 -72 208
c0 172 94 280 245 280c118 0 199 -88 199 -215c0 -17 0 -26 -1 -33zM283 490c-70 0 -120 -54 -133 -152h251c-3 90 -47 152 -118 152z" />
    <glyph glyph-name="ecaron" unicode="&#x11b;" horiz-adv-x="543" 
d="M293 619h-12l-130 173l17 14l118 -91l120 91l16 -14zM493 290h-346v-2c0 -132 67 -224 170 -224c69 0 106 16 150 45l18 -20c-51 -56 -107 -105 -196 -105c-64 0 -123 23 -167 66c-47 47 -72 119 -72 208c0 172 94 280 245 280c118 0 199 -88 199 -215
c0 -17 0 -26 -1 -33zM283 490c-70 0 -120 -54 -133 -152h251c-3 90 -47 152 -118 152z" />
    <glyph glyph-name="ecircumflex" unicode="&#xea;" horiz-adv-x="543" 
d="M286 690l-124 -95l-18 15l137 182h12l136 -182l-17 -15zM493 290h-346v-2c0 -132 67 -224 170 -224c69 0 106 16 150 45l18 -20c-51 -56 -107 -105 -196 -105c-64 0 -123 23 -167 66c-47 47 -72 119 -72 208c0 172 94 280 245 280c118 0 199 -88 199 -215
c0 -17 0 -26 -1 -33zM283 490c-70 0 -120 -54 -133 -152h251c-3 90 -47 152 -118 152z" />
    <glyph glyph-name="edieresis" unicode="&#xeb;" horiz-adv-x="543" 
d="M194 649c-31 0 -56 26 -56 57s25 58 56 58c32 0 58 -27 58 -58s-26 -57 -58 -57zM379 650c-34 0 -59 26 -59 56c0 31 25 57 59 57c29 0 55 -26 55 -57c0 -30 -26 -56 -55 -56zM493 290h-346v-2c0 -132 67 -224 170 -224c69 0 106 16 150 45l18 -20
c-51 -56 -107 -105 -196 -105c-64 0 -123 23 -167 66c-47 47 -72 119 -72 208c0 172 94 280 245 280c118 0 199 -88 199 -215c0 -17 0 -26 -1 -33zM283 490c-70 0 -120 -54 -133 -152h251c-3 90 -47 152 -118 152z" />
    <glyph glyph-name="edotaccent" unicode="&#x117;" horiz-adv-x="543" 
d="M287 642c-39 0 -71 31 -71 69s32 68 71 68c37 0 69 -30 69 -68s-32 -69 -69 -69zM493 290h-346v-2c0 -132 67 -224 170 -224c69 0 106 16 150 45l18 -20c-51 -56 -107 -105 -196 -105c-64 0 -123 23 -167 66c-47 47 -72 119 -72 208c0 172 94 280 245 280
c118 0 199 -88 199 -215c0 -17 0 -26 -1 -33zM283 490c-70 0 -120 -54 -133 -152h251c-3 90 -47 152 -118 152z" />
    <glyph glyph-name="egrave" unicode="&#xe8;" horiz-adv-x="543" 
d="M178 718c-25 17 -27 48 -10 68c18 22 50 20 69 -4l122 -159l-15 -15zM493 290h-346v-2c0 -132 67 -224 170 -224c69 0 106 16 150 45l18 -20c-51 -56 -107 -105 -196 -105c-64 0 -123 23 -167 66c-47 47 -72 119 -72 208c0 172 94 280 245 280c118 0 199 -88 199 -215
c0 -17 0 -26 -1 -33zM283 490c-70 0 -120 -54 -133 -152h251c-3 90 -47 152 -118 152z" />
    <glyph glyph-name="emacron" unicode="&#x113;" horiz-adv-x="543" 
d="M461 731v-54h-350v54h350zM493 290h-346v-2c0 -132 67 -224 170 -224c69 0 106 16 150 45l18 -20c-51 -56 -107 -105 -196 -105c-64 0 -123 23 -167 66c-47 47 -72 119 -72 208c0 172 94 280 245 280c118 0 199 -88 199 -215c0 -17 0 -26 -1 -33zM283 490
c-70 0 -120 -54 -133 -152h251c-3 90 -47 152 -118 152z" />
    <glyph glyph-name="eogonek" unicode="&#x119;" horiz-adv-x="543" 
d="M493 290h-346v-2c0 -132 67 -224 170 -224c69 0 106 16 150 45l18 -20c-30 -33 -61 -63 -100 -82l1 -1c-64 -29 -85 -52 -85 -106c0 -44 25 -64 61 -64c28 0 62 7 99 34l11 -15c-42 -44 -85 -74 -134 -74c-65 0 -127 35 -127 106c0 45 20 73 58 98c-56 4 -108 26 -147 65
c-47 47 -72 119 -72 208c0 172 94 280 245 280c118 0 199 -88 199 -215c0 -17 0 -26 -1 -33zM283 490c-70 0 -120 -54 -133 -152h251c-3 90 -47 152 -118 152z" />
    <glyph glyph-name="f" unicode="f" horiz-adv-x="378" 
d="M46 0v31l36 5c31 4 40 17 40 53v392h-86v31l85 14v45c0 120 69 190 186 190c33 0 68 -5 104 -14l5 -115l-31 -6c-24 70 -49 90 -93 90c-48 0 -75 -37 -75 -116v-74h135v-45h-135v-392c0 -36 11 -50 41 -53l49 -5v-31h-261z" />
    <glyph glyph-name="g" unicode="g" horiz-adv-x="538" 
d="M380 75c96 -7 148 -50 148 -122c0 -120 -120 -214 -270 -214c-139 0 -223 51 -223 136c0 52 37 102 106 142l1 3c-40 14 -62 41 -62 77c0 37 31 76 92 116v3c-72 24 -118 79 -118 149c0 100 92 173 218 173c29 0 53 -3 76 -10h170v-69l-123 28v-6c52 -33 74 -67 74 -111
c0 -100 -85 -167 -211 -167c-16 0 -31 1 -46 4c-36 -31 -47 -48 -47 -68c0 -32 27 -50 81 -54zM262 494c-66 0 -110 -44 -110 -109c0 -88 40 -137 113 -137c65 0 105 42 105 112c0 82 -42 134 -108 134zM266 -214c101 0 180 56 180 129c0 49 -30 77 -85 81l-156 12
c-5 0 -10 1 -14 1c-46 -24 -71 -65 -71 -115c0 -68 56 -108 146 -108z" />
    <glyph glyph-name="gbreve" unicode="&#x11f;" horiz-adv-x="538" 
d="M276 615c-80 0 -131 48 -145 146l24 6c16 -61 56 -78 121 -78s105 17 121 78l24 -6c-14 -98 -65 -146 -145 -146zM380 75c96 -7 148 -50 148 -122c0 -120 -120 -214 -270 -214c-139 0 -223 51 -223 136c0 52 37 102 106 142l1 3c-40 14 -62 41 -62 77c0 37 31 76 92 116
v3c-72 24 -118 79 -118 149c0 100 92 173 218 173c29 0 53 -3 76 -10h170v-69l-123 28v-6c52 -33 74 -67 74 -111c0 -100 -85 -167 -211 -167c-16 0 -31 1 -46 4c-36 -31 -47 -48 -47 -68c0 -32 27 -50 81 -54zM262 494c-66 0 -110 -44 -110 -109c0 -88 40 -137 113 -137
c65 0 105 42 105 112c0 82 -42 134 -108 134zM266 -214c101 0 180 56 180 129c0 49 -30 77 -85 81l-156 12c-5 0 -10 1 -14 1c-46 -24 -71 -65 -71 -115c0 -68 56 -108 146 -108z" />
    <glyph glyph-name="gcircumflex" unicode="&#x11d;" horiz-adv-x="538" 
d="M276 690l-124 -95l-18 15l137 182h12l136 -182l-17 -15zM380 75c96 -7 148 -50 148 -122c0 -120 -120 -214 -270 -214c-139 0 -223 51 -223 136c0 52 37 102 106 142l1 3c-40 14 -62 41 -62 77c0 37 31 76 92 116v3c-72 24 -118 79 -118 149c0 100 92 173 218 173
c29 0 53 -3 76 -10h170v-69l-123 28v-6c52 -33 74 -67 74 -111c0 -100 -85 -167 -211 -167c-16 0 -31 1 -46 4c-36 -31 -47 -48 -47 -68c0 -32 27 -50 81 -54zM262 494c-66 0 -110 -44 -110 -109c0 -88 40 -137 113 -137c65 0 105 42 105 112c0 82 -42 134 -108 134z
M266 -214c101 0 180 56 180 129c0 49 -30 77 -85 81l-156 12c-5 0 -10 1 -14 1c-46 -24 -71 -65 -71 -115c0 -68 56 -108 146 -108z" />
    <glyph glyph-name="gcommaaccent" unicode="&#x123;" horiz-adv-x="538" 
d="M276 602c-47 0 -84 34 -84 94c0 78 51 122 156 147l10 -36c-68 -21 -82 -42 -82 -74c0 -35 18 -58 81 -61c0 -43 -33 -70 -81 -70zM380 75c96 -7 148 -50 148 -122c0 -120 -120 -214 -270 -214c-139 0 -223 51 -223 136c0 52 37 102 106 142l1 3c-40 14 -62 41 -62 77
c0 37 31 76 92 116v3c-72 24 -118 79 -118 149c0 100 92 173 218 173c29 0 53 -3 76 -10h170v-69l-123 28v-6c52 -33 74 -67 74 -111c0 -100 -85 -167 -211 -167c-16 0 -31 1 -46 4c-36 -31 -47 -48 -47 -68c0 -32 27 -50 81 -54zM262 494c-66 0 -110 -44 -110 -109
c0 -88 40 -137 113 -137c65 0 105 42 105 112c0 82 -42 134 -108 134zM266 -214c101 0 180 56 180 129c0 49 -30 77 -85 81l-156 12c-5 0 -10 1 -14 1c-46 -24 -71 -65 -71 -115c0 -68 56 -108 146 -108z" />
    <glyph glyph-name="gdotaccent" unicode="&#x121;" horiz-adv-x="538" 
d="M277 642c-39 0 -71 31 -71 69s32 68 71 68c37 0 69 -30 69 -68s-32 -69 -69 -69zM380 75c96 -7 148 -50 148 -122c0 -120 -120 -214 -270 -214c-139 0 -223 51 -223 136c0 52 37 102 106 142l1 3c-40 14 -62 41 -62 77c0 37 31 76 92 116v3c-72 24 -118 79 -118 149
c0 100 92 173 218 173c29 0 53 -3 76 -10h170v-69l-123 28v-6c52 -33 74 -67 74 -111c0 -100 -85 -167 -211 -167c-16 0 -31 1 -46 4c-36 -31 -47 -48 -47 -68c0 -32 27 -50 81 -54zM262 494c-66 0 -110 -44 -110 -109c0 -88 40 -137 113 -137c65 0 105 42 105 112
c0 82 -42 134 -108 134zM266 -214c101 0 180 56 180 129c0 49 -30 77 -85 81l-156 12c-5 0 -10 1 -14 1c-46 -24 -71 -65 -71 -115c0 -68 56 -108 146 -108z" />
    <glyph glyph-name="h" unicode="h" horiz-adv-x="638" 
d="M580 36l36 -5v-31h-250v31l36 5c31 4 41 16 41 53v285c0 62 -37 95 -106 95c-41 0 -79 -15 -134 -52v-328c0 -35 10 -49 41 -53l36 -5v-31h-248v31l36 5c31 4 40 17 40 53v576c0 14 -5 21 -15 24l-61 17v26l159 36l12 -6v-309h10c69 60 122 85 180 85
c92 0 145 -54 145 -148v-301c0 -35 11 -49 42 -53z" />
    <glyph glyph-name="hbar" unicode="&#x127;" horiz-adv-x="641" 
d="M583 36l36 -5v-31h-248v31l36 5c31 4 40 17 40 53v230c0 62 -37 95 -106 95c-40 0 -79 -15 -135 -51v-274c0 -34 9 -49 41 -53l36 -5v-31h-248v31l36 5c31 4 40 17 40 53v471h-79v44h79v61c0 14 -5 21 -15 24l-61 17v26l159 36l12 -6v-158h186v-44h-186v-161h10
c70 60 124 85 181 85c92 0 145 -55 145 -148v-247c0 -35 10 -49 41 -53z" />
    <glyph glyph-name="hcircumflex" unicode="&#x125;" horiz-adv-x="638" 
d="M266 786l-130 62l-132 -62l-13 22l133 114h22l133 -114zM580 36l36 -5v-31h-250v31l36 5c31 4 41 16 41 53v285c0 62 -37 95 -106 95c-41 0 -79 -15 -134 -52v-328c0 -35 10 -49 41 -53l36 -5v-31h-248v31l36 5c31 4 40 17 40 53v576c0 14 -5 21 -15 24l-61 17v26l159 36
l12 -6v-309h10c69 60 122 85 180 85c92 0 145 -54 145 -148v-301c0 -35 11 -49 42 -53z" />
    <glyph glyph-name="i" unicode="i" horiz-adv-x="317" 
d="M157 642c-39 0 -71 31 -71 69s32 68 71 68c37 0 69 -30 69 -68s-32 -69 -69 -69zM38 0v31l36 5c31 4 40 16 40 53v351c0 14 -4 21 -15 24l-61 18v26l159 36l12 -7v-448c0 -35 11 -49 42 -53l36 -5v-31h-249z" />
    <glyph glyph-name="dotlessi" unicode="&#x131;" horiz-adv-x="317" 
d="M38 0v31l36 5c31 4 40 16 40 53v351c0 14 -4 21 -15 24l-61 18v26l159 36l12 -7v-448c0 -35 11 -49 42 -53l36 -5v-31h-249z" />
    <glyph glyph-name="iacute" unicode="&#xed;" horiz-adv-x="317" 
d="M111 608l-15 15l122 159c19 24 51 26 69 4c17 -20 15 -51 -10 -68zM38 0v31l36 5c31 4 40 16 40 53v351c0 14 -4 21 -15 24l-61 18v26l159 36l12 -7v-448c0 -35 11 -49 42 -53l36 -5v-31h-249z" />
    <glyph glyph-name="ibreve" unicode="&#x12d;" horiz-adv-x="317" 
d="M156 615c80 0 131 48 145 146l-24 6c-16 -61 -56 -78 -121 -78s-105 17 -121 78l-24 -6c14 -98 65 -146 145 -146zM38 0v31l36 5c31 4 40 16 40 53v351c0 14 -4 21 -15 24l-61 18v26l159 36l12 -7v-448c0 -35 11 -49 42 -53l36 -5v-31h-249z" />
    <glyph glyph-name="icircumflex" unicode="&#xee;" horiz-adv-x="317" 
d="M282 595l-126 95l-124 -95l-18 15l137 182h12l136 -182zM209 89c0 -35 11 -49 42 -53l36 -5v-31h-249v31l36 5c31 4 40 16 40 53v351c0 14 -4 21 -15 24l-61 18v26l159 36l12 -7v-448z" />
    <glyph glyph-name="idieresis" unicode="&#xef;" horiz-adv-x="317" 
d="M64 649c-31 0 -56 26 -56 57s25 58 56 58c32 0 58 -27 58 -58s-26 -57 -58 -57zM249 650c-34 0 -59 26 -59 56c0 31 25 57 59 57c29 0 55 -26 55 -57c0 -30 -26 -56 -55 -56zM38 0v31l36 5c31 4 40 16 40 53v351c0 14 -4 21 -15 24l-61 18v26l159 36l12 -7v-448
c0 -35 11 -49 42 -53l36 -5v-31h-249z" />
    <glyph glyph-name="i.loclTRK" horiz-adv-x="317" 
d="M157 642c-39 0 -71 31 -71 69s32 68 71 68c37 0 69 -30 69 -68s-32 -69 -69 -69zM38 0v31l36 5c31 4 40 16 40 53v351c0 14 -4 21 -15 24l-61 18v26l159 36l12 -7v-448c0 -35 11 -49 42 -53l36 -5v-31h-249z" />
    <glyph glyph-name="igrave" unicode="&#xec;" horiz-adv-x="317" 
d="M214 608l-166 110c-25 17 -27 48 -10 68c18 22 50 20 69 -4l122 -159zM38 0v31l36 5c31 4 40 16 40 53v351c0 14 -4 21 -15 24l-61 18v26l159 36l12 -7v-448c0 -35 11 -49 42 -53l36 -5v-31h-249z" />
    <glyph glyph-name="imacron" unicode="&#x12b;" horiz-adv-x="317" 
d="M-19 731h350v-54h-350v54zM38 0v31l36 5c31 4 40 16 40 53v351c0 14 -4 21 -15 24l-61 18v26l159 36l12 -7v-448c0 -35 11 -49 42 -53l36 -5v-31h-249z" />
    <glyph glyph-name="iogonek" unicode="&#x12f;" horiz-adv-x="317" 
d="M157 642c-39 0 -71 31 -71 69s32 68 71 68c37 0 69 -30 69 -68s-32 -69 -69 -69zM279 -130l11 -15c-42 -44 -85 -74 -134 -74c-65 0 -127 35 -127 106c0 54 30 85 85 113h-76v31l36 5c31 4 40 16 40 53v351c0 14 -4 21 -15 24l-61 18v26l159 36l12 -7v-448
c0 -35 11 -49 42 -53l36 -5v-31h-96c-54 -26 -72 -50 -72 -100c0 -44 25 -64 61 -64c28 0 62 7 99 34z" />
    <glyph glyph-name="j" unicode="j" horiz-adv-x="284" 
d="M142 642c-39 0 -71 31 -71 69s32 68 71 68c37 0 69 -30 69 -68s-32 -69 -69 -69zM4 -259l-24 30c91 54 121 112 121 233v436c0 14 -4 21 -15 24l-61 18v26l159 36l12 -7v-497c0 -142 -43 -210 -192 -299z" />
    <glyph glyph-name="uni0237" unicode="&#x237;" horiz-adv-x="284" 
d="M4 -259l-24 30c91 54 121 112 121 233v436c0 14 -4 21 -15 24l-61 18v26l159 36l12 -7v-497c0 -142 -43 -210 -192 -299z" />
    <glyph glyph-name="jcircumflex" unicode="&#x135;" horiz-adv-x="284" 
d="M148 792l136 -182l-17 -15l-126 95l-124 -95l-18 15l137 182h12zM25 508l159 36l12 -7v-497c0 -142 -43 -210 -192 -299l-24 30c91 54 121 112 121 233v436c0 14 -4 21 -15 24l-61 18v26z" />
    <glyph glyph-name="k" unicode="k" horiz-adv-x="569" 
d="M203 89c0 -35 10 -49 41 -53l36 -5v-31h-248v31l36 5c31 4 40 17 40 53v576c0 14 -5 21 -15 24l-61 17v26l159 36l12 -6v-673zM509 65c16 -19 33 -30 52 -34v-31h-73c-35 0 -52 7 -69 28l-208 254v6l168 168c14 14 8 29 -12 33l-35 7v30h204v-30l-35 -9
c-17 -4 -35 -15 -51 -30l-142 -139v-11z" />
    <glyph glyph-name="kcommaaccent" unicode="&#x137;" horiz-adv-x="569" 
d="M280 31v-31h-248v31l36 5c31 4 40 17 40 53v576c0 14 -5 21 -15 24l-61 17v26l159 36l12 -6v-673c0 -35 10 -49 41 -53zM509 65c16 -19 33 -30 52 -34v-31h-73c-35 0 -52 7 -69 28l-208 254v6l168 168c14 14 8 29 -12 33l-35 7v30h204v-30l-35 -9c-17 -4 -35 -15 -51 -30
l-142 -139v-11zM313 -53c47 0 84 -34 84 -94c0 -78 -51 -122 -156 -147l-10 36c68 21 82 42 82 74c0 35 -18 58 -81 61c0 43 33 70 81 70z" />
    <glyph glyph-name="kgreenlandic" unicode="&#x138;" horiz-adv-x="575" 
d="M209 89c0 -37 12 -46 42 -53l36 -5v-31h-249v31l36 5c31 4 40 16 40 53v351c0 12 -3 21 -15 24l-61 18v26l159 36l12 -7v-448zM515 65c15 -18 32 -30 52 -34v-31h-78c-36 0 -52 7 -69 28l-203 254v6l165 168c13 14 8 29 -12 33l-35 7v30h207v-30l-35 -9
c-16 -4 -35 -13 -51 -30l-142 -143v-5z" />
    <glyph glyph-name="l" unicode="l" horiz-adv-x="310" 
d="M32 0v31l36 5c31 4 40 17 40 53v576c0 14 -5 21 -15 24l-61 17v26l159 36l12 -6v-673c0 -35 10 -49 41 -53l36 -5v-31h-248z" />
    <glyph glyph-name="lacute" unicode="&#x13a;" horiz-adv-x="310" 
d="M60 781l-12 19l150 136c23 21 56 17 69 -5c14 -23 6 -54 -20 -66zM32 0v31l36 5c31 4 40 17 40 53v576c0 14 -5 21 -15 24l-61 17v26l159 36l12 -6v-673c0 -35 10 -49 41 -53l36 -5v-31h-248z" />
    <glyph glyph-name="lcaron" unicode="&#x13e;" horiz-adv-x="421" 
d="M311 545l-21 5l26 199c5 30 31 48 58 38c25 -9 38 -37 25 -64zM32 0v31l36 5c31 4 40 17 40 53v576c0 14 -5 21 -15 24l-61 17v26l159 36l12 -6v-673c0 -35 10 -49 41 -53l36 -5v-31h-248z" />
    <glyph glyph-name="lcommaaccent" unicode="&#x13c;" horiz-adv-x="310" 
d="M32 0v31l36 5c31 4 40 17 40 53v576c0 14 -5 21 -15 24l-61 17v26l159 36l12 -6v-673c0 -35 10 -49 41 -53l36 -5v-31h-248zM86 -294l-10 36c68 21 82 42 82 74c0 35 -18 58 -81 61c0 43 33 70 81 70c47 0 84 -34 84 -94c0 -78 -51 -122 -156 -147z" />
    <glyph glyph-name="lslash" unicode="&#x142;" horiz-adv-x="338" 
d="M213 89c0 -35 10 -49 41 -53l36 -5v-31h-248v31l36 5c31 4 40 17 40 53v248l-78 -36l-18 38l96 45v281c0 14 -5 21 -15 24l-61 17v26l159 36l12 -6v-343l85 39l18 -36l-103 -49v-284z" />
    <glyph glyph-name="m" unicode="m" horiz-adv-x="937" 
d="M879 36l36 -5v-31h-249v31l36 5c31 4 40 17 40 53v285c0 63 -33 95 -96 95c-37 0 -74 -16 -124 -53c1 -8 1 -17 1 -26v-301c0 -35 11 -49 42 -53l36 -5v-31h-249v31l36 5c31 4 40 16 40 53v285c0 63 -33 95 -96 95c-37 0 -73 -16 -123 -52v-328c0 -35 11 -49 42 -53
l36 -5v-31h-249v31l36 5c31 4 40 16 40 53v351c0 14 -4 21 -15 24l-61 18v26l159 36l12 -7v-84h10c64 60 114 85 169 85c64 0 108 -30 126 -85h19c64 60 114 85 169 85c85 0 135 -54 135 -148v-301c0 -35 11 -49 42 -53z" />
    <glyph glyph-name="n" unicode="n" horiz-adv-x="644" 
d="M586 36l36 -5v-31h-248v31l36 5c31 4 40 17 40 53v285c0 62 -37 95 -106 95c-40 0 -80 -16 -135 -52v-328c0 -35 11 -49 42 -53l36 -5v-31h-249v31l36 5c31 4 40 16 40 53v351c0 14 -4 21 -15 24l-61 18v26l159 36l12 -7v-84h10c68 60 122 85 181 85
c92 0 145 -54 145 -148v-301c0 -35 10 -49 41 -53z" />
    <glyph glyph-name="nacute" unicode="&#x144;" horiz-adv-x="644" 
d="M444 718l-166 -110l-15 15l122 159c19 24 51 26 69 4c17 -20 15 -51 -10 -68zM586 36l36 -5v-31h-248v31l36 5c31 4 40 17 40 53v285c0 62 -37 95 -106 95c-40 0 -80 -16 -135 -52v-328c0 -35 11 -49 42 -53l36 -5v-31h-249v31l36 5c31 4 40 16 40 53v351
c0 14 -4 21 -15 24l-61 18v26l159 36l12 -7v-84h10c68 60 122 85 181 85c92 0 145 -54 145 -148v-301c0 -35 10 -49 41 -53z" />
    <glyph glyph-name="ncaron" unicode="&#x148;" horiz-adv-x="644" 
d="M330 619h-12l-130 173l17 14l118 -91l120 91l16 -14zM586 36l36 -5v-31h-248v31l36 5c31 4 40 17 40 53v285c0 62 -37 95 -106 95c-40 0 -80 -16 -135 -52v-328c0 -35 11 -49 42 -53l36 -5v-31h-249v31l36 5c31 4 40 16 40 53v351c0 14 -4 21 -15 24l-61 18v26l159 36
l12 -7v-84h10c68 60 122 85 181 85c92 0 145 -54 145 -148v-301c0 -35 10 -49 41 -53z" />
    <glyph glyph-name="ncommaaccent" unicode="&#x146;" horiz-adv-x="644" 
d="M586 36l36 -5v-31h-248v31l36 5c31 4 40 17 40 53v285c0 62 -37 95 -106 95c-40 0 -80 -16 -135 -52v-328c0 -35 11 -49 42 -53l36 -5v-31h-249v31l36 5c31 4 40 16 40 53v351c0 14 -4 21 -15 24l-61 18v26l159 36l12 -7v-84h10c68 60 122 85 181 85
c92 0 145 -54 145 -148v-301c0 -35 10 -49 41 -53zM324 -56c47 0 84 -34 84 -94c0 -78 -51 -122 -156 -147l-10 36c68 21 82 42 82 74c0 35 -18 58 -81 61c0 43 33 70 81 70z" />
    <glyph glyph-name="eng" unicode="&#x14b;" horiz-adv-x="638" 
d="M400 538c92 0 145 -54 145 -148v-352c0 -143 -43 -210 -191 -299l-24 30c91 54 120 111 120 233v372c0 62 -37 95 -106 95c-40 0 -80 -16 -135 -52v-328c0 -35 11 -49 42 -53l36 -5v-31h-249v31l36 5c31 4 40 16 40 53v351c0 14 -4 21 -15 24l-61 18v26l159 36l12 -7v-84
h10c68 60 122 85 181 85z" />
    <glyph glyph-name="uni0272" unicode="&#x272;" horiz-adv-x="631" 
d="M573 36l36 -5v-31h-250v31l36 5c31 4 41 16 41 53v285c0 62 -37 95 -106 95c-40 0 -81 -15 -135 -51v-380c0 -143 -43 -210 -191 -299l-24 30c91 54 120 111 120 233v438c0 14 -4 21 -15 24l-61 18v26l159 36l12 -7v-84h9c70 60 123 85 181 85c92 0 146 -54 146 -148
v-301c0 -35 11 -49 42 -53z" />
    <glyph glyph-name="ntilde" unicode="&#xf1;" horiz-adv-x="644" 
d="M238 680c-28 0 -46 -19 -62 -53l-23 8c12 43 42 116 94 116c28 0 60 -16 92 -31c30 -14 61 -27 87 -27c27 0 43 20 61 54l23 -10c-13 -43 -43 -115 -94 -115c-26 0 -56 14 -86 28c-32 15 -64 30 -92 30zM586 36l36 -5v-31h-248v31l36 5c31 4 40 17 40 53v285
c0 62 -37 95 -106 95c-40 0 -80 -16 -135 -52v-328c0 -35 11 -49 42 -53l36 -5v-31h-249v31l36 5c31 4 40 16 40 53v351c0 14 -4 21 -15 24l-61 18v26l159 36l12 -7v-84h10c68 60 122 85 181 85c92 0 145 -54 145 -148v-301c0 -35 10 -49 41 -53z" />
    <glyph glyph-name="o" unicode="o" horiz-adv-x="595" 
d="M292 -16c-68 0 -128 23 -170 65c-47 46 -72 117 -72 206c0 172 99 283 253 283c67 0 127 -23 170 -65c47 -46 72 -118 72 -206c0 -171 -100 -283 -253 -283zM303 34c90 0 134 71 134 216c0 155 -50 238 -145 238c-92 0 -134 -69 -134 -218c0 -154 50 -236 145 -236z" />
    <glyph glyph-name="oacute" unicode="&#xf3;" horiz-adv-x="595" 
d="M249 608l-15 15l122 159c19 24 51 26 69 4c17 -20 15 -51 -10 -68zM292 -16c-68 0 -128 23 -170 65c-47 46 -72 117 -72 206c0 172 99 283 253 283c67 0 127 -23 170 -65c47 -46 72 -118 72 -206c0 -171 -100 -283 -253 -283zM303 34c90 0 134 71 134 216
c0 155 -50 238 -145 238c-92 0 -134 -69 -134 -218c0 -154 50 -236 145 -236z" />
    <glyph glyph-name="ocircumflex" unicode="&#xf4;" horiz-adv-x="595" 
d="M294 690l-124 -95l-18 15l137 182h12l136 -182l-17 -15zM473 473c47 -46 72 -118 72 -206c0 -171 -100 -283 -253 -283c-68 0 -128 23 -170 65c-47 46 -72 117 -72 206c0 172 99 283 253 283c67 0 127 -23 170 -65zM303 34c90 0 134 71 134 216c0 155 -50 238 -145 238
c-92 0 -134 -69 -134 -218c0 -154 50 -236 145 -236z" />
    <glyph glyph-name="odieresis" unicode="&#xf6;" horiz-adv-x="595" 
d="M202 649c-31 0 -56 26 -56 57s25 58 56 58c32 0 58 -27 58 -58s-26 -57 -58 -57zM387 650c-34 0 -59 26 -59 56c0 31 25 57 59 57c29 0 55 -26 55 -57c0 -30 -26 -56 -55 -56zM292 -16c-68 0 -128 23 -170 65c-47 46 -72 117 -72 206c0 172 99 283 253 283
c67 0 127 -23 170 -65c47 -46 72 -118 72 -206c0 -171 -100 -283 -253 -283zM303 34c90 0 134 71 134 216c0 155 -50 238 -145 238c-92 0 -134 -69 -134 -218c0 -154 50 -236 145 -236z" />
    <glyph glyph-name="uni1ECD" unicode="&#x1ecd;" horiz-adv-x="595" 
d="M292 -16c-68 0 -128 23 -170 65c-47 46 -72 117 -72 206c0 172 99 283 253 283c67 0 127 -23 170 -65c47 -46 72 -118 72 -206c0 -171 -100 -283 -253 -283zM303 34c90 0 134 71 134 216c0 155 -50 238 -145 238c-92 0 -134 -69 -134 -218c0 -154 50 -236 145 -236z
M297 -207c-37 0 -67 29 -67 65c0 37 30 65 67 65c35 0 65 -28 65 -65c0 -36 -30 -65 -65 -65z" />
    <glyph glyph-name="ograve" unicode="&#xf2;" horiz-adv-x="595" 
d="M352 608l-166 110c-25 17 -27 48 -10 68c18 22 50 20 69 -4l122 -159zM292 -16c-68 0 -128 23 -170 65c-47 46 -72 117 -72 206c0 172 99 283 253 283c67 0 127 -23 170 -65c47 -46 72 -118 72 -206c0 -171 -100 -283 -253 -283zM303 34c90 0 134 71 134 216
c0 155 -50 238 -145 238c-92 0 -134 -69 -134 -218c0 -154 50 -236 145 -236z" />
    <glyph glyph-name="ohungarumlaut" unicode="&#x151;" horiz-adv-x="595" 
d="M170 605l-14 14l116 151c18 23 48 25 65 4c17 -19 15 -49 -9 -65zM342 605l-14 14l116 151c18 23 48 25 65 4c17 -19 15 -49 -9 -65zM292 -16c-68 0 -128 23 -170 65c-47 46 -72 117 -72 206c0 172 99 283 253 283c67 0 127 -23 170 -65c47 -46 72 -118 72 -206
c0 -171 -100 -283 -253 -283zM303 34c90 0 134 71 134 216c0 155 -50 238 -145 238c-92 0 -134 -69 -134 -218c0 -154 50 -236 145 -236z" />
    <glyph glyph-name="omacron" unicode="&#x14d;" horiz-adv-x="595" 
d="M119 731h350v-54h-350v54zM292 -16c-68 0 -128 23 -170 65c-47 46 -72 117 -72 206c0 172 99 283 253 283c67 0 127 -23 170 -65c47 -46 72 -118 72 -206c0 -171 -100 -283 -253 -283zM303 34c90 0 134 71 134 216c0 155 -50 238 -145 238c-92 0 -134 -69 -134 -218
c0 -154 50 -236 145 -236z" />
    <glyph glyph-name="uni01EB" unicode="&#x1eb;" horiz-adv-x="595" 
d="M545 267c0 -140 -67 -241 -176 -273l8 -10c-64 -29 -85 -52 -85 -106c0 -44 25 -64 61 -64c28 0 62 7 99 34l11 -15c-42 -44 -85 -74 -134 -74c-65 0 -127 35 -127 106c0 58 34 89 98 119h-8c-68 0 -128 23 -170 65c-47 46 -72 117 -72 206c0 172 99 283 253 283
c67 0 127 -23 170 -65c47 -46 72 -118 72 -206zM303 34c90 0 134 71 134 216c0 155 -50 238 -145 238c-92 0 -134 -69 -134 -218c0 -154 50 -236 145 -236z" />
    <glyph glyph-name="oslash" unicode="&#xf8;" horiz-adv-x="595" 
d="M473 473c47 -46 72 -118 72 -206c0 -171 -100 -283 -253 -283c-34 0 -65 6 -94 16l-36 -85l-41 17l37 88c-13 8 -25 18 -36 29c-47 46 -72 117 -72 206c0 172 99 283 253 283c25 0 49 -3 72 -9l32 75l40 -18l-31 -73c21 -10 40 -24 57 -40zM292 488
c-92 0 -134 -69 -134 -218c0 -74 12 -131 34 -171l160 375c-18 9 -38 14 -60 14zM303 34c90 0 134 71 134 216c0 90 -17 156 -50 195l-163 -384c21 -18 48 -27 79 -27z" />
    <glyph glyph-name="oslashacute" unicode="&#x1ff;" horiz-adv-x="595" 
d="M410 718l-166 -110l-15 15l122 159c19 24 51 26 69 4c17 -20 15 -51 -10 -68zM473 473c47 -46 72 -118 72 -206c0 -171 -100 -283 -253 -283c-34 0 -65 6 -94 16l-36 -85l-41 17l37 88c-13 8 -25 18 -36 29c-47 46 -72 117 -72 206c0 172 99 283 253 283
c25 0 49 -3 72 -9l32 75l40 -18l-31 -73c21 -10 40 -24 57 -40zM292 488c-92 0 -134 -69 -134 -218c0 -74 12 -131 34 -171l160 375c-18 9 -38 14 -60 14zM303 34c90 0 134 71 134 216c0 90 -17 156 -50 195l-163 -384c21 -18 48 -27 79 -27z" />
    <glyph glyph-name="otilde" unicode="&#xf5;" horiz-adv-x="595" 
d="M387 622c-26 0 -56 14 -86 28c-32 15 -64 30 -92 30s-46 -19 -62 -53l-23 8c12 43 42 116 94 116c28 0 60 -16 92 -31c30 -14 61 -27 87 -27c27 0 43 20 61 54l23 -10c-13 -43 -43 -115 -94 -115zM292 -16c-68 0 -128 23 -170 65c-47 46 -72 117 -72 206
c0 172 99 283 253 283c67 0 127 -23 170 -65c47 -46 72 -118 72 -206c0 -171 -100 -283 -253 -283zM303 34c90 0 134 71 134 216c0 155 -50 238 -145 238c-92 0 -134 -69 -134 -218c0 -154 50 -236 145 -236z" />
    <glyph glyph-name="oe" unicode="&#x153;" horiz-adv-x="926" 
d="M876 290h-339v-2c0 -132 66 -224 167 -224c67 0 104 16 146 46l18 -21c-49 -56 -105 -105 -192 -105c-62 0 -120 23 -163 66c-11 12 -22 25 -30 40c-42 -67 -112 -106 -199 -106c-68 0 -126 23 -165 65c-45 49 -69 120 -69 206c0 171 97 283 245 283
c65 0 124 -23 164 -65c10 -11 20 -24 28 -37c41 65 108 102 195 102c116 0 195 -88 195 -215c0 -17 0 -26 -1 -33zM670 490c-68 0 -118 -54 -130 -152h246c-3 90 -46 152 -116 152zM303 35c92 0 134 69 134 218c0 154 -50 236 -145 236c-92 0 -134 -69 -134 -218
c0 -154 50 -236 145 -236z" />
    <glyph glyph-name="p" unicode="p" horiz-adv-x="632" 
d="M516 477c43 -44 66 -112 66 -195c0 -173 -119 -298 -284 -298c-32 0 -64 5 -95 14v-159c0 -36 11 -50 41 -53l47 -5v-31h-259v31l36 5c31 4 40 17 40 53v601c0 14 -4 21 -15 24l-61 18v26l159 36l12 -7v-77h8c32 46 94 78 155 78c60 0 111 -21 150 -61zM324 33
c98 0 162 82 162 208c0 141 -60 223 -164 223c-46 0 -88 -14 -119 -39v-346c29 -29 74 -46 121 -46z" />
    <glyph glyph-name="thorn" unicode="&#xfe;" horiz-adv-x="632" 
d="M516 477c43 -44 66 -112 66 -195c0 -173 -119 -298 -284 -298c-32 0 -64 5 -95 14v-159c0 -36 11 -50 41 -53l47 -5v-31h-259v31l36 5c31 4 40 17 40 53v826c0 14 -5 21 -15 24l-61 17v26l159 36l12 -6v-302h8c31 45 93 78 149 78c62 0 118 -22 156 -61zM324 27
c100 0 162 82 162 214c0 141 -60 223 -164 223c-46 0 -88 -14 -119 -39v-346c31 -32 76 -52 121 -52z" />
    <glyph glyph-name="q" unicode="q" horiz-adv-x="633" 
d="M564 -214l36 -5v-31h-259v31l47 5c30 3 41 17 41 53v223h-9c-30 -45 -92 -78 -148 -78c-61 0 -117 22 -156 61c-44 44 -66 109 -66 195c0 173 119 298 284 298c54 0 104 -14 190 -52v-647c0 -36 9 -49 40 -53zM310 58c46 0 88 14 119 39v341c-36 34 -76 51 -121 51
c-99 0 -162 -81 -162 -208c0 -142 60 -223 164 -223z" />
    <glyph glyph-name="r" unicode="r" horiz-adv-x="424" 
d="M364 538c36 0 53 -14 53 -43c0 -20 -3 -35 -18 -94l-27 -3c-9 31 -30 48 -62 48c-31 0 -66 -13 -101 -36v-321c0 -36 11 -50 42 -53l47 -5v-31h-260v31l36 5c31 4 40 16 40 53v351c0 14 -4 21 -15 24l-61 18v26l159 36l12 -7v-93h10c80 72 113 94 145 94z" />
    <glyph glyph-name="racute" unicode="&#x155;" horiz-adv-x="424" 
d="M350 718l-166 -110l-15 15l122 159c19 24 51 26 69 4c17 -20 15 -51 -10 -68zM364 538c36 0 53 -14 53 -43c0 -20 -3 -35 -18 -94l-27 -3c-9 31 -30 48 -62 48c-31 0 -66 -13 -101 -36v-321c0 -36 11 -50 42 -53l47 -5v-31h-260v31l36 5c31 4 40 16 40 53v351
c0 14 -4 21 -15 24l-61 18v26l159 36l12 -7v-93h10c80 72 113 94 145 94z" />
    <glyph glyph-name="rcaron" unicode="&#x159;" horiz-adv-x="424" 
d="M236 619h-12l-130 173l17 14l118 -91l120 91l16 -14zM364 538c36 0 53 -14 53 -43c0 -20 -3 -35 -18 -94l-27 -3c-9 31 -30 48 -62 48c-31 0 -66 -13 -101 -36v-321c0 -36 11 -50 42 -53l47 -5v-31h-260v31l36 5c31 4 40 16 40 53v351c0 14 -4 21 -15 24l-61 18v26
l159 36l12 -7v-93h10c80 72 113 94 145 94z" />
    <glyph glyph-name="rcommaaccent" unicode="&#x157;" horiz-adv-x="424" 
d="M364 538c36 0 53 -14 53 -43c0 -20 -3 -35 -18 -94l-27 -3c-9 31 -30 48 -62 48c-31 0 -66 -13 -101 -36v-321c0 -36 11 -50 42 -53l47 -5v-31h-260v31l36 5c31 4 40 16 40 53v351c0 14 -4 21 -15 24l-61 18v26l159 36l12 -7v-93h10c80 72 113 94 145 94zM170 -56
c47 0 84 -34 84 -94c0 -78 -51 -122 -156 -147l-10 36c68 21 82 42 82 74c0 35 -18 58 -81 61c0 43 33 70 81 70z" />
    <glyph glyph-name="s" unicode="s" horiz-adv-x="457" 
d="M209 -16c-50 0 -104 14 -152 39l-7 143l32 4c53 -110 80 -138 143 -138c66 0 103 40 103 87c0 35 -21 62 -75 88l-76 37c-87 42 -118 76 -118 139c0 94 82 155 194 155c49 0 100 -11 137 -31l6 -119l-30 -5c-28 71 -75 107 -128 107c-57 0 -92 -33 -92 -81
c0 -36 20 -55 82 -83l75 -34c80 -36 110 -72 110 -145c0 -101 -78 -163 -204 -163z" />
    <glyph glyph-name="sacute" unicode="&#x15b;" horiz-adv-x="457" 
d="M189 608l-15 15l122 159c19 24 51 26 69 4c17 -20 15 -51 -10 -68zM209 -16c-50 0 -104 14 -152 39l-7 143l32 4c53 -110 80 -138 143 -138c66 0 103 40 103 87c0 35 -21 62 -75 88l-76 37c-87 42 -118 76 -118 139c0 94 82 155 194 155c49 0 100 -11 137 -31l6 -119
l-30 -5c-28 71 -75 107 -128 107c-57 0 -92 -33 -92 -81c0 -36 20 -55 82 -83l75 -34c80 -36 110 -72 110 -145c0 -101 -78 -163 -204 -163z" />
    <glyph glyph-name="scaron" unicode="&#x161;" horiz-adv-x="457" 
d="M241 619h-12l-130 173l17 14l118 -91l120 91l16 -14zM303 292c80 -36 110 -72 110 -145c0 -101 -78 -163 -204 -163c-50 0 -104 14 -152 39l-7 143l32 4c53 -110 80 -138 143 -138c66 0 103 40 103 87c0 35 -21 62 -75 88l-76 37c-87 42 -118 76 -118 139
c0 94 82 155 194 155c49 0 100 -11 137 -31l6 -119l-30 -5c-28 71 -75 107 -128 107c-57 0 -92 -33 -92 -81c0 -36 20 -55 82 -83z" />
    <glyph glyph-name="scedilla" unicode="&#x15f;" horiz-adv-x="457" 
d="M413 147c0 -98 -74 -160 -194 -163l-9 -29c82 -7 119 -42 119 -83c0 -58 -76 -122 -216 -122v24c87 10 119 34 119 64c0 27 -20 48 -86 53l28 95c-39 5 -80 18 -117 37l-7 143l32 4c53 -110 80 -138 143 -138c66 0 103 40 103 87c0 35 -21 62 -75 88l-76 37
c-87 42 -118 76 -118 139c0 94 82 155 194 155c49 0 100 -11 137 -31l6 -119l-30 -5c-28 71 -75 107 -128 107c-57 0 -92 -33 -92 -81c0 -36 20 -55 82 -83l75 -34c80 -36 110 -72 110 -145z" />
    <glyph glyph-name="scircumflex" unicode="&#x15d;" horiz-adv-x="457" 
d="M234 690l-124 -95l-18 15l137 182h12l136 -182l-17 -15zM303 292c80 -36 110 -72 110 -145c0 -101 -78 -163 -204 -163c-50 0 -104 14 -152 39l-7 143l32 4c53 -110 80 -138 143 -138c66 0 103 40 103 87c0 35 -21 62 -75 88l-76 37c-87 42 -118 76 -118 139
c0 94 82 155 194 155c49 0 100 -11 137 -31l6 -119l-30 -5c-28 71 -75 107 -128 107c-57 0 -92 -33 -92 -81c0 -36 20 -55 82 -83z" />
    <glyph glyph-name="scommaaccent" unicode="&#x219;" horiz-adv-x="457" 
d="M209 -16c-50 0 -104 14 -152 39l-7 143l32 4c53 -110 80 -138 143 -138c66 0 103 40 103 87c0 35 -21 62 -75 88l-76 37c-87 42 -118 76 -118 139c0 94 82 155 194 155c49 0 100 -11 137 -31l6 -119l-30 -5c-28 71 -75 107 -128 107c-57 0 -92 -33 -92 -81
c0 -36 20 -55 82 -83l75 -34c80 -36 110 -72 110 -145c0 -101 -78 -163 -204 -163zM148 -297l-10 36c68 21 82 42 82 74c0 35 -18 58 -81 61c0 43 33 70 81 70c47 0 84 -34 84 -94c0 -78 -51 -122 -156 -147z" />
    <glyph glyph-name="germandbls" unicode="&#xdf;" horiz-adv-x="641" 
d="M450 -16c-80 0 -135 49 -170 151l28 13c33 -70 80 -108 138 -108c44 0 78 31 78 71c0 45 -20 70 -97 124c-90 63 -121 98 -121 137c0 32 15 56 58 95c58 52 76 87 76 150c0 60 -35 94 -109 94c-82 0 -114 -38 -114 -116v-595h-171v31l36 5c31 4 40 17 40 53v394h-86v29
l85 14v45c0 125 85 190 231 190c124 0 197 -58 197 -127c0 -49 -29 -109 -106 -164c-48 -34 -61 -49 -61 -65c0 -25 14 -37 107 -104c88 -64 122 -112 122 -173c0 -91 -60 -144 -161 -144z" />
    <glyph glyph-name="t" unicode="t" horiz-adv-x="395" 
d="M221 -16c-74 0 -113 39 -113 115v382h-86v31l62 10c22 4 29 10 44 42l39 86h36v-124h159v-45h-159v-362c0 -50 15 -69 56 -69c38 0 74 19 101 50l21 -15c-32 -60 -96 -101 -160 -101z" />
    <glyph glyph-name="tbar" unicode="&#x167;" horiz-adv-x="410" 
d="M368 100l21 -15c-32 -60 -96 -101 -160 -101c-74 0 -113 39 -113 115v177h-87v43h87v162h-86v31l62 10c22 4 29 10 44 42l39 86h36v-124h159v-45h-159v-162h159v-43h-159v-157c0 -50 15 -69 56 -69c38 0 74 19 101 50z" />
    <glyph glyph-name="tcaron" unicode="&#x165;" horiz-adv-x="405" 
d="M317 600l-21 5l26 199c5 30 31 48 58 38c25 -9 38 -37 25 -64zM221 -16c-74 0 -113 39 -113 115v382h-86v31l62 10c22 4 29 10 44 42l39 86h36v-124h159v-45h-159v-362c0 -50 15 -69 56 -69c38 0 74 19 101 50l21 -15c-32 -60 -96 -101 -160 -101z" />
    <glyph glyph-name="uni0163" unicode="&#x163;" horiz-adv-x="395" 
d="M381 85c-31 -58 -93 -99 -155 -101l-9 -29c82 -7 119 -42 119 -83c0 -58 -76 -122 -216 -122v24c87 10 119 34 119 64c0 27 -20 48 -86 53l29 97c-49 12 -74 50 -74 111v382h-86v31l62 10c22 4 29 10 44 42l39 86h36v-124h159v-45h-159v-362c0 -50 15 -69 56 -69
c38 0 74 19 101 50z" />
    <glyph glyph-name="uni021B" unicode="&#x21b;" horiz-adv-x="395" 
d="M221 -16c-74 0 -113 39 -113 115v382h-86v31l62 10c22 4 29 10 44 42l39 86h36v-124h159v-45h-159v-362c0 -50 15 -69 56 -69c38 0 74 19 101 50l21 -15c-32 -60 -96 -101 -160 -101zM155 -297l-10 36c68 21 82 42 82 74c0 35 -18 58 -81 61c0 43 33 70 81 70
c47 0 84 -34 84 -94c0 -78 -51 -122 -156 -147z" />
    <glyph glyph-name="u" unicode="u" horiz-adv-x="625" 
d="M534 53l61 -17v-25l-149 -33l-15 10v80h-16c-69 -60 -119 -84 -176 -84c-89 0 -141 55 -141 147v309c0 14 -2 20 -15 24l-61 18v26l159 36l12 -7v-390c0 -62 35 -94 103 -94c39 0 79 15 129 48v339c0 14 -4 21 -15 24l-61 18v26l159 36l12 -7v-460c0 -13 5 -21 14 -24z
" />
    <glyph glyph-name="uacute" unicode="&#xfa;" horiz-adv-x="625" 
d="M429 718l-166 -110l-15 15l122 159c19 24 51 26 69 4c17 -20 15 -51 -10 -68zM534 53l61 -17v-25l-149 -33l-15 10v80h-16c-69 -60 -119 -84 -176 -84c-89 0 -141 55 -141 147v309c0 14 -2 20 -15 24l-61 18v26l159 36l12 -7v-390c0 -62 35 -94 103 -94
c39 0 79 15 129 48v339c0 14 -4 21 -15 24l-61 18v26l159 36l12 -7v-460c0 -13 5 -21 14 -24z" />
    <glyph glyph-name="ubreve" unicode="&#x16d;" horiz-adv-x="625" 
d="M308 615c-80 0 -131 48 -145 146l24 6c16 -61 56 -78 121 -78s105 17 121 78l24 -6c-14 -98 -65 -146 -145 -146zM534 53l61 -17v-25l-149 -33l-15 10v80h-16c-69 -60 -119 -84 -176 -84c-89 0 -141 55 -141 147v309c0 14 -2 20 -15 24l-61 18v26l159 36l12 -7v-390
c0 -62 35 -94 103 -94c39 0 79 15 129 48v339c0 14 -4 21 -15 24l-61 18v26l159 36l12 -7v-460c0 -13 5 -21 14 -24z" />
    <glyph glyph-name="ucircumflex" unicode="&#xfb;" horiz-adv-x="625" 
d="M308 690l-124 -95l-18 15l137 182h12l136 -182l-17 -15zM534 53l61 -17v-25l-149 -33l-15 10v80h-16c-69 -60 -119 -84 -176 -84c-89 0 -141 55 -141 147v309c0 14 -2 20 -15 24l-61 18v26l159 36l12 -7v-390c0 -62 35 -94 103 -94c39 0 79 15 129 48v339
c0 14 -4 21 -15 24l-61 18v26l159 36l12 -7v-460c0 -13 5 -21 14 -24z" />
    <glyph glyph-name="udieresis" unicode="&#xfc;" horiz-adv-x="625" 
d="M216 649c-31 0 -56 26 -56 57s25 58 56 58c32 0 58 -27 58 -58s-26 -57 -58 -57zM401 650c-34 0 -59 26 -59 56c0 31 25 57 59 57c29 0 55 -26 55 -57c0 -30 -26 -56 -55 -56zM534 53l61 -17v-25l-149 -33l-15 10v80h-16c-69 -60 -119 -84 -176 -84
c-89 0 -141 55 -141 147v309c0 14 -2 20 -15 24l-61 18v26l159 36l12 -7v-390c0 -62 35 -94 103 -94c39 0 79 15 129 48v339c0 14 -4 21 -15 24l-61 18v26l159 36l12 -7v-460c0 -13 5 -21 14 -24z" />
    <glyph glyph-name="uni1EE5" unicode="&#x1ee5;" horiz-adv-x="625" 
d="M534 53l61 -17v-25l-149 -33l-15 10v80h-16c-69 -60 -119 -84 -176 -84c-89 0 -141 55 -141 147v309c0 14 -2 20 -15 24l-61 18v26l159 36l12 -7v-390c0 -62 35 -94 103 -94c39 0 79 15 129 48v339c0 14 -4 21 -15 24l-61 18v26l159 36l12 -7v-460c0 -13 5 -21 14 -24z
M316 -77c35 0 65 -28 65 -65c0 -36 -30 -65 -65 -65c-37 0 -67 29 -67 65c0 37 30 65 67 65z" />
    <glyph glyph-name="ugrave" unicode="&#xf9;" horiz-adv-x="625" 
d="M200 718c-25 17 -27 48 -10 68c18 22 50 20 69 -4l122 -159l-15 -15zM534 53l61 -17v-25l-149 -33l-15 10v80h-16c-69 -60 -119 -84 -176 -84c-89 0 -141 55 -141 147v309c0 14 -2 20 -15 24l-61 18v26l159 36l12 -7v-390c0 -62 35 -94 103 -94c39 0 79 15 129 48v339
c0 14 -4 21 -15 24l-61 18v26l159 36l12 -7v-460c0 -13 5 -21 14 -24z" />
    <glyph glyph-name="uhungarumlaut" unicode="&#x171;" horiz-adv-x="625" 
d="M342 709l-158 -104l-14 14l116 151c18 23 48 25 65 4c17 -19 15 -49 -9 -65zM356 605l-14 14l116 151c18 23 48 25 65 4c17 -19 15 -49 -9 -65zM534 53l61 -17v-25l-149 -33l-15 10v80h-16c-69 -60 -119 -84 -176 -84c-89 0 -141 55 -141 147v309c0 14 -2 20 -15 24
l-61 18v26l159 36l12 -7v-390c0 -62 35 -94 103 -94c39 0 79 15 129 48v339c0 14 -4 21 -15 24l-61 18v26l159 36l12 -7v-460c0 -13 5 -21 14 -24z" />
    <glyph glyph-name="umacron" unicode="&#x16b;" horiz-adv-x="625" 
d="M483 731v-54h-350v54h350zM534 53l61 -17v-25l-149 -33l-15 10v80h-16c-69 -60 -119 -84 -176 -84c-89 0 -141 55 -141 147v309c0 14 -2 20 -15 24l-61 18v26l159 36l12 -7v-390c0 -62 35 -94 103 -94c39 0 79 15 129 48v339c0 14 -4 21 -15 24l-61 18v26l159 36l12 -7
v-460c0 -13 5 -21 14 -24z" />
    <glyph glyph-name="uogonek" unicode="&#x173;" horiz-adv-x="625" 
d="M497 -11c-55 -26 -73 -50 -73 -100c0 -44 25 -64 61 -64c28 0 62 7 99 34l11 -15c-42 -44 -85 -74 -134 -74c-65 0 -127 35 -127 106c0 58 34 89 97 119v73h-16c-69 -60 -119 -84 -176 -84c-89 0 -141 55 -141 147v309c0 14 -2 20 -15 24l-61 18v26l159 36l12 -7v-390
c0 -62 35 -94 103 -94c39 0 79 15 129 48v339c0 14 -4 21 -15 24l-61 18v26l159 36l12 -7v-460c0 -13 5 -21 14 -24l61 -17v-25z" />
    <glyph glyph-name="uring" unicode="&#x16f;" horiz-adv-x="625" 
d="M306 580c-68 0 -100 48 -100 101c0 58 40 101 104 101c68 0 100 -47 100 -102c0 -57 -39 -100 -104 -100zM306 750c-33 0 -46 -20 -46 -62c0 -51 14 -77 50 -77c33 0 46 19 46 62c0 52 -14 77 -50 77zM534 53l61 -17v-25l-149 -33l-15 10v80h-16
c-69 -60 -119 -84 -176 -84c-89 0 -141 55 -141 147v309c0 14 -2 20 -15 24l-61 18v26l159 36l12 -7v-390c0 -62 35 -94 103 -94c39 0 79 15 129 48v339c0 14 -4 21 -15 24l-61 18v26l159 36l12 -7v-460c0 -13 5 -21 14 -24z" />
    <glyph glyph-name="v" unicode="v" horiz-adv-x="548" 
d="M344 526h197v-30l-24 -4c-19 -3 -27 -9 -33 -25l-194 -478h-28l-196 474c-9 21 -13 26 -27 28l-31 5v30h235v-30l-36 -8c-36 -8 -43 -17 -33 -43l120 -312h3l115 312c10 27 3 38 -25 43l-43 8v30z" />
    <glyph glyph-name="w" unicode="w" horiz-adv-x="837" 
d="M634 526h192v-30l-28 -4c-16 -2 -27 -11 -34 -29l-180 -474h-28l-136 375h-1l-143 -375h-28l-174 474c-7 20 -14 26 -27 28l-36 5v30h236v-30l-33 -7c-34 -7 -41 -16 -32 -43l99 -306h7l139 386h29l134 -376h4l105 296c10 27 3 38 -25 43l-40 7v30z" />
    <glyph glyph-name="wacute" unicode="&#x1e83;" horiz-adv-x="837" 
d="M569 718l-166 -110l-15 15l122 159c19 24 51 26 69 4c17 -20 15 -51 -10 -68zM634 526h192v-30l-28 -4c-16 -2 -27 -11 -34 -29l-180 -474h-28l-136 375h-1l-143 -375h-28l-174 474c-7 20 -14 26 -27 28l-36 5v30h236v-30l-33 -7c-34 -7 -41 -16 -32 -43l99 -306h7
l139 386h29l134 -376h4l105 296c10 27 3 38 -25 43l-40 7v30z" />
    <glyph glyph-name="wcircumflex" unicode="&#x175;" horiz-adv-x="837" 
d="M448 690l-124 -95l-18 15l137 182h12l136 -182l-17 -15zM634 526h192v-30l-28 -4c-16 -2 -27 -11 -34 -29l-180 -474h-28l-136 375h-1l-143 -375h-28l-174 474c-7 20 -14 26 -27 28l-36 5v30h236v-30l-33 -7c-34 -7 -41 -16 -32 -43l99 -306h7l139 386h29l134 -376h4
l105 296c10 27 3 38 -25 43l-40 7v30z" />
    <glyph glyph-name="wdieresis" unicode="&#x1e85;" horiz-adv-x="837" 
d="M356 649c-31 0 -56 26 -56 57s25 58 56 58c32 0 58 -27 58 -58s-26 -57 -58 -57zM541 650c-34 0 -59 26 -59 56c0 31 25 57 59 57c29 0 55 -26 55 -57c0 -30 -26 -56 -55 -56zM634 526h192v-30l-28 -4c-16 -2 -27 -11 -34 -29l-180 -474h-28l-136 375h-1l-143 -375h-28
l-174 474c-7 20 -14 26 -27 28l-36 5v30h236v-30l-33 -7c-34 -7 -41 -16 -32 -43l99 -306h7l139 386h29l134 -376h4l105 296c10 27 3 38 -25 43l-40 7v30z" />
    <glyph glyph-name="wgrave" unicode="&#x1e81;" horiz-adv-x="837" 
d="M340 718c-25 17 -27 48 -10 68c18 22 50 20 69 -4l122 -159l-15 -15zM634 526h192v-30l-28 -4c-16 -2 -27 -11 -34 -29l-180 -474h-28l-136 375h-1l-143 -375h-28l-174 474c-7 20 -14 26 -27 28l-36 5v30h236v-30l-33 -7c-34 -7 -41 -16 -32 -43l99 -306h7l139 386h29
l134 -376h4l105 296c10 27 3 38 -25 43l-40 7v30z" />
    <glyph glyph-name="x" unicode="x" horiz-adv-x="535" 
d="M504 33l21 -2v-31h-233v31l27 4c31 5 36 19 16 51l-85 131h-2l-97 -143c-13 -20 -7 -33 17 -37l37 -6v-31h-194v31l29 4c18 2 32 13 53 43l122 174v6l-140 210c-10 15 -22 23 -37 25l-21 3v30h225v-31l-29 -6c-28 -6 -32 -21 -14 -49l84 -129h2l96 142c11 17 5 30 -18 34
l-38 7v32h189v-30l-28 -5c-18 -3 -30 -14 -51 -44l-117 -173v-4l131 -196c20 -30 33 -39 55 -41z" />
    <glyph glyph-name="y" unicode="y" horiz-adv-x="555" 
d="M353 526h195v-30l-24 -4c-18 -3 -26 -9 -32 -25l-223 -564c-43 -109 -98 -162 -167 -162c-29 0 -57 13 -90 40l15 51c23 -5 42 -7 69 -7c62 0 100 27 126 90l36 84l-195 464c-9 21 -13 26 -27 28l-28 5v30h234v-30l-38 -10c-34 -9 -42 -19 -32 -43l127 -322h5l119 322
c10 27 5 36 -25 43l-45 10v30z" />
    <glyph glyph-name="yacute" unicode="&#xfd;" horiz-adv-x="555" 
d="M421 718l-166 -110l-15 15l122 159c19 24 51 26 69 4c17 -20 15 -51 -10 -68zM353 526h195v-30l-24 -4c-18 -3 -26 -9 -32 -25l-223 -564c-43 -109 -98 -162 -167 -162c-29 0 -57 13 -90 40l15 51c23 -5 42 -7 69 -7c62 0 100 27 126 90l36 84l-195 464
c-9 21 -13 26 -27 28l-28 5v30h234v-30l-38 -10c-34 -9 -42 -19 -32 -43l127 -322h5l119 322c10 27 5 36 -25 43l-45 10v30z" />
    <glyph glyph-name="ycircumflex" unicode="&#x177;" horiz-adv-x="555" 
d="M300 690l-124 -95l-18 15l137 182h12l136 -182l-17 -15zM353 526h195v-30l-24 -4c-18 -3 -26 -9 -32 -25l-223 -564c-43 -109 -98 -162 -167 -162c-29 0 -57 13 -90 40l15 51c23 -5 42 -7 69 -7c62 0 100 27 126 90l36 84l-195 464c-9 21 -13 26 -27 28l-28 5v30h234v-30
l-38 -10c-34 -9 -42 -19 -32 -43l127 -322h5l119 322c10 27 5 36 -25 43l-45 10v30z" />
    <glyph glyph-name="ydieresis" unicode="&#xff;" horiz-adv-x="555" 
d="M208 649c-31 0 -56 26 -56 57s25 58 56 58c32 0 58 -27 58 -58s-26 -57 -58 -57zM393 650c-34 0 -59 26 -59 56c0 31 25 57 59 57c29 0 55 -26 55 -57c0 -30 -26 -56 -55 -56zM353 526h195v-30l-24 -4c-18 -3 -26 -9 -32 -25l-223 -564c-43 -109 -98 -162 -167 -162
c-29 0 -57 13 -90 40l15 51c23 -5 42 -7 69 -7c62 0 100 27 126 90l36 84l-195 464c-9 21 -13 26 -27 28l-28 5v30h234v-30l-38 -10c-34 -9 -42 -19 -32 -43l127 -322h5l119 322c10 27 5 36 -25 43l-45 10v30z" />
    <glyph glyph-name="ygrave" unicode="&#x1ef3;" horiz-adv-x="555" 
d="M192 718c-25 17 -27 48 -10 68c18 22 50 20 69 -4l122 -159l-15 -15zM353 526h195v-30l-24 -4c-18 -3 -26 -9 -32 -25l-223 -564c-43 -109 -98 -162 -167 -162c-29 0 -57 13 -90 40l15 51c23 -5 42 -7 69 -7c62 0 100 27 126 90l36 84l-195 464c-9 21 -13 26 -27 28
l-28 5v30h234v-30l-38 -10c-34 -9 -42 -19 -32 -43l127 -322h5l119 322c10 27 5 36 -25 43l-45 10v30z" />
    <glyph glyph-name="uni0233" unicode="&#x233;" horiz-adv-x="555" 
d="M475 731v-54h-350v54h350zM353 526h195v-30l-24 -4c-18 -3 -26 -9 -32 -25l-223 -564c-43 -109 -98 -162 -167 -162c-29 0 -57 13 -90 40l15 51c23 -5 42 -7 69 -7c62 0 100 27 126 90l36 84l-195 464c-9 21 -13 26 -27 28l-28 5v30h234v-30l-38 -10
c-34 -9 -42 -19 -32 -43l127 -322h5l119 322c10 27 5 36 -25 43l-45 10v30z" />
    <glyph glyph-name="uni1EF9" unicode="&#x1ef9;" horiz-adv-x="555" 
d="M215 680c-28 0 -46 -19 -62 -53l-23 8c12 43 42 116 94 116c28 0 60 -16 92 -31c30 -14 61 -27 87 -27c27 0 43 20 61 54l23 -10c-13 -43 -43 -115 -94 -115c-26 0 -56 14 -86 28c-32 15 -64 30 -92 30zM353 526h195v-30l-24 -4c-18 -3 -26 -9 -32 -25l-223 -564
c-43 -109 -98 -162 -167 -162c-29 0 -57 13 -90 40l15 51c23 -5 42 -7 69 -7c62 0 100 27 126 90l36 84l-195 464c-9 21 -13 26 -27 28l-28 5v30h234v-30l-38 -10c-34 -9 -42 -19 -32 -43l127 -322h5l119 322c10 27 5 36 -25 43l-45 10v30z" />
    <glyph glyph-name="z" unicode="z" horiz-adv-x="488" 
d="M414 195l31 -5l-12 -190h-392v32l279 447v2h-103c-74 0 -98 -21 -148 -132l-31 7l26 170h374v-18l-288 -458v-5h112c79 0 120 40 152 150z" />
    <glyph glyph-name="zacute" unicode="&#x17a;" horiz-adv-x="488" 
d="M366 718l-166 -110l-15 15l122 159c19 24 51 26 69 4c17 -20 15 -51 -10 -68zM414 195l31 -5l-12 -190h-392v32l279 447v2h-103c-74 0 -98 -21 -148 -132l-31 7l26 170h374v-18l-288 -458v-5h112c79 0 120 40 152 150z" />
    <glyph glyph-name="zcaron" unicode="&#x17e;" horiz-adv-x="488" 
d="M252 619h-12l-130 173l17 14l118 -91l120 91l16 -14zM414 195l31 -5l-12 -190h-392v32l279 447v2h-103c-74 0 -98 -21 -148 -132l-31 7l26 170h374v-18l-288 -458v-5h112c79 0 120 40 152 150z" />
    <glyph glyph-name="zdotaccent" unicode="&#x17c;" horiz-adv-x="488" 
d="M246 642c-39 0 -71 31 -71 69s32 68 71 68c37 0 69 -30 69 -68s-32 -69 -69 -69zM414 195l31 -5l-12 -190h-392v32l279 447v2h-103c-74 0 -98 -21 -148 -132l-31 7l26 170h374v-18l-288 -458v-5h112c79 0 120 40 152 150z" />
    <glyph glyph-name="T_h" horiz-adv-x="1236" 
d="M191 0v37l61 8c31 4 41 17 41 53v560h-66c-61 0 -89 -15 -114 -59l-62 -110l-29 8l36 216h576l155 35l12 -6v-289h10c69 60 122 85 180 85c92 0 145 -54 145 -148v-301c0 -35 11 -49 42 -53l36 -5v-31h-250v31l36 5c31 4 41 16 41 53v285c0 62 -37 95 -106 95
c-41 0 -79 -15 -134 -52v-328c0 -35 10 -49 41 -53l36 -5v-31h-248v31l36 5c31 4 40 17 40 53v521c-7 35 -46 48 -91 48h-211v-560c0 -37 10 -49 41 -53l61 -8v-37h-315z" />
    <glyph glyph-name="c_t" horiz-adv-x="906" 
d="M871 100l21 -15c-32 -60 -96 -101 -160 -101c-74 0 -113 39 -113 115v382h-86v31l86 19c-6 118 -45 187 -134 187c-85 0 -123 -44 -123 -112c0 -49 12 -66 56 -86c8 -3 16 -6 24 -10l19 -155l-31 -5c-32 89 -73 137 -139 137c-92 0 -142 -75 -142 -199
c0 -133 62 -224 158 -224c67 0 101 16 143 45l18 -20c-49 -56 -105 -105 -194 -105c-132 0 -224 113 -224 274c0 174 104 280 258 280h16c-11 16 -16 35 -16 56c0 98 59 174 192 174c136 0 210 -97 215 -242h158v-45h-159v-362c0 -50 15 -69 56 -69c38 0 74 19 101 50z" />
    <glyph glyph-name="f_b" horiz-adv-x="999" 
d="M878 485c46 -44 71 -115 71 -203c0 -173 -119 -298 -284 -298c-58 0 -117 16 -190 52v445h-258v-392c0 -37 12 -50 41 -53l44 -5v-31h-256v31l36 5c30 4 40 16 40 53v392h-86v31l85 14v24c0 121 83 199 246 199c23 0 45 -2 69 -7l122 26l12 -6v-302h9c31 47 94 78 158 78
c57 0 105 -18 141 -53zM217 526h258v121c-18 29 -45 48 -79 57l-8 2c-17 4 -36 6 -57 6c-74 0 -114 -39 -114 -129v-57zM691 33c98 0 163 83 163 208c0 141 -60 223 -165 223c-46 0 -88 -14 -119 -39v-346c29 -29 73 -46 121 -46z" />
    <glyph glyph-name="f_f_b" horiz-adv-x="1330" 
d="M1209 485c46 -44 71 -115 71 -203c0 -173 -119 -298 -284 -298c-58 0 -117 16 -190 52v445h-258v-392c0 -37 12 -50 41 -53l44 -5v-31h-256v31l36 5c30 4 40 16 40 53v392h-236v-392c0 -37 12 -50 41 -53l44 -5v-31h-256v31l36 5c30 4 40 16 40 53v392h-86v31l85 14v24
c0 121 83 199 246 199c50 0 103 -10 173 -36c39 23 92 36 158 36c23 0 45 -2 69 -7l122 26l12 -6v-302h9c31 47 94 78 158 78c57 0 105 -18 141 -53zM217 526h235v24c0 37 8 70 23 98c-29 44 -77 64 -144 64c-74 0 -114 -39 -114 -129v-57zM548 526h258v121
c-18 29 -45 48 -79 57l-8 2c-17 4 -36 6 -57 6c-74 0 -114 -39 -114 -129v-57zM1022 33c98 0 163 83 163 208c0 141 -60 223 -165 223c-46 0 -88 -14 -119 -39v-346c29 -29 73 -46 121 -46z" />
    <glyph glyph-name="f_f_h" horiz-adv-x="1327" 
d="M1269 36l36 -5v-31h-250v31l36 5c31 4 41 16 41 53v285c0 62 -37 95 -106 95c-41 0 -79 -15 -134 -52v-328c0 -35 10 -49 41 -53l36 -5v-31h-248v31l36 5c31 4 40 17 40 53v392h-249v-392c0 -37 12 -50 41 -53l44 -5v-31h-256v31l36 5c30 4 40 16 40 53v392h-236v-392
c0 -37 12 -50 41 -53l44 -5v-31h-256v31l36 5c30 4 40 16 40 53v392h-86v31l85 14v24c0 121 83 199 246 199c50 0 103 -10 173 -36c39 23 92 36 158 36c22 0 45 -2 68 -7l114 26l12 -6v-309h10c69 60 122 85 180 85c92 0 145 -54 145 -148v-301c0 -35 11 -49 42 -53z
M217 526h235v24c0 37 8 70 23 98c-29 44 -77 64 -144 64c-74 0 -114 -39 -114 -129v-57zM548 526h249v134c-29 36 -75 52 -135 52c-74 0 -114 -39 -114 -129v-57z" />
    <glyph glyph-name="f_f_j" horiz-adv-x="952" 
d="M867 544l12 -7v-497c0 -142 -43 -210 -192 -299l-24 30c91 54 121 112 121 233v453c0 12 -3 24 -15 24h-221v-392c0 -37 12 -50 41 -53l44 -5v-31h-256v31l36 5c30 4 40 16 40 53v392h-236v-392c0 -37 12 -50 41 -53l44 -5v-31h-256v31l36 5c30 4 40 16 40 53v392h-86v31
l85 14v24c0 121 83 199 246 199c47 0 97 -9 161 -32c40 28 97 44 170 44c50 0 104 -7 138 -14l5 -112l-37 -4c-27 52 -71 93 -142 93c-74 0 -114 -39 -114 -129v-69h240zM217 526h235v36c0 34 7 64 19 91c-29 41 -76 59 -140 59c-74 0 -114 -39 -114 -129v-57z" />
    <glyph glyph-name="f_f_k" horiz-adv-x="1258" 
d="M892 89c0 -35 10 -49 41 -53l36 -5v-31h-248v31l36 5c31 4 40 17 40 53v392h-249v-392c0 -37 12 -50 41 -53l44 -5v-31h-256v31l36 5c30 4 40 16 40 53v392h-236v-392c0 -37 12 -50 41 -53l44 -5v-31h-256v31l36 5c30 4 40 16 40 53v392h-86v31l85 14v24
c0 121 83 199 246 199c50 0 103 -10 173 -36c39 23 92 36 158 36c22 0 45 -2 68 -7l114 26l12 -6v-673zM217 526h235v24c0 37 8 70 23 98c-29 44 -77 64 -144 64c-74 0 -114 -39 -114 -129v-57zM548 526h249v134c-29 36 -75 52 -135 52c-74 0 -114 -39 -114 -129v-57z
M1198 65c16 -19 33 -30 52 -34v-31h-73c-35 0 -52 7 -69 28l-208 254v6l168 168c14 14 8 29 -12 33l-35 7v30h204v-30l-35 -9c-17 -4 -35 -15 -51 -30l-142 -139v-11z" />
    <glyph glyph-name="f_f_t" horiz-adv-x="1093" 
d="M1060 101l19 -13c-37 -69 -109 -104 -169 -104c-68 0 -118 30 -118 115v382h-233v-392c0 -37 12 -50 41 -53l49 -5v-31h-261v31l36 5c30 4 40 16 40 53v392h-247v-392c0 -37 12 -50 41 -53l45 -5v-31h-257v31l36 5c30 4 40 16 40 53v392h-86v31l85 14v24
c0 121 83 199 246 199c49 0 99 -12 153 -30c31 27 75 42 129 42c41 0 77 -7 104 -14l5 -97l-33 -4c-22 46 -51 78 -103 78c-47 0 -63 -26 -63 -101v-97h197c26 0 39 1 49 24l45 100h37v-124h175v-45h-175v-362c0 -54 21 -69 62 -69c38 0 79 16 111 51zM217 526h246v45
c0 28 4 54 12 77c-29 45 -77 64 -144 64c-74 0 -114 -39 -114 -129v-57z" />
    <glyph glyph-name="f_h" horiz-adv-x="996" 
d="M938 36l36 -5v-31h-250v31l36 5c31 4 41 16 41 53v285c0 62 -37 95 -106 95c-41 0 -79 -15 -134 -52v-328c0 -35 10 -49 41 -53l36 -5v-31h-248v31l36 5c31 4 40 17 40 53v392h-249v-392c0 -37 12 -50 41 -53l44 -5v-31h-256v31l36 5c30 4 40 16 40 53v392h-86v31l85 14
v24c0 121 83 199 246 199c22 0 45 -2 68 -7l114 26l12 -6v-309h10c69 60 122 85 180 85c92 0 145 -54 145 -148v-301c0 -35 11 -49 42 -53zM217 526h249v134c-29 36 -75 52 -135 52c-74 0 -114 -39 -114 -129v-57z" />
    <glyph glyph-name="f_j" horiz-adv-x="621" 
d="M536 544l12 -7v-497c0 -142 -43 -210 -192 -299l-24 30c91 54 121 112 121 233v453c0 12 -3 24 -15 24h-221v-392c0 -37 12 -50 41 -53l44 -5v-31h-256v31l36 5c30 4 40 16 40 53v392h-86v31l85 14v36c0 121 83 199 246 199c50 0 104 -7 138 -14l5 -112l-37 -4
c-27 52 -71 93 -142 93c-74 0 -114 -39 -114 -129v-69h240z" />
    <glyph glyph-name="f_k" horiz-adv-x="927" 
d="M561 89c0 -35 10 -49 41 -53l36 -5v-31h-248v31l36 5c31 4 40 17 40 53v392h-249v-392c0 -37 12 -50 41 -53l44 -5v-31h-256v31l36 5c30 4 40 16 40 53v392h-86v31l85 14v24c0 121 83 199 246 199c22 0 45 -2 68 -7l114 26l12 -6v-673zM217 526h249v134
c-29 36 -75 52 -135 52c-74 0 -114 -39 -114 -129v-57zM867 65c16 -19 33 -30 52 -34v-31h-73c-35 0 -52 7 -69 28l-208 254v6l168 168c14 14 8 29 -12 33l-35 7v30h204v-30l-35 -9c-17 -4 -35 -15 -51 -30l-142 -139v-11z" />
    <glyph glyph-name="f_t" horiz-adv-x="751" 
d="M718 101l19 -13c-37 -69 -109 -104 -169 -104c-68 0 -118 30 -118 115v382h-233v-392c0 -37 12 -50 41 -53l49 -5v-31h-261v31l36 5c30 4 40 16 40 53v392h-86v31l85 14v45c0 116 65 190 186 190c41 0 77 -7 104 -14l5 -97l-33 -4c-22 46 -51 78 -103 78
c-47 0 -63 -26 -63 -101v-97h197c26 0 39 1 49 24l45 100h37v-124h175v-45h-175v-362c0 -54 21 -69 62 -69c38 0 79 16 111 51z" />
    <glyph glyph-name="s_t" horiz-adv-x="852" 
d="M817 100l21 -15c-32 -60 -96 -101 -160 -101c-74 0 -113 39 -113 115v382h-86v31l86 19c-6 118 -45 187 -134 187c-85 0 -123 -44 -123 -112c0 -57 25 -77 80 -95l-3 -1c1 -1 3 -2 5 -3l6 -119l-30 -5c-28 71 -75 107 -128 107c-57 0 -92 -33 -92 -81
c0 -36 20 -55 82 -83l75 -34c80 -36 110 -72 110 -145c0 -101 -78 -163 -204 -163c-50 0 -104 14 -152 39l-7 143l32 4c53 -110 80 -138 143 -138c66 0 103 40 103 87c0 35 -21 62 -75 88l-76 37c-87 42 -118 76 -118 139c0 94 82 155 194 155h17c-11 16 -16 35 -16 56
c0 98 59 174 192 174c136 0 210 -97 215 -242h158v-45h-159v-362c0 -50 15 -69 56 -69c38 0 74 19 101 50z" />
    <glyph glyph-name="a.sc" horiz-adv-x="690" 
d="M636 41l33 -7v-34h-275v34l64 7c23 3 30 15 21 37l-44 111h-231l-42 -104c-11 -27 -4 -36 27 -41l58 -10v-34h-226v33l25 11c31 14 41 17 52 44l221 522h55l221 -529c12 -29 19 -35 41 -40zM225 241h189l-91 229h-4z" />
    <glyph glyph-name="aacute.sc" horiz-adv-x="690" 
d="M461 776l-166 -110l-15 15l122 159c19 24 51 26 69 4c17 -20 15 -51 -10 -68zM636 41l33 -7v-34h-275v34l64 7c23 3 30 15 21 37l-44 111h-231l-42 -104c-11 -27 -4 -36 27 -41l58 -10v-34h-226v33l25 11c31 14 41 17 52 44l221 522h55l221 -529c12 -29 19 -35 41 -40z
M225 241h189l-91 229h-4z" />
    <glyph glyph-name="abreve.sc" horiz-adv-x="690" 
d="M340 673c-80 0 -131 48 -145 146l24 6c16 -61 56 -78 121 -78s105 17 121 78l24 -6c-14 -98 -65 -146 -145 -146zM636 41l33 -7v-34h-275v34l64 7c23 3 30 15 21 37l-44 111h-231l-42 -104c-11 -27 -4 -36 27 -41l58 -10v-34h-226v33l25 11c31 14 41 17 52 44l221 522h55
l221 -529c12 -29 19 -35 41 -40zM225 241h189l-91 229h-4z" />
    <glyph glyph-name="acircumflex.sc" horiz-adv-x="690" 
d="M340 748l-124 -95l-18 15l137 182h12l136 -182l-17 -15zM636 41l33 -7v-34h-275v34l64 7c23 3 30 15 21 37l-44 111h-231l-42 -104c-11 -27 -4 -36 27 -41l58 -10v-34h-226v33l25 11c31 14 41 17 52 44l221 522h55l221 -529c12 -29 19 -35 41 -40zM225 241h189l-91 229
h-4z" />
    <glyph glyph-name="adieresis.sc" horiz-adv-x="690" 
d="M248 707c-31 0 -56 26 -56 57s25 58 56 58c32 0 58 -27 58 -58s-26 -57 -58 -57zM433 708c-34 0 -59 26 -59 56c0 31 25 57 59 57c29 0 55 -26 55 -57c0 -30 -26 -56 -55 -56zM636 41l33 -7v-34h-275v34l64 7c23 3 30 15 21 37l-44 111h-231l-42 -104
c-11 -27 -4 -36 27 -41l58 -10v-34h-226v33l25 11c31 14 41 17 52 44l221 522h55l221 -529c12 -29 19 -35 41 -40zM225 241h189l-91 229h-4z" />
    <glyph glyph-name="agrave.sc" horiz-adv-x="690" 
d="M232 776c-25 17 -27 48 -10 68c18 22 50 20 69 -4l122 -159l-15 -15zM636 41l33 -7v-34h-275v34l64 7c23 3 30 15 21 37l-44 111h-231l-42 -104c-11 -27 -4 -36 27 -41l58 -10v-34h-226v33l25 11c31 14 41 17 52 44l221 522h55l221 -529c12 -29 19 -35 41 -40zM225 241
h189l-91 229h-4z" />
    <glyph glyph-name="amacron.sc" horiz-adv-x="690" 
d="M515 789v-54h-350v54h350zM636 41l33 -7v-34h-275v34l64 7c23 3 30 15 21 37l-44 111h-231l-42 -104c-11 -27 -4 -36 27 -41l58 -10v-34h-226v33l25 11c31 14 41 17 52 44l221 522h55l221 -529c12 -29 19 -35 41 -40zM225 241h189l-91 229h-4z" />
    <glyph glyph-name="aogonek.sc" horiz-adv-x="690" 
d="M670 -135l11 -15c-42 -44 -85 -74 -134 -74c-65 0 -127 35 -127 106c0 58 33 88 95 118h-121v34l64 7c23 3 30 15 21 37l-44 111h-231l-42 -104c-11 -27 -4 -36 27 -41l58 -10v-34h-226v33l25 11c31 14 41 17 52 44l221 522h55l221 -529c12 -29 19 -35 41 -40l33 -7v-34
h-76c-62 -29 -83 -52 -83 -105c0 -44 25 -64 61 -64c28 0 62 7 99 34zM225 241h189l-91 229h-4z" />
    <glyph glyph-name="aring.sc" horiz-adv-x="690" 
d="M338 638c-68 0 -100 48 -100 101c0 58 40 101 104 101c68 0 100 -47 100 -102c0 -57 -39 -100 -104 -100zM338 808c-33 0 -46 -20 -46 -62c0 -51 14 -77 50 -77c33 0 46 19 46 62c0 52 -14 77 -50 77zM636 41l33 -7v-34h-275v34l64 7c23 3 30 15 21 37l-44 111h-231
l-42 -104c-11 -27 -4 -36 27 -41l58 -10v-34h-226v33l25 11c31 14 41 17 52 44l221 522h55l221 -529c12 -29 19 -35 41 -40zM225 241h189l-91 229h-4z" />
    <glyph glyph-name="aringacute.sc" horiz-adv-x="690" 
d="M636 41l33 -7v-34h-275v34l64 7c23 3 30 15 21 37l-44 111h-231l-42 -104c-11 -27 -4 -36 27 -41l58 -10v-34h-226v33l25 11c31 14 41 17 52 44l208 492c-43 14 -63 54 -63 96c0 28 9 52 26 70l118 154c19 24 51 26 69 4c17 -20 15 -51 -10 -68l-90 -59
c62 -5 91 -50 91 -102c0 -43 -22 -78 -61 -93l209 -501c12 -29 19 -35 41 -40zM343 745c-33 0 -46 -20 -46 -62c0 -39 8 -64 29 -73h43c17 8 24 26 24 58c0 52 -14 77 -50 77zM225 241h189l-91 229h-4z" />
    <glyph glyph-name="atilde.sc" horiz-adv-x="690" 
d="M255 738c-28 0 -46 -19 -62 -53l-23 8c12 43 42 116 94 116c28 0 60 -16 92 -31c30 -14 61 -27 87 -27c27 0 43 20 61 54l23 -10c-13 -43 -43 -115 -94 -115c-26 0 -56 14 -86 28c-32 15 -64 30 -92 30zM636 41l33 -7v-34h-275v34l64 7c23 3 30 15 21 37l-44 111h-231
l-42 -104c-11 -27 -4 -36 27 -41l58 -10v-34h-226v33l25 11c31 14 41 17 52 44l221 522h55l221 -529c12 -29 19 -35 41 -40zM225 241h189l-91 229h-4z" />
    <glyph glyph-name="ae.sc" horiz-adv-x="927" 
d="M844 199l28 -7l-32 -192h-510v34l54 6c28 3 37 14 37 46v166h-159l-88 -171c-14 -26 -5 -38 28 -41l57 -6v-34h-238v34l36 9c28 7 36 13 53 44l280 519h421l33 -164l-30 -10l-50 71c-25 35 -53 50 -103 50h-136v-246h49c70 0 90 13 104 65l10 36h28v-253h-28l-10 35
c-15 52 -35 64 -104 64h-49v-201h163c54 0 83 14 103 50zM421 305v246h-5l-127 -246h132z" />
    <glyph glyph-name="aeacute.sc" horiz-adv-x="927" 
d="M731 761l-166 -110l-15 15l122 159c19 24 51 26 69 4c17 -20 15 -51 -10 -68zM844 199l28 -7l-32 -192h-510v34l54 6c28 3 37 14 37 46v166h-159l-88 -171c-14 -26 -5 -38 28 -41l57 -6v-34h-238v34l36 9c28 7 36 13 53 44l280 519h421l33 -164l-30 -10l-50 71
c-25 35 -53 50 -103 50h-136v-246h49c70 0 90 13 104 65l10 36h28v-253h-28l-10 35c-15 52 -35 64 -104 64h-49v-201h163c54 0 83 14 103 50zM421 305v246h-5l-127 -246h132z" />
    <glyph glyph-name="b.sc" horiz-adv-x="663" 
d="M408 326c132 -17 195 -68 195 -159c0 -114 -83 -167 -262 -167h-291v34l55 6c28 3 37 13 37 45v435c0 32 -8 43 -37 46l-55 5v35h287c171 0 238 -49 238 -137c0 -76 -57 -124 -167 -141v-2zM309 555h-63v-210h63c98 0 155 38 155 108c0 67 -41 102 -155 102zM326 51
c113 0 160 33 160 121c0 79 -40 125 -158 125h-82v-246h80z" />
    <glyph glyph-name="c.sc" horiz-adv-x="687" 
d="M372 -16c-192 0 -315 112 -315 318c0 191 122 317 327 317c66 0 142 -18 199 -47l16 -170l-33 -7c-41 120 -89 171 -187 171c-139 0 -205 -82 -205 -262s64 -267 208 -267c99 0 154 49 197 171l33 -7l-22 -169c-73 -31 -149 -48 -218 -48z" />
    <glyph glyph-name="cacute.sc" horiz-adv-x="687" 
d="M341 666l-15 15l122 159c19 24 51 26 69 4c17 -20 15 -51 -10 -68zM372 -16c-192 0 -315 112 -315 318c0 191 122 317 327 317c66 0 142 -18 199 -47l16 -170l-33 -7c-41 120 -89 171 -187 171c-139 0 -205 -82 -205 -262s64 -267 208 -267c99 0 154 49 197 171l33 -7
l-22 -169c-73 -31 -149 -48 -218 -48z" />
    <glyph glyph-name="ccaron.sc" horiz-adv-x="687" 
d="M393 677h-12l-130 173l17 14l118 -91l120 91l16 -14zM579 208l33 -7l-22 -169c-73 -31 -149 -48 -218 -48c-192 0 -315 112 -315 318c0 191 122 317 327 317c66 0 142 -18 199 -47l16 -170l-33 -7c-41 120 -89 171 -187 171c-139 0 -205 -82 -205 -262s64 -267 208 -267
c99 0 154 49 197 171z" />
    <glyph glyph-name="ccedilla.sc" horiz-adv-x="687" 
d="M372 -16l-9 -29c82 -7 119 -42 119 -83c0 -58 -76 -122 -216 -122v24c87 10 119 34 119 64c0 27 -20 48 -86 53l28 95c-166 16 -270 126 -270 316c0 191 122 317 327 317c66 0 142 -18 199 -47l16 -170l-33 -7c-41 120 -89 171 -187 171c-139 0 -205 -82 -205 -262
s64 -267 208 -267c99 0 154 49 197 171l33 -7l-22 -169c-73 -31 -149 -48 -218 -48z" />
    <glyph glyph-name="ccircumflex.sc" horiz-adv-x="687" 
d="M386 748l-124 -95l-18 15l137 182h12l136 -182l-17 -15zM579 208l33 -7l-22 -169c-73 -31 -149 -48 -218 -48c-192 0 -315 112 -315 318c0 191 122 317 327 317c66 0 142 -18 199 -47l16 -170l-33 -7c-41 120 -89 171 -187 171c-139 0 -205 -82 -205 -262
s64 -267 208 -267c99 0 154 49 197 171z" />
    <glyph glyph-name="cdotaccent.sc" horiz-adv-x="687" 
d="M387 700c-39 0 -71 31 -71 69s32 68 71 68c37 0 69 -30 69 -68s-32 -69 -69 -69zM372 -16c-192 0 -315 112 -315 318c0 191 122 317 327 317c66 0 142 -18 199 -47l16 -170l-33 -7c-41 120 -89 171 -187 171c-139 0 -205 -82 -205 -262s64 -267 208 -267
c99 0 154 49 197 171l33 -7l-22 -169c-73 -31 -149 -48 -218 -48z" />
    <glyph glyph-name="d.sc" horiz-adv-x="741" 
d="M360 606c210 0 324 -110 324 -304c0 -192 -118 -302 -321 -302h-313v34l55 6c28 3 37 13 37 45v435c0 32 -8 43 -37 46l-55 5v35h310zM352 53c142 0 215 75 215 249c0 167 -47 251 -215 251h-106v-500h106z" />
    <glyph glyph-name="eth.sc" horiz-adv-x="742" 
d="M361 606c210 0 324 -110 324 -304c0 -192 -118 -302 -321 -302h-313v34l55 6c28 3 37 13 37 45v215h-93v43h93v177c0 32 -8 43 -37 46l-55 5v35h310zM353 53c142 0 215 75 215 249c0 167 -47 251 -215 251h-106v-210h139v-43h-139v-247h106z" />
    <glyph glyph-name="dcaron.sc" horiz-adv-x="741" 
d="M372 677h-12l-130 173l17 14l118 -91l120 91l16 -14zM360 606c210 0 324 -110 324 -304c0 -192 -118 -302 -321 -302h-313v34l55 6c28 3 37 13 37 45v435c0 32 -8 43 -37 46l-55 5v35h310zM352 53c142 0 215 75 215 249c0 167 -47 251 -215 251h-106v-500h106z" />
    <glyph glyph-name="dcroat.sc" horiz-adv-x="742" 
d="M361 606c210 0 324 -110 324 -304c0 -192 -118 -302 -321 -302h-313v34l55 6c28 3 37 13 37 45v215h-93v43h93v177c0 32 -8 43 -37 46l-55 5v35h310zM353 53c142 0 215 75 215 249c0 167 -47 251 -215 251h-106v-210h139v-43h-139v-247h106z" />
    <glyph glyph-name="e.sc" horiz-adv-x="660" 
d="M577 198l28 -7l-31 -191h-524v34l55 6c28 3 37 15 37 46v434c0 32 -9 43 -37 46l-55 5v35h494l33 -164l-30 -9l-51 70c-27 38 -55 50 -104 50h-146v-214h62c69 0 88 12 103 66l10 36h28v-254h-28l-10 35c-15 52 -35 64 -103 64h-62v-233h176c53 0 82 14 102 50z" />
    <glyph glyph-name="eacute.sc" horiz-adv-x="660" 
d="M471 776l-166 -110l-15 15l122 159c19 24 51 26 69 4c17 -20 15 -51 -10 -68zM577 198l28 -7l-31 -191h-524v34l55 6c28 3 37 15 37 46v434c0 32 -9 43 -37 46l-55 5v35h494l33 -164l-30 -9l-51 70c-27 38 -55 50 -104 50h-146v-214h62c69 0 88 12 103 66l10 36h28v-254
h-28l-10 35c-15 52 -35 64 -103 64h-62v-233h176c53 0 82 14 102 50z" />
    <glyph glyph-name="ebreve.sc" horiz-adv-x="660" 
d="M350 673c-80 0 -131 48 -145 146l24 6c16 -61 56 -78 121 -78s105 17 121 78l24 -6c-14 -98 -65 -146 -145 -146zM577 198l28 -7l-31 -191h-524v34l55 6c28 3 37 15 37 46v434c0 32 -9 43 -37 46l-55 5v35h494l33 -164l-30 -9l-51 70c-27 38 -55 50 -104 50h-146v-214h62
c69 0 88 12 103 66l10 36h28v-254h-28l-10 35c-15 52 -35 64 -103 64h-62v-233h176c53 0 82 14 102 50z" />
    <glyph glyph-name="ecaron.sc" horiz-adv-x="660" 
d="M357 677h-12l-130 173l17 14l118 -91l120 91l16 -14zM577 198l28 -7l-31 -191h-524v34l55 6c28 3 37 15 37 46v434c0 32 -9 43 -37 46l-55 5v35h494l33 -164l-30 -9l-51 70c-27 38 -55 50 -104 50h-146v-214h62c69 0 88 12 103 66l10 36h28v-254h-28l-10 35
c-15 52 -35 64 -103 64h-62v-233h176c53 0 82 14 102 50z" />
    <glyph glyph-name="ecircumflex.sc" horiz-adv-x="660" 
d="M350 748l-124 -95l-18 15l137 182h12l136 -182l-17 -15zM577 198l28 -7l-31 -191h-524v34l55 6c28 3 37 15 37 46v434c0 32 -9 43 -37 46l-55 5v35h494l33 -164l-30 -9l-51 70c-27 38 -55 50 -104 50h-146v-214h62c69 0 88 12 103 66l10 36h28v-254h-28l-10 35
c-15 52 -35 64 -103 64h-62v-233h176c53 0 82 14 102 50z" />
    <glyph glyph-name="edieresis.sc" horiz-adv-x="660" 
d="M258 707c-31 0 -56 26 -56 57s25 58 56 58c32 0 58 -27 58 -58s-26 -57 -58 -57zM443 708c-34 0 -59 26 -59 56c0 31 25 57 59 57c29 0 55 -26 55 -57c0 -30 -26 -56 -55 -56zM577 198l28 -7l-31 -191h-524v34l55 6c28 3 37 15 37 46v434c0 32 -9 43 -37 46l-55 5v35h494
l33 -164l-30 -9l-51 70c-27 38 -55 50 -104 50h-146v-214h62c69 0 88 12 103 66l10 36h28v-254h-28l-10 35c-15 52 -35 64 -103 64h-62v-233h176c53 0 82 14 102 50z" />
    <glyph glyph-name="edotaccent.sc" horiz-adv-x="660" 
d="M351 700c-39 0 -71 31 -71 69s32 68 71 68c37 0 69 -30 69 -68s-32 -69 -69 -69zM577 198l28 -7l-31 -191h-524v34l55 6c28 3 37 15 37 46v434c0 32 -9 43 -37 46l-55 5v35h494l33 -164l-30 -9l-51 70c-27 38 -55 50 -104 50h-146v-214h62c69 0 88 12 103 66l10 36h28
v-254h-28l-10 35c-15 52 -35 64 -103 64h-62v-233h176c53 0 82 14 102 50z" />
    <glyph glyph-name="egrave.sc" horiz-adv-x="660" 
d="M242 776c-25 17 -27 48 -10 68c18 22 50 20 69 -4l122 -159l-15 -15zM577 198l28 -7l-31 -191h-524v34l55 6c28 3 37 15 37 46v434c0 32 -9 43 -37 46l-55 5v35h494l33 -164l-30 -9l-51 70c-27 38 -55 50 -104 50h-146v-214h62c69 0 88 12 103 66l10 36h28v-254h-28
l-10 35c-15 52 -35 64 -103 64h-62v-233h176c53 0 82 14 102 50z" />
    <glyph glyph-name="emacron.sc" horiz-adv-x="660" 
d="M525 789v-54h-350v54h350zM577 198l28 -7l-31 -191h-524v34l55 6c28 3 37 15 37 46v434c0 32 -9 43 -37 46l-55 5v35h494l33 -164l-30 -9l-51 70c-27 38 -55 50 -104 50h-146v-214h62c69 0 88 12 103 66l10 36h28v-254h-28l-10 35c-15 52 -35 64 -103 64h-62v-233h176
c53 0 82 14 102 50z" />
    <glyph glyph-name="eogonek.sc" horiz-adv-x="660" 
d="M596 -135l11 -15c-42 -44 -85 -74 -134 -74c-65 0 -127 35 -127 106c0 58 33 88 95 118h-391v34l55 6c28 3 37 15 37 46v434c0 32 -9 43 -37 46l-55 5v35h494l33 -164l-30 -9l-51 70c-27 38 -55 50 -104 50h-146v-214h62c69 0 88 12 103 66l10 36h28v-254h-28l-10 35
c-15 52 -35 64 -103 64h-62v-233h176c53 0 82 14 102 50l53 95l28 -7l-31 -191h-55c-62 -29 -83 -52 -83 -105c0 -44 25 -64 61 -64c28 0 62 7 99 34z" />
    <glyph glyph-name="f.sc" horiz-adv-x="616" 
d="M534 606l33 -167l-28 -7l-53 71c-28 37 -54 50 -103 50h-137v-241h59c69 0 89 12 103 64l10 36h28v-251h-28l-10 33c-16 53 -34 65 -103 65h-59v-173c0 -32 8 -42 37 -45l67 -7v-34h-300v34l55 6c28 3 37 15 37 46v419c0 44 -13 60 -51 63l-41 3v35h484z" />
    <glyph glyph-name="g.sc" horiz-adv-x="721" 
d="M408 292h275v-34l-41 -4c-26 -3 -35 -14 -35 -44v-172c-77 -38 -140 -54 -212 -54c-215 0 -338 115 -338 318c0 193 132 317 339 317c69 0 150 -18 208 -47l14 -163l-35 -5c-40 117 -95 163 -201 163c-136 0 -208 -92 -208 -265c0 -177 70 -265 219 -265
c41 0 78 12 110 33v140c0 30 -10 41 -37 43l-58 5v34z" />
    <glyph glyph-name="gbreve.sc" horiz-adv-x="721" 
d="M385 673c-80 0 -131 48 -145 146l24 6c16 -61 56 -78 121 -78s105 17 121 78l24 -6c-14 -98 -65 -146 -145 -146zM408 292h275v-34l-41 -4c-26 -3 -35 -14 -35 -44v-172c-77 -38 -140 -54 -212 -54c-215 0 -338 115 -338 318c0 193 132 317 339 317c69 0 150 -18 208 -47
l14 -163l-35 -5c-40 117 -95 163 -201 163c-136 0 -208 -92 -208 -265c0 -177 70 -265 219 -265c41 0 78 12 110 33v140c0 30 -10 41 -37 43l-58 5v34z" />
    <glyph glyph-name="gcircumflex.sc" horiz-adv-x="721" 
d="M385 748l-124 -95l-18 15l137 182h12l136 -182l-17 -15zM408 292h275v-34l-41 -4c-26 -3 -35 -14 -35 -44v-172c-77 -38 -140 -54 -212 -54c-215 0 -338 115 -338 318c0 193 132 317 339 317c69 0 150 -18 208 -47l14 -163l-35 -5c-40 117 -95 163 -201 163
c-136 0 -208 -92 -208 -265c0 -177 70 -265 219 -265c41 0 78 12 110 33v140c0 30 -10 41 -37 43l-58 5v34z" />
    <glyph glyph-name="gcommaaccent.sc" horiz-adv-x="721" 
d="M408 292h275v-34l-41 -4c-26 -3 -35 -14 -35 -44v-172c-77 -38 -140 -54 -212 -54c-215 0 -338 115 -338 318c0 193 132 317 339 317c69 0 150 -18 208 -47l14 -163l-35 -5c-40 117 -95 163 -201 163c-136 0 -208 -92 -208 -265c0 -177 70 -265 219 -265
c41 0 78 12 110 33v140c0 30 -10 41 -37 43l-58 5v34zM389 -56c47 0 84 -34 84 -94c0 -78 -51 -122 -156 -147l-10 36c68 21 82 42 82 74c0 35 -18 58 -81 61c0 43 33 70 81 70z" />
    <glyph glyph-name="gdotaccent.sc" horiz-adv-x="721" 
d="M386 700c-39 0 -71 31 -71 69s32 68 71 68c37 0 69 -30 69 -68s-32 -69 -69 -69zM408 292h275v-34l-41 -4c-26 -3 -35 -14 -35 -44v-172c-77 -38 -140 -54 -212 -54c-215 0 -338 115 -338 318c0 193 132 317 339 317c69 0 150 -18 208 -47l14 -163l-35 -5
c-40 117 -95 163 -201 163c-136 0 -208 -92 -208 -265c0 -177 70 -265 219 -265c41 0 78 12 110 33v140c0 30 -10 41 -37 43l-58 5v34z" />
    <glyph glyph-name="h.sc" horiz-adv-x="809" 
d="M705 566c-29 -3 -36 -12 -36 -46v-434c0 -33 8 -43 36 -46l54 -6v-34h-283v34l52 6c29 3 37 13 37 46v200h-319v-200c0 -33 8 -43 37 -46l52 -6v-34h-285v34l55 6c28 3 37 15 37 46v434c0 32 -9 43 -37 46l-55 5v35h285v-35l-52 -5c-29 -3 -37 -13 -37 -46v-181h319v181
c0 33 -8 43 -37 46l-52 5v35h283v-35z" />
    <glyph glyph-name="hbar.sc" horiz-adv-x="818" 
d="M768 437h-98v-351c0 -33 8 -43 36 -46l54 -6v-34h-283v34l52 6c29 3 37 13 37 46v200h-319v-200c0 -33 8 -43 37 -46l52 -6v-34h-285v34l55 6c28 3 37 15 37 46v351h-93v44h93v39c0 32 -9 43 -37 46l-55 5v35h285v-35l-52 -5c-29 -3 -37 -13 -37 -46v-39h319v39
c0 33 -8 43 -37 46l-52 5v35h283v-35l-54 -5c-29 -3 -36 -12 -36 -46v-39h98v-44zM566 339v98h-319v-98h319z" />
    <glyph glyph-name="hcircumflex.sc" horiz-adv-x="809" 
d="M406 748l-124 -95l-18 15l137 182h12l136 -182l-17 -15zM705 566c-29 -3 -36 -12 -36 -46v-434c0 -33 8 -43 36 -46l54 -6v-34h-283v34l52 6c29 3 37 13 37 46v200h-319v-200c0 -33 8 -43 37 -46l52 -6v-34h-285v34l55 6c28 3 37 15 37 46v434c0 32 -9 43 -37 46l-55 5
v35h285v-35l-52 -5c-29 -3 -37 -13 -37 -46v-181h319v181c0 33 -8 43 -37 46l-52 5v35h283v-35z" />
    <glyph glyph-name="i.sc" horiz-adv-x="385" 
d="M50 0v34l55 6c28 3 37 15 37 46v434c0 32 -9 43 -37 46l-55 5v35h285v-35l-52 -5c-29 -3 -37 -13 -37 -46v-434c0 -33 8 -43 37 -46l52 -6v-34h-285z" />
    <glyph glyph-name="iacute.sc" horiz-adv-x="385" 
d="M148 666l-15 15l122 159c19 24 51 26 69 4c17 -20 15 -51 -10 -68zM50 0v34l55 6c28 3 37 15 37 46v434c0 32 -9 43 -37 46l-55 5v35h285v-35l-52 -5c-29 -3 -37 -13 -37 -46v-434c0 -33 8 -43 37 -46l52 -6v-34h-285z" />
    <glyph glyph-name="ibreve.sc" horiz-adv-x="385" 
d="M193 673c80 0 131 48 145 146l-24 6c-16 -61 -56 -78 -121 -78s-105 17 -121 78l-24 -6c14 -98 65 -146 145 -146zM50 0v34l55 6c28 3 37 15 37 46v434c0 32 -9 43 -37 46l-55 5v35h285v-35l-52 -5c-29 -3 -37 -13 -37 -46v-434c0 -33 8 -43 37 -46l52 -6v-34h-285z" />
    <glyph glyph-name="icircumflex.sc" horiz-adv-x="385" 
d="M193 748l-124 -95l-18 15l137 182h12l136 -182l-17 -15zM50 571v35h285v-35l-52 -5c-29 -3 -37 -13 -37 -46v-434c0 -33 8 -43 37 -46l52 -6v-34h-285v34l55 6c28 3 37 15 37 46v434c0 32 -9 43 -37 46z" />
    <glyph glyph-name="idieresis.sc" horiz-adv-x="385" 
d="M101 707c-31 0 -56 26 -56 57s25 58 56 58c32 0 58 -27 58 -58s-26 -57 -58 -57zM286 708c-34 0 -59 26 -59 56c0 31 25 57 59 57c29 0 55 -26 55 -57c0 -30 -26 -56 -55 -56zM50 0v34l55 6c28 3 37 15 37 46v434c0 32 -9 43 -37 46l-55 5v35h285v-35l-52 -5
c-29 -3 -37 -13 -37 -46v-434c0 -33 8 -43 37 -46l52 -6v-34h-285z" />
    <glyph glyph-name="i.sc.loclTRK" horiz-adv-x="385" 
d="M194 700c-39 0 -71 31 -71 69s32 68 71 68c37 0 69 -30 69 -68s-32 -69 -69 -69zM50 0v34l55 6c28 3 37 15 37 46v434c0 32 -9 43 -37 46l-55 5v35h285v-35l-52 -5c-29 -3 -37 -13 -37 -46v-434c0 -33 8 -43 37 -46l52 -6v-34h-285z" />
    <glyph glyph-name="igrave.sc" horiz-adv-x="385" 
d="M251 666l-166 110c-25 17 -27 48 -10 68c18 22 50 20 69 -4l122 -159zM50 0v34l55 6c28 3 37 15 37 46v434c0 32 -9 43 -37 46l-55 5v35h285v-35l-52 -5c-29 -3 -37 -13 -37 -46v-434c0 -33 8 -43 37 -46l52 -6v-34h-285z" />
    <glyph glyph-name="imacron.sc" horiz-adv-x="385" 
d="M18 789h350v-54h-350v54zM50 0v34l55 6c28 3 37 15 37 46v434c0 32 -9 43 -37 46l-55 5v35h285v-35l-52 -5c-29 -3 -37 -13 -37 -46v-434c0 -33 8 -43 37 -46l52 -6v-34h-285z" />
    <glyph glyph-name="iogonek.sc" horiz-adv-x="385" 
d="M283 566c-29 -3 -37 -13 -37 -46v-434c0 -33 8 -43 37 -46l52 -6v-34h-101c-62 -29 -83 -52 -83 -105c0 -44 25 -64 61 -64c28 0 62 7 99 34l11 -15c-42 -44 -85 -74 -134 -74c-65 0 -127 35 -127 106c0 58 33 88 95 118h-106v34l55 6c28 3 37 15 37 46v434
c0 32 -9 43 -37 46l-55 5v35h285v-35z" />
    <glyph glyph-name="j.sc" horiz-adv-x="359" 
d="M10 -142l-25 41c112 57 146 112 146 240v381c0 33 -8 43 -37 46l-53 5v35h283v-35l-52 -5c-29 -3 -37 -13 -37 -46v-354c0 -148 -50 -217 -225 -308z" />
    <glyph glyph-name="jcircumflex.sc" horiz-adv-x="359" 
d="M184 748l-124 -95l-18 15l137 182h12l136 -182l-17 -15zM41 571v35h283v-35l-52 -5c-29 -3 -37 -13 -37 -46v-354c0 -148 -50 -217 -225 -308l-25 41c112 57 146 112 146 240v381c0 33 -8 43 -37 46z" />
    <glyph glyph-name="k.sc" horiz-adv-x="667" 
d="M246 86c0 -33 8 -43 37 -46l52 -6v-34h-285v34l55 6c28 3 37 15 37 46v434c0 32 -9 43 -37 46l-55 5v35h285v-35l-52 -5c-29 -3 -37 -13 -37 -46v-434zM627 40l22 -6v-34h-146l-239 313v13l192 199c18 18 13 31 -11 36l-44 10v35h221v-35l-33 -8c-27 -7 -44 -19 -73 -48
l-157 -162l225 -287c10 -13 21 -20 43 -26z" />
    <glyph glyph-name="kcommaaccent.sc" horiz-adv-x="667" 
d="M335 34v-34h-285v34l55 6c28 3 37 15 37 46v434c0 32 -9 43 -37 46l-55 5v35h285v-35l-52 -5c-29 -3 -37 -13 -37 -46v-434c0 -33 8 -43 37 -46zM627 40l22 -6v-34h-146l-239 313v13l192 199c18 18 13 31 -11 36l-44 10v35h221v-35l-33 -8c-27 -7 -44 -19 -73 -48
l-157 -162l225 -287c10 -13 21 -20 43 -26zM372 -56c47 0 84 -34 84 -94c0 -78 -51 -122 -156 -147l-10 36c68 21 82 42 82 74c0 35 -18 58 -81 61c0 43 33 70 81 70z" />
    <glyph glyph-name="l.sc" horiz-adv-x="607" 
d="M557 215l28 -7l-35 -208h-500v34l48 5c34 4 43 14 43 47v434c0 32 -9 43 -38 46l-53 6v34h298v-34l-67 -6c-27 -2 -36 -15 -36 -47v-466h158c56 0 80 13 106 65z" />
    <glyph glyph-name="lacute.sc" horiz-adv-x="607" 
d="M317 776l-166 -110l-15 15l122 159c19 24 51 26 69 4c17 -20 15 -51 -10 -68zM557 215l28 -7l-35 -208h-500v34l48 5c34 4 43 14 43 47v434c0 32 -9 43 -38 46l-53 6v34h298v-34l-67 -6c-27 -2 -36 -15 -36 -47v-466h158c56 0 80 13 106 65z" />
    <glyph glyph-name="lcaron.sc" horiz-adv-x="607" 
d="M509 602l-88 -178l-21 5l26 199c5 30 31 48 58 38c25 -9 38 -37 25 -64zM557 215l28 -7l-35 -208h-500v34l48 5c34 4 43 14 43 47v434c0 32 -9 43 -38 46l-53 6v34h298v-34l-67 -6c-27 -2 -36 -15 -36 -47v-466h158c56 0 80 13 106 65z" />
    <glyph glyph-name="lcommaaccent.sc" horiz-adv-x="607" 
d="M557 215l28 -7l-35 -208h-500v34l48 5c34 4 43 14 43 47v434c0 32 -9 43 -38 46l-53 6v34h298v-34l-67 -6c-27 -2 -36 -15 -36 -47v-466h158c56 0 80 13 106 65zM307 -56c47 0 84 -34 84 -94c0 -78 -51 -122 -156 -147l-10 36c68 21 82 42 82 74c0 35 -18 58 -81 61
c0 43 33 70 81 70z" />
    <glyph glyph-name="lslash.sc" horiz-adv-x="607" 
d="M557 215l28 -7l-35 -208h-500v34l48 5c34 4 43 14 43 47v143l-79 -39l-18 38l97 47v245c0 32 -9 43 -38 46l-53 6v34h298v-34l-67 -6c-27 -2 -36 -15 -36 -47v-200l170 83l19 -38l-189 -91v-220h158c56 0 80 13 106 65z" />
    <glyph glyph-name="m.sc" horiz-adv-x="921" 
d="M846 38l37 -4v-34h-272v34l34 4c39 5 53 21 49 61l-43 384h-7l-188 -483h-28l-197 482h-6l-46 -379c-5 -42 5 -49 63 -61l38 -8v-34h-242v34l28 7c36 9 50 23 55 63l53 405c5 38 -10 56 -49 59l-39 3v35h201l178 -434l169 434h198v-35l-37 -3c-40 -3 -54 -19 -49 -60
l49 -411c5 -43 16 -55 51 -59z" />
    <glyph glyph-name="n.sc" horiz-adv-x="751" 
d="M456 606h253v-35l-32 -6c-39 -7 -60 -27 -60 -64v-504h-33l-382 493h-3v-384c0 -45 11 -53 67 -65l37 -8v-33h-253v34l33 7c38 8 59 22 59 59v420c0 32 -9 43 -39 46l-53 5v35h192l314 -413h4v306c0 41 -19 54 -73 66l-31 7v34z" />
    <glyph glyph-name="nacute.sc" horiz-adv-x="751" 
d="M488 776l-166 -110l-15 15l122 159c19 24 51 26 69 4c17 -20 15 -51 -10 -68zM456 606h253v-35l-32 -6c-39 -7 -60 -27 -60 -64v-504h-33l-382 493h-3v-384c0 -45 11 -53 67 -65l37 -8v-33h-253v34l33 7c38 8 59 22 59 59v420c0 32 -9 43 -39 46l-53 5v35h192l314 -413h4
v306c0 41 -19 54 -73 66l-31 7v34z" />
    <glyph glyph-name="ncaron.sc" horiz-adv-x="751" 
d="M374 677h-12l-130 173l17 14l118 -91l120 91l16 -14zM456 606h253v-35l-32 -6c-39 -7 -60 -27 -60 -64v-504h-33l-382 493h-3v-384c0 -45 11 -53 67 -65l37 -8v-33h-253v34l33 7c38 8 59 22 59 59v420c0 32 -9 43 -39 46l-53 5v35h192l314 -413h4v306c0 41 -19 54 -73 66
l-31 7v34z" />
    <glyph glyph-name="ncommaaccent.sc" horiz-adv-x="751" 
d="M456 606h253v-35l-32 -6c-39 -7 -60 -27 -60 -64v-504h-33l-382 493h-3v-384c0 -45 11 -53 67 -65l37 -8v-33h-253v34l33 7c38 8 59 22 59 59v420c0 32 -9 43 -39 46l-53 5v35h192l314 -413h4v306c0 41 -19 54 -73 66l-31 7v34zM369 -56c47 0 84 -34 84 -94
c0 -78 -51 -122 -156 -147l-10 36c68 21 82 42 82 74c0 35 -18 58 -81 61c0 43 33 70 81 70z" />
    <glyph glyph-name="eng.sc" horiz-adv-x="751" 
d="M456 606h253v-35l-32 -6c-39 -7 -60 -27 -60 -64v-521c0 -122 -55 -203 -173 -203c-54 0 -101 13 -124 28l37 75c34 -28 77 -46 103 -47c51 -2 100 46 100 133v67l-357 457h-4v-384c0 -45 11 -53 67 -65l37 -8v-33h-253v34l32 6c38 7 60 28 60 65v415c0 32 -9 43 -39 46
l-53 5v35h191l315 -410h4v303c0 41 -19 54 -73 66l-31 7v34z" />
    <glyph glyph-name="uni0272.sc" horiz-adv-x="747" 
d="M452 606h253v-35l-32 -6c-39 -7 -60 -27 -60 -64v-504h-32l-393 497h-1v-514c0 -122 -55 -203 -173 -203c-54 0 -101 13 -124 28l37 75c34 -28 77 -46 103 -47c51 -2 100 46 100 133v554c0 32 -9 43 -39 46l-53 5v35h192l322 -414h4v307c0 41 -19 54 -73 66l-31 7v34z
" />
    <glyph glyph-name="ntilde.sc" horiz-adv-x="751" 
d="M282 738c-28 0 -46 -19 -62 -53l-23 8c12 43 42 116 94 116c28 0 60 -16 92 -31c30 -14 61 -27 87 -27c27 0 43 20 61 54l23 -10c-13 -43 -43 -115 -94 -115c-26 0 -56 14 -86 28c-32 15 -64 30 -92 30zM456 606h253v-35l-32 -6c-39 -7 -60 -27 -60 -64v-504h-33
l-382 493h-3v-384c0 -45 11 -53 67 -65l37 -8v-33h-253v34l33 7c38 8 59 22 59 59v420c0 32 -9 43 -39 46l-53 5v35h192l314 -413h4v306c0 41 -19 54 -73 66l-31 7v34z" />
    <glyph glyph-name="o.sc" horiz-adv-x="697" 
d="M340 -16c-172 0 -283 125 -283 318c0 196 114 317 299 317c172 0 284 -125 284 -317c0 -197 -114 -318 -300 -318zM356 35c109 0 167 93 167 266c0 177 -61 266 -183 266c-108 0 -166 -93 -166 -266c0 -178 60 -266 182 -266z" />
    <glyph glyph-name="oacute.sc" horiz-adv-x="697" 
d="M310 666l-15 15l122 159c19 24 51 26 69 4c17 -20 15 -51 -10 -68zM340 -16c-172 0 -283 125 -283 318c0 196 114 317 299 317c172 0 284 -125 284 -317c0 -197 -114 -318 -300 -318zM356 35c109 0 167 93 167 266c0 177 -61 266 -183 266c-108 0 -166 -93 -166 -266
c0 -178 60 -266 182 -266z" />
    <glyph glyph-name="ocircumflex.sc" horiz-adv-x="697" 
d="M355 748l-124 -95l-18 15l137 182h12l136 -182l-17 -15zM356 619c172 0 284 -125 284 -317c0 -197 -114 -318 -300 -318c-172 0 -283 125 -283 318c0 196 114 317 299 317zM356 35c109 0 167 93 167 266c0 177 -61 266 -183 266c-108 0 -166 -93 -166 -266
c0 -178 60 -266 182 -266z" />
    <glyph glyph-name="odieresis.sc" horiz-adv-x="697" 
d="M263 707c-31 0 -56 26 -56 57s25 58 56 58c32 0 58 -27 58 -58s-26 -57 -58 -57zM448 708c-34 0 -59 26 -59 56c0 31 25 57 59 57c29 0 55 -26 55 -57c0 -30 -26 -56 -55 -56zM340 -16c-172 0 -283 125 -283 318c0 196 114 317 299 317c172 0 284 -125 284 -317
c0 -197 -114 -318 -300 -318zM356 35c109 0 167 93 167 266c0 177 -61 266 -183 266c-108 0 -166 -93 -166 -266c0 -178 60 -266 182 -266z" />
    <glyph glyph-name="uni1ECD.sc" horiz-adv-x="697" 
d="M340 -16c-172 0 -283 125 -283 318c0 196 114 317 299 317c172 0 284 -125 284 -317c0 -197 -114 -318 -300 -318zM356 35c109 0 167 93 167 266c0 177 -61 266 -183 266c-108 0 -166 -93 -166 -266c0 -178 60 -266 182 -266zM359 -207c-37 0 -67 29 -67 65
c0 37 30 65 67 65c35 0 65 -28 65 -65c0 -36 -30 -65 -65 -65z" />
    <glyph glyph-name="ograve.sc" horiz-adv-x="697" 
d="M413 666l-166 110c-25 17 -27 48 -10 68c18 22 50 20 69 -4l122 -159zM340 -16c-172 0 -283 125 -283 318c0 196 114 317 299 317c172 0 284 -125 284 -317c0 -197 -114 -318 -300 -318zM356 35c109 0 167 93 167 266c0 177 -61 266 -183 266c-108 0 -166 -93 -166 -266
c0 -178 60 -266 182 -266z" />
    <glyph glyph-name="ohungarumlaut.sc" horiz-adv-x="697" 
d="M231 663l-14 14l116 151c18 23 48 25 65 4c17 -19 15 -49 -9 -65zM403 663l-14 14l116 151c18 23 48 25 65 4c17 -19 15 -49 -9 -65zM340 -16c-172 0 -283 125 -283 318c0 196 114 317 299 317c172 0 284 -125 284 -317c0 -197 -114 -318 -300 -318zM356 35
c109 0 167 93 167 266c0 177 -61 266 -183 266c-108 0 -166 -93 -166 -266c0 -178 60 -266 182 -266z" />
    <glyph glyph-name="omacron.sc" horiz-adv-x="697" 
d="M180 789h350v-54h-350v54zM340 -16c-172 0 -283 125 -283 318c0 196 114 317 299 317c172 0 284 -125 284 -317c0 -197 -114 -318 -300 -318zM356 35c109 0 167 93 167 266c0 177 -61 266 -183 266c-108 0 -166 -93 -166 -266c0 -178 60 -266 182 -266z" />
    <glyph glyph-name="uni01EB.sc" horiz-adv-x="697" 
d="M640 302c0 -152 -68 -259 -185 -300l2 -2c-64 -29 -85 -52 -85 -106c0 -44 25 -64 61 -64c28 0 62 7 99 34l11 -15c-42 -44 -85 -74 -134 -74c-65 0 -127 35 -127 106c0 48 23 77 67 103h-9c-172 0 -283 125 -283 318c0 196 114 317 299 317c172 0 284 -125 284 -317z
M356 35c109 0 167 93 167 266c0 177 -61 266 -183 266c-108 0 -166 -93 -166 -266c0 -178 60 -266 182 -266z" />
    <glyph glyph-name="oslash.sc" horiz-adv-x="697" 
d="M539 555c64 -55 101 -143 101 -253c0 -197 -114 -318 -300 -318c-49 0 -94 10 -132 29l-58 -95l-37 22l59 96c-73 54 -115 147 -115 266c0 196 114 317 299 317c57 0 107 -14 148 -39l54 88l37 -22zM174 301c0 -85 14 -150 41 -194l250 409c-30 34 -72 51 -125 51
c-108 0 -166 -93 -166 -266zM356 35c109 0 167 93 167 266c0 74 -11 132 -32 175l-247 -403c29 -26 66 -38 112 -38z" />
    <glyph glyph-name="oslashacute.sc" horiz-adv-x="697" 
d="M479 761l-166 -110l-15 15l122 159c19 24 51 26 69 4c17 -20 15 -51 -10 -68zM539 555c64 -55 101 -143 101 -253c0 -197 -114 -318 -300 -318c-49 0 -94 10 -132 29l-58 -95l-37 22l59 96c-73 54 -115 147 -115 266c0 196 114 317 299 317c57 0 107 -14 148 -39l54 88
l37 -22zM174 301c0 -85 14 -150 41 -194l250 409c-30 34 -72 51 -125 51c-108 0 -166 -93 -166 -266zM356 35c109 0 167 93 167 266c0 74 -11 132 -32 175l-247 -403c29 -26 66 -38 112 -38z" />
    <glyph glyph-name="otilde.sc" horiz-adv-x="697" 
d="M448 680c-26 0 -56 14 -86 28c-32 15 -64 30 -92 30s-46 -19 -62 -53l-23 8c12 43 42 116 94 116c28 0 60 -16 92 -31c30 -14 61 -27 87 -27c27 0 43 20 61 54l23 -10c-13 -43 -43 -115 -94 -115zM340 -16c-172 0 -283 125 -283 318c0 196 114 317 299 317
c172 0 284 -125 284 -317c0 -197 -114 -318 -300 -318zM356 35c109 0 167 93 167 266c0 177 -61 266 -183 266c-108 0 -166 -93 -166 -266c0 -178 60 -266 182 -266z" />
    <glyph glyph-name="oe.sc" horiz-adv-x="1008" 
d="M953 191l-32 -191h-476c-32 -11 -68 -16 -107 -16c-171 0 -281 125 -281 318c0 196 113 317 296 317c32 0 62 -4 90 -13h449l33 -164l-30 -9l-53 73c-26 36 -54 47 -103 47h-201c55 -49 89 -124 96 -216h21c70 0 90 13 104 66l9 34h29v-252h-29l-9 35
c-13 52 -33 64 -104 64h-20c-4 -100 -38 -179 -96 -231h229c54 0 83 14 103 50l53 95zM174 302c0 -177 61 -266 178 -266c104 0 165 94 165 266c0 176 -63 265 -180 265c-104 0 -163 -92 -163 -265z" />
    <glyph glyph-name="p.sc" horiz-adv-x="614" 
d="M304 297c98 0 153 45 153 138c0 82 -47 118 -144 118h-67v-468c0 -33 8 -42 37 -45l66 -6v-34h-299v34l55 6c28 3 37 13 37 45v435c0 32 -8 43 -37 46l-55 5v35h294c153 0 230 -53 230 -159c0 -124 -96 -192 -271 -192h-10v42h11z" />
    <glyph glyph-name="thorn.sc" horiz-adv-x="614" 
d="M304 186c97 0 153 45 153 138c0 82 -48 118 -144 118h-67v-356c0 -33 8 -43 37 -46l52 -6v-34h-285v34l55 6c28 3 37 15 37 46v434c0 32 -9 43 -37 46l-55 5v35h285v-35l-52 -5c-29 -3 -37 -13 -37 -46v-25h98c153 0 230 -53 230 -159c0 -124 -96 -192 -271 -192h-10v42
h11z" />
    <glyph glyph-name="q.sc" horiz-adv-x="697" 
d="M503 -95c44 -47 87 -68 150 -75v-32c-44 -10 -68 -14 -89 -14c-77 0 -130 27 -165 83l-72 117c-165 6 -270 130 -270 318c0 196 114 317 299 317c172 0 284 -125 284 -317c0 -167 -82 -279 -220 -310zM174 301c0 -178 60 -266 182 -266c109 0 167 93 167 266
c0 177 -61 266 -183 266c-108 0 -166 -93 -166 -266z" />
    <glyph glyph-name="r.sc" horiz-adv-x="662" 
d="M617 39l23 -5v-34h-147l-210 299v22h27c91 0 143 42 143 127c0 72 -46 105 -149 105h-58v-468c0 -33 8 -42 37 -45l52 -6v-34h-285v34l55 6c28 3 37 13 37 45v435c0 32 -8 43 -37 46l-55 5v35h317c122 0 201 -57 201 -144c0 -91 -60 -148 -168 -162l167 -223
c18 -24 31 -34 50 -38z" />
    <glyph glyph-name="racute.sc" horiz-adv-x="662" 
d="M452 776l-166 -110l-15 15l122 159c19 24 51 26 69 4c17 -20 15 -51 -10 -68zM617 39l23 -5v-34h-147l-210 299v22h27c91 0 143 42 143 127c0 72 -46 105 -149 105h-58v-468c0 -33 8 -42 37 -45l52 -6v-34h-285v34l55 6c28 3 37 13 37 45v435c0 32 -8 43 -37 46l-55 5v35
h317c122 0 201 -57 201 -144c0 -91 -60 -148 -168 -162l167 -223c18 -24 31 -34 50 -38z" />
    <glyph glyph-name="rcaron.sc" horiz-adv-x="662" 
d="M338 677h-12l-130 173l17 14l118 -91l120 91l16 -14zM617 39l23 -5v-34h-147l-210 299v22h27c91 0 143 42 143 127c0 72 -46 105 -149 105h-58v-468c0 -33 8 -42 37 -45l52 -6v-34h-285v34l55 6c28 3 37 13 37 45v435c0 32 -8 43 -37 46l-55 5v35h317
c122 0 201 -57 201 -144c0 -91 -60 -148 -168 -162l167 -223c18 -24 31 -34 50 -38z" />
    <glyph glyph-name="rcommaaccent.sc" horiz-adv-x="662" 
d="M617 39l23 -5v-34h-147l-210 299v22h27c91 0 143 42 143 127c0 72 -46 105 -149 105h-58v-468c0 -33 8 -42 37 -45l52 -6v-34h-285v34l55 6c28 3 37 13 37 45v435c0 32 -8 43 -37 46l-55 5v35h317c122 0 201 -57 201 -144c0 -91 -60 -148 -168 -162l167 -223
c18 -24 31 -34 50 -38zM368 -56c47 0 84 -34 84 -94c0 -78 -51 -122 -156 -147l-10 36c68 21 82 42 82 74c0 35 -18 58 -81 61c0 43 33 70 81 70z" />
    <glyph glyph-name="s.sc" horiz-adv-x="514" 
d="M233 -16c-59 0 -118 16 -172 45l-17 149l35 6c36 -109 84 -149 173 -149c74 0 115 37 115 105c0 44 -24 79 -81 105l-89 41c-94 43 -132 92 -132 165c0 98 89 168 218 168c51 0 111 -13 153 -35l14 -143l-34 -7c-31 92 -70 134 -145 134c-61 0 -110 -35 -110 -91
c0 -46 21 -72 90 -105l81 -39c95 -46 130 -92 130 -160c0 -114 -91 -189 -229 -189z" />
    <glyph glyph-name="sacute.sc" horiz-adv-x="514" 
d="M238 666l-15 15l122 159c19 24 51 26 69 4c17 -20 15 -51 -10 -68zM233 -16c-59 0 -118 16 -172 45l-17 149l35 6c36 -109 84 -149 173 -149c74 0 115 37 115 105c0 44 -24 79 -81 105l-89 41c-94 43 -132 92 -132 165c0 98 89 168 218 168c51 0 111 -13 153 -35l14 -143
l-34 -7c-31 92 -70 134 -145 134c-61 0 -110 -35 -110 -91c0 -46 21 -72 90 -105l81 -39c95 -46 130 -92 130 -160c0 -114 -91 -189 -229 -189z" />
    <glyph glyph-name="scaron.sc" horiz-adv-x="514" 
d="M290 677h-12l-130 173l17 14l118 -91l120 91l16 -14zM332 333c95 -46 130 -92 130 -160c0 -114 -91 -189 -229 -189c-59 0 -118 16 -172 45l-17 149l35 6c36 -109 84 -149 173 -149c74 0 115 37 115 105c0 44 -24 79 -81 105l-89 41c-94 43 -132 92 -132 165
c0 98 89 168 218 168c51 0 111 -13 153 -35l14 -143l-34 -7c-31 92 -70 134 -145 134c-61 0 -110 -35 -110 -91c0 -46 21 -72 90 -105z" />
    <glyph glyph-name="scedilla.sc" horiz-adv-x="514" 
d="M462 173c0 -106 -78 -178 -200 -188l-9 -30c82 -7 119 -42 119 -83c0 -58 -76 -122 -216 -122v24c87 10 119 34 119 64c0 27 -20 48 -86 53l28 93c-54 3 -107 19 -156 45l-17 149l35 6c36 -109 84 -149 173 -149c74 0 115 37 115 105c0 44 -24 79 -81 105l-89 41
c-94 43 -132 92 -132 165c0 98 89 168 218 168c51 0 111 -13 153 -35l14 -143l-34 -7c-31 92 -70 134 -145 134c-61 0 -110 -35 -110 -91c0 -46 21 -72 90 -105l81 -39c95 -46 130 -92 130 -160z" />
    <glyph glyph-name="scircumflex.sc" horiz-adv-x="514" 
d="M283 748l-124 -95l-18 15l137 182h12l136 -182l-17 -15zM332 333c95 -46 130 -92 130 -160c0 -114 -91 -189 -229 -189c-59 0 -118 16 -172 45l-17 149l35 6c36 -109 84 -149 173 -149c74 0 115 37 115 105c0 44 -24 79 -81 105l-89 41c-94 43 -132 92 -132 165
c0 98 89 168 218 168c51 0 111 -13 153 -35l14 -143l-34 -7c-31 92 -70 134 -145 134c-61 0 -110 -35 -110 -91c0 -46 21 -72 90 -105z" />
    <glyph glyph-name="scommaaccent.sc" horiz-adv-x="514" 
d="M233 -16c-59 0 -118 16 -172 45l-17 149l35 6c36 -109 84 -149 173 -149c74 0 115 37 115 105c0 44 -24 79 -81 105l-89 41c-94 43 -132 92 -132 165c0 98 89 168 218 168c51 0 111 -13 153 -35l14 -143l-34 -7c-31 92 -70 134 -145 134c-61 0 -110 -35 -110 -91
c0 -46 21 -72 90 -105l81 -39c95 -46 130 -92 130 -160c0 -114 -91 -189 -229 -189zM191 -297l-10 36c68 21 82 42 82 74c0 35 -18 58 -81 61c0 43 33 70 81 70c47 0 84 -34 84 -94c0 -78 -51 -122 -156 -147z" />
    <glyph glyph-name="t.sc" horiz-adv-x="678" 
d="M601 606l33 -186l-30 -8l-53 91c-22 38 -47 50 -100 50h-59v-467c0 -33 8 -43 36 -46l53 -6v-34h-284v34l53 6c28 3 38 15 38 46v467h-61c-54 0 -81 -13 -102 -50l-52 -91l-29 8l33 186h524z" />
    <glyph glyph-name="tbar.sc" horiz-adv-x="678" 
d="M601 606l33 -186l-30 -8l-53 91c-22 38 -47 50 -100 50h-59v-210h133v-43h-133v-214c0 -33 8 -43 36 -46l53 -6v-34h-284v34l53 6c28 3 38 15 38 46v214h-131v43h131v210h-61c-54 0 -81 -13 -102 -50l-52 -91l-29 8l33 186h524z" />
    <glyph glyph-name="tcaron.sc" horiz-adv-x="678" 
d="M345 677h-12l-130 173l17 14l118 -91l120 91l16 -14zM601 606l33 -186l-30 -8l-53 91c-22 38 -47 50 -100 50h-59v-467c0 -33 8 -43 36 -46l53 -6v-34h-284v34l53 6c28 3 38 15 38 46v467h-61c-54 0 -81 -13 -102 -50l-52 -91l-29 8l33 186h524z" />
    <glyph glyph-name="uni0163.sc" horiz-adv-x="678" 
d="M601 606l33 -186l-30 -8l-53 91c-22 38 -47 50 -100 50h-59v-467c0 -33 8 -43 36 -46l53 -6v-34h-130l-14 -45c82 -7 119 -42 119 -83c0 -58 -76 -122 -216 -122v24c87 10 119 34 119 64c0 27 -20 48 -86 53l33 109h-109v34l53 6c28 3 38 15 38 46v467h-61
c-54 0 -81 -13 -102 -50l-52 -91l-29 8l33 186h524z" />
    <glyph glyph-name="uni021B.sc" horiz-adv-x="678" 
d="M601 606l33 -186l-30 -8l-53 91c-22 38 -47 50 -100 50h-59v-467c0 -33 8 -43 36 -46l53 -6v-34h-284v34l53 6c28 3 38 15 38 46v467h-61c-54 0 -81 -13 -102 -50l-52 -91l-29 8l33 186h524zM347 -56c47 0 84 -34 84 -94c0 -78 -51 -122 -156 -147l-10 36
c68 21 82 42 82 74c0 35 -18 58 -81 61c0 43 33 70 81 70z" />
    <glyph glyph-name="u.sc" horiz-adv-x="718" 
d="M369 -16c-152 0 -237 85 -237 239v296c0 34 -9 46 -39 48l-50 4v35h281v-35l-49 -4c-29 -2 -39 -15 -39 -48v-301c0 -103 57 -166 152 -166s154 66 154 172v284c0 35 -9 47 -40 53l-51 10v35h224v-36l-36 -7c-30 -6 -40 -19 -40 -53v-287c0 -155 -80 -239 -230 -239z" />
    <glyph glyph-name="uacute.sc" horiz-adv-x="718" 
d="M348 666l-15 15l122 159c19 24 51 26 69 4c17 -20 15 -51 -10 -68zM369 -16c-152 0 -237 85 -237 239v296c0 34 -9 46 -39 48l-50 4v35h281v-35l-49 -4c-29 -2 -39 -15 -39 -48v-301c0 -103 57 -166 152 -166s154 66 154 172v284c0 35 -9 47 -40 53l-51 10v35h224v-36
l-36 -7c-30 -6 -40 -19 -40 -53v-287c0 -155 -80 -239 -230 -239z" />
    <glyph glyph-name="ubreve.sc" horiz-adv-x="718" 
d="M393 673c80 0 131 48 145 146l-24 6c-16 -61 -56 -78 -121 -78s-105 17 -121 78l-24 -6c14 -98 65 -146 145 -146zM369 -16c-152 0 -237 85 -237 239v296c0 34 -9 46 -39 48l-50 4v35h281v-35l-49 -4c-29 -2 -39 -15 -39 -48v-301c0 -103 57 -166 152 -166
s154 66 154 172v284c0 35 -9 47 -40 53l-51 10v35h224v-36l-36 -7c-30 -6 -40 -19 -40 -53v-287c0 -155 -80 -239 -230 -239z" />
    <glyph glyph-name="ucircumflex.sc" horiz-adv-x="718" 
d="M393 748l-124 -95l-18 15l137 182h12l136 -182l-17 -15zM451 606h224v-36l-36 -7c-30 -6 -40 -19 -40 -53v-287c0 -155 -80 -239 -230 -239c-152 0 -237 85 -237 239v296c0 34 -9 46 -39 48l-50 4v35h281v-35l-49 -4c-29 -2 -39 -15 -39 -48v-301
c0 -103 57 -166 152 -166s154 66 154 172v284c0 35 -9 47 -40 53l-51 10v35z" />
    <glyph glyph-name="udieresis.sc" horiz-adv-x="718" 
d="M301 707c-31 0 -56 26 -56 57s25 58 56 58c32 0 58 -27 58 -58s-26 -57 -58 -57zM486 708c-34 0 -59 26 -59 56c0 31 25 57 59 57c29 0 55 -26 55 -57c0 -30 -26 -56 -55 -56zM369 -16c-152 0 -237 85 -237 239v296c0 34 -9 46 -39 48l-50 4v35h281v-35l-49 -4
c-29 -2 -39 -15 -39 -48v-301c0 -103 57 -166 152 -166s154 66 154 172v284c0 35 -9 47 -40 53l-51 10v35h224v-36l-36 -7c-30 -6 -40 -19 -40 -53v-287c0 -155 -80 -239 -230 -239z" />
    <glyph glyph-name="uni1EE5.sc" horiz-adv-x="718" 
d="M369 -16c-152 0 -237 85 -237 239v296c0 34 -9 46 -39 48l-50 4v35h281v-35l-49 -4c-29 -2 -39 -15 -39 -48v-301c0 -103 57 -166 152 -166s154 66 154 172v284c0 35 -9 47 -40 53l-51 10v35h224v-36l-36 -7c-30 -6 -40 -19 -40 -53v-287c0 -155 -80 -239 -230 -239z
M373 -207c-37 0 -67 29 -67 65c0 37 30 65 67 65c35 0 65 -28 65 -65c0 -36 -30 -65 -65 -65z" />
    <glyph glyph-name="ugrave.sc" horiz-adv-x="718" 
d="M451 666l-166 110c-25 17 -27 48 -10 68c18 22 50 20 69 -4l122 -159zM369 -16c-152 0 -237 85 -237 239v296c0 34 -9 46 -39 48l-50 4v35h281v-35l-49 -4c-29 -2 -39 -15 -39 -48v-301c0 -103 57 -166 152 -166s154 66 154 172v284c0 35 -9 47 -40 53l-51 10v35h224v-36
l-36 -7c-30 -6 -40 -19 -40 -53v-287c0 -155 -80 -239 -230 -239z" />
    <glyph glyph-name="uhungarumlaut.sc" horiz-adv-x="718" 
d="M269 663l-14 14l116 151c18 23 48 25 65 4c17 -19 15 -49 -9 -65zM441 663l-14 14l116 151c18 23 48 25 65 4c17 -19 15 -49 -9 -65zM369 -16c-152 0 -237 85 -237 239v296c0 34 -9 46 -39 48l-50 4v35h281v-35l-49 -4c-29 -2 -39 -15 -39 -48v-301
c0 -103 57 -166 152 -166s154 66 154 172v284c0 35 -9 47 -40 53l-51 10v35h224v-36l-36 -7c-30 -6 -40 -19 -40 -53v-287c0 -155 -80 -239 -230 -239z" />
    <glyph glyph-name="umacron.sc" horiz-adv-x="718" 
d="M218 789h350v-54h-350v54zM369 -16c-152 0 -237 85 -237 239v296c0 34 -9 46 -39 48l-50 4v35h281v-35l-49 -4c-29 -2 -39 -15 -39 -48v-301c0 -103 57 -166 152 -166s154 66 154 172v284c0 35 -9 47 -40 53l-51 10v35h224v-36l-36 -7c-30 -6 -40 -19 -40 -53v-287
c0 -155 -80 -239 -230 -239z" />
    <glyph glyph-name="uogonek.sc" horiz-adv-x="718" 
d="M451 606h224v-36l-36 -7c-30 -6 -40 -19 -40 -53v-287c0 -127 -54 -206 -155 -231c-52 -25 -69 -49 -69 -98c0 -44 25 -64 61 -64c28 0 62 7 99 34l11 -15c-42 -44 -85 -74 -134 -74c-65 0 -127 35 -127 106c0 48 23 78 68 103c-142 6 -221 91 -221 239v296
c0 34 -9 46 -39 48l-50 4v35h281v-35l-49 -4c-29 -2 -39 -15 -39 -48v-301c0 -103 57 -166 152 -166s154 66 154 172v284c0 35 -9 47 -40 53l-51 10v35z" />
    <glyph glyph-name="uring.sc" horiz-adv-x="718" 
d="M391 638c-68 0 -100 48 -100 101c0 58 40 101 104 101c68 0 100 -47 100 -102c0 -57 -39 -100 -104 -100zM395 669c33 0 46 19 46 62c0 52 -14 77 -50 77c-33 0 -46 -20 -46 -62c0 -51 14 -77 50 -77zM369 -16c-152 0 -237 85 -237 239v296c0 34 -9 46 -39 48l-50 4v35
h281v-35l-49 -4c-29 -2 -39 -15 -39 -48v-301c0 -103 57 -166 152 -166s154 66 154 172v284c0 35 -9 47 -40 53l-51 10v35h224v-36l-36 -7c-30 -6 -40 -19 -40 -53v-287c0 -155 -80 -239 -230 -239z" />
    <glyph glyph-name="v.sc" horiz-adv-x="680" 
d="M428 606h236v-35l-31 -8c-30 -8 -45 -20 -63 -61l-216 -507h-31l-224 529c-14 33 -21 39 -43 42l-40 5v35h283v-35l-62 -6c-28 -3 -37 -17 -26 -43l150 -365h2l149 352c12 29 6 48 -25 53l-59 9v35z" />
    <glyph glyph-name="w.sc" horiz-adv-x="966" 
d="M709 606h233v-35l-31 -8c-33 -9 -47 -21 -60 -61l-167 -507h-37l-162 430h-3l-157 -430h-37l-181 529c-10 29 -21 39 -44 42l-39 5v35h280v-35l-62 -6c-25 -2 -33 -16 -25 -43l111 -356h4l154 440h37l158 -440h3l109 343c10 30 1 47 -27 52l-57 10v35z" />
    <glyph glyph-name="wacute.sc" horiz-adv-x="966" 
d="M626 776l-166 -110l-15 15l122 159c19 24 51 26 69 4c17 -20 15 -51 -10 -68zM709 606h233v-35l-31 -8c-33 -9 -47 -21 -60 -61l-167 -507h-37l-162 430h-3l-157 -430h-37l-181 529c-10 29 -21 39 -44 42l-39 5v35h280v-35l-62 -6c-25 -2 -33 -16 -25 -43l111 -356h4
l154 440h37l158 -440h3l109 343c10 30 1 47 -27 52l-57 10v35z" />
    <glyph glyph-name="wcircumflex.sc" horiz-adv-x="966" 
d="M505 748l-124 -95l-18 15l137 182h12l136 -182l-17 -15zM709 606h233v-35l-31 -8c-33 -9 -47 -21 -60 -61l-167 -507h-37l-162 430h-3l-157 -430h-37l-181 529c-10 29 -21 39 -44 42l-39 5v35h280v-35l-62 -6c-25 -2 -33 -16 -25 -43l111 -356h4l154 440h37l158 -440h3
l109 343c10 30 1 47 -27 52l-57 10v35z" />
    <glyph glyph-name="wdieresis.sc" horiz-adv-x="966" 
d="M413 707c-31 0 -56 26 -56 57s25 58 56 58c32 0 58 -27 58 -58s-26 -57 -58 -57zM598 708c-34 0 -59 26 -59 56c0 31 25 57 59 57c29 0 55 -26 55 -57c0 -30 -26 -56 -55 -56zM709 606h233v-35l-31 -8c-33 -9 -47 -21 -60 -61l-167 -507h-37l-162 430h-3l-157 -430h-37
l-181 529c-10 29 -21 39 -44 42l-39 5v35h280v-35l-62 -6c-25 -2 -33 -16 -25 -43l111 -356h4l154 440h37l158 -440h3l109 343c10 30 1 47 -27 52l-57 10v35z" />
    <glyph glyph-name="wgrave.sc" horiz-adv-x="966" 
d="M397 776c-25 17 -27 48 -10 68c18 22 50 20 69 -4l122 -159l-15 -15zM709 606h233v-35l-31 -8c-33 -9 -47 -21 -60 -61l-167 -507h-37l-162 430h-3l-157 -430h-37l-181 529c-10 29 -21 39 -44 42l-39 5v35h280v-35l-62 -6c-25 -2 -33 -16 -25 -43l111 -356h4l154 440h37
l158 -440h3l109 343c10 30 1 47 -27 52l-57 10v35z" />
    <glyph glyph-name="x.sc" horiz-adv-x="650" 
d="M598 40l36 -5v-35h-284v35l54 6c29 3 37 15 24 34l-121 173h-3l-125 -163c-16 -20 -9 -36 14 -40l59 -10v-35h-236v35l32 7c29 6 44 16 61 38l160 208v7l-169 242c-14 20 -22 26 -43 29l-32 5v35h283v-35l-70 -6c-25 -2 -32 -15 -18 -34l114 -163h5l121 160
c12 16 7 29 -13 33l-54 10v35h227v-35l-38 -7c-23 -4 -34 -12 -54 -38l-154 -200v-9l169 -241c15 -22 32 -33 55 -36z" />
    <glyph glyph-name="y.sc" horiz-adv-x="655" 
d="M406 606h233v-35l-27 -6c-25 -6 -35 -13 -58 -45l-175 -242v-192c0 -31 10 -43 37 -46l54 -6v-34h-287v34l55 6c27 3 37 15 37 46v184l-183 266c-14 20 -30 31 -51 33l-25 2v35h274v-35l-56 -6c-26 -3 -33 -20 -18 -42l133 -191h6l123 177c20 28 13 48 -18 53l-54 9v35z
" />
    <glyph glyph-name="yacute.sc" horiz-adv-x="655" 
d="M465 776l-166 -110l-15 15l122 159c19 24 51 26 69 4c17 -20 15 -51 -10 -68zM406 606h233v-35l-27 -6c-25 -6 -35 -13 -58 -45l-175 -242v-192c0 -31 10 -43 37 -46l54 -6v-34h-287v34l55 6c27 3 37 15 37 46v184l-183 266c-14 20 -30 31 -51 33l-25 2v35h274v-35
l-56 -6c-26 -3 -33 -20 -18 -42l133 -191h6l123 177c20 28 13 48 -18 53l-54 9v35z" />
    <glyph glyph-name="ycircumflex.sc" horiz-adv-x="655" 
d="M344 748l-124 -95l-18 15l137 182h12l136 -182l-17 -15zM406 606h233v-35l-27 -6c-25 -6 -35 -13 -58 -45l-175 -242v-192c0 -31 10 -43 37 -46l54 -6v-34h-287v34l55 6c27 3 37 15 37 46v184l-183 266c-14 20 -30 31 -51 33l-25 2v35h274v-35l-56 -6
c-26 -3 -33 -20 -18 -42l133 -191h6l123 177c20 28 13 48 -18 53l-54 9v35z" />
    <glyph glyph-name="ydieresis.sc" horiz-adv-x="655" 
d="M252 707c-31 0 -56 26 -56 57s25 58 56 58c32 0 58 -27 58 -58s-26 -57 -58 -57zM437 708c-34 0 -59 26 -59 56c0 31 25 57 59 57c29 0 55 -26 55 -57c0 -30 -26 -56 -55 -56zM406 606h233v-35l-27 -6c-25 -6 -35 -13 -58 -45l-175 -242v-192c0 -31 10 -43 37 -46l54 -6
v-34h-287v34l55 6c27 3 37 15 37 46v184l-183 266c-14 20 -30 31 -51 33l-25 2v35h274v-35l-56 -6c-26 -3 -33 -20 -18 -42l133 -191h6l123 177c20 28 13 48 -18 53l-54 9v35z" />
    <glyph glyph-name="ygrave.sc" horiz-adv-x="655" 
d="M236 776c-25 17 -27 48 -10 68c18 22 50 20 69 -4l122 -159l-15 -15zM406 606h233v-35l-27 -6c-25 -6 -35 -13 -58 -45l-175 -242v-192c0 -31 10 -43 37 -46l54 -6v-34h-287v34l55 6c27 3 37 15 37 46v184l-183 266c-14 20 -30 31 -51 33l-25 2v35h274v-35l-56 -6
c-26 -3 -33 -20 -18 -42l133 -191h6l123 177c20 28 13 48 -18 53l-54 9v35z" />
    <glyph glyph-name="uni0233.sc" horiz-adv-x="655" 
d="M519 789v-54h-350v54h350zM406 606h233v-35l-27 -6c-25 -6 -35 -13 -58 -45l-175 -242v-192c0 -31 10 -43 37 -46l54 -6v-34h-287v34l55 6c27 3 37 15 37 46v184l-183 266c-14 20 -30 31 -51 33l-25 2v35h274v-35l-56 -6c-26 -3 -33 -20 -18 -42l133 -191h6l123 177
c20 28 13 48 -18 53l-54 9v35z" />
    <glyph glyph-name="uni1EF9.sc" horiz-adv-x="655" 
d="M259 738c-28 0 -46 -19 -62 -53l-23 8c12 43 42 116 94 116c28 0 60 -16 92 -31c30 -14 61 -27 87 -27c27 0 43 20 61 54l23 -10c-13 -43 -43 -115 -94 -115c-26 0 -56 14 -86 28c-32 15 -64 30 -92 30zM406 606h233v-35l-27 -6c-25 -6 -35 -13 -58 -45l-175 -242v-192
c0 -31 10 -43 37 -46l54 -6v-34h-287v34l55 6c27 3 37 15 37 46v184l-183 266c-14 20 -30 31 -51 33l-25 2v35h274v-35l-56 -6c-26 -3 -33 -20 -18 -42l133 -191h6l123 177c20 28 13 48 -18 53l-54 9v35z" />
    <glyph glyph-name="z.sc" horiz-adv-x="625" 
d="M547 202l29 -7l-34 -195h-487v32l359 521h-166c-52 0 -81 -13 -106 -50l-53 -78l-28 6l35 175h451v-28l-357 -522v-3h201c52 0 83 15 102 50z" />
    <glyph glyph-name="zacute.sc" horiz-adv-x="625" 
d="M428 776l-166 -110l-15 15l122 159c19 24 51 26 69 4c17 -20 15 -51 -10 -68zM547 202l29 -7l-34 -195h-487v32l359 521h-166c-52 0 -81 -13 -106 -50l-53 -78l-28 6l35 175h451v-28l-357 -522v-3h201c52 0 83 15 102 50z" />
    <glyph glyph-name="zcaron.sc" horiz-adv-x="625" 
d="M314 677h-12l-130 173l17 14l118 -91l120 91l16 -14zM547 202l29 -7l-34 -195h-487v32l359 521h-166c-52 0 -81 -13 -106 -50l-53 -78l-28 6l35 175h451v-28l-357 -522v-3h201c52 0 83 15 102 50z" />
    <glyph glyph-name="zdotaccent.sc" horiz-adv-x="625" 
d="M308 700c-39 0 -71 31 -71 69s32 68 71 68c37 0 69 -30 69 -68s-32 -69 -69 -69zM547 202l29 -7l-34 -195h-487v32l359 521h-166c-52 0 -81 -13 -106 -50l-53 -78l-28 6l35 175h451v-28l-357 -522v-3h201c52 0 83 15 102 50z" />
    <glyph glyph-name="ordfeminine" unicode="&#xaa;" horiz-adv-x="484" 
d="M429 404l12 -20c-19 -23 -57 -37 -82 -37c-34 0 -66 26 -70 73h-6c-37 -40 -85 -73 -136 -73c-67 0 -104 35 -104 90c0 93 98 128 244 143v47c0 58 -32 92 -91 92c-50 0 -87 -30 -108 -77l-27 11c28 73 83 115 160 115c106 0 149 -51 149 -147v-194c0 -22 14 -31 32 -31
c9 0 16 3 27 8zM187 400c26 0 68 16 100 46v94c-134 -3 -161 -22 -161 -86c0 -34 26 -54 61 -54zM49 219v52h368v-52h-368z" />
    <glyph glyph-name="ordmasculine" unicode="&#xba;" horiz-adv-x="453" 
d="M222 347c-123 0 -189 104 -189 212c0 112 79 209 198 209c122 0 190 -104 190 -212c0 -112 -80 -209 -199 -209zM231 384c69 0 103 55 103 165c0 114 -36 182 -112 182c-69 0 -102 -55 -102 -165c0 -114 35 -182 111 -182zM43 219v52h368v-52h-368z" />
    <glyph glyph-name="uni0394" unicode="&#x394;" horiz-adv-x="735" 
d="M376 730l310 -730h-637l301 730h26zM127 48h420l-213 515z" />
    <glyph glyph-name="uni03A9" unicode="&#x3a9;" horiz-adv-x="787" 
d="M57 0l-52 191l30 8l51 -63c23 -28 39 -34 79 -34h52v12c-101 78 -148 186 -148 290c0 166 120 322 324 322c205 0 325 -156 325 -322c0 -104 -51 -212 -152 -290v-12h56c40 0 56 6 79 34l51 63l30 -8l-52 -191h-268v70c67 85 139 147 139 326c0 183 -60 281 -208 281
c-144 0 -207 -98 -207 -281c0 -179 68 -241 134 -326v-70h-263z" />
    <glyph glyph-name="uni03BC" unicode="&#x3bc;" horiz-adv-x="625" 
d="M534 53l61 -17v-25l-147 -31l-17 9v80h-16c-57 -55 -104 -85 -161 -85c-18 0 -40 4 -61 13v-247h-95v690c0 12 -3 20 -15 24l-61 18v26l159 36l12 -7v-389c0 -59 34 -95 110 -95c42 0 80 15 122 40v347c0 12 -3 20 -15 24l-61 18v26l159 36l12 -7v-460
c0 -11 3 -21 14 -24z" />
    <glyph glyph-name="pi" unicode="&#x3c0;" horiz-adv-x="700" 
d="M640 160h16c0 -120 -31 -176 -121 -176c-87 0 -120 77 -120 193c0 73 23 166 49 259h-201c0 -133 -8 -338 -64 -460l-94 33c55 93 103 286 106 427h-9c-74 0 -122 -5 -163 -85l-12 4c38 131 84 171 175 171h418v-90h-111c-15 -89 -26 -175 -26 -239
c0 -84 25 -109 78 -109c36 0 72 13 79 72z" />
    <glyph glyph-name="zero" unicode="0" horiz-adv-x="665" 
d="M333 -16c-160 0 -276 158 -276 374c0 218 113 368 276 368c162 0 275 -151 275 -368s-115 -374 -275 -374zM333 42c98 0 157 120 157 316c0 192 -59 310 -157 310s-158 -118 -158 -310c0 -196 60 -316 158 -316z" />
    <glyph glyph-name="one" unicode="1" horiz-adv-x="445" 
d="M45 0v37l99 10c31 3 42 16 42 53v476c0 15 -8 22 -25 22h-116v34c107 7 162 31 224 98h28v-630c0 -37 10 -50 41 -53l82 -8v-39h-375z" />
    <glyph glyph-name="two" unicode="2" horiz-adv-x="558" 
d="M158 96h350v-96h-443l2 3l-3 -3l-30 35c64 61 125 125 177 184c90 102 159 199 159 288c0 78 -45 137 -130 137c-72 0 -128 -47 -157 -133l-38 14c29 125 117 201 236 201c125 0 201 -73 201 -198c0 -114 -81 -212 -326 -428z" />
    <glyph glyph-name="three" unicode="3" horiz-adv-x="546" 
d="M317 416c111 -23 169 -87 169 -189c0 -136 -120 -243 -274 -243c-71 0 -142 19 -188 49l48 79c39 -45 83 -70 140 -70c87 0 155 63 155 162c0 86 -53 129 -158 143l-61 8l-6 23l79 32c81 33 124 81 124 143c0 49 -33 93 -119 93c-65 0 -116 -32 -150 -107l-39 18
c35 105 117 169 220 169c135 0 194 -69 194 -143c0 -61 -45 -122 -134 -161v-6z" />
    <glyph glyph-name="four" unicode="4" horiz-adv-x="596" 
d="M556 259v-72h-111v-187h-111v187h-294l-26 36l331 490h100v-454h111zM111 259h223v332h-3l-222 -328z" />
    <glyph glyph-name="five" unicode="5" horiz-adv-x="521" 
d="M224 451c169 -17 242 -88 242 -216c0 -137 -122 -251 -269 -251c-64 0 -121 15 -177 47l43 72c38 -40 82 -60 137 -60c92 0 163 62 163 163c0 88 -56 136 -166 147l-115 11l39 349h247c23 0 36 7 51 28l13 19l31 -8l-22 -141h-271l-19 -153z" />
    <glyph glyph-name="six" unicode="6" horiz-adv-x="580" 
d="M350 426c116 0 195 -84 195 -208c0 -133 -110 -234 -244 -234c-156 0 -254 128 -254 317c0 233 171 413 405 425l18 -36c-160 -15 -277 -140 -301 -326l9 -4c48 38 117 66 172 66zM301 42c82 0 128 59 128 155c0 110 -46 167 -135 167c-36 0 -81 -15 -128 -46
c-1 -8 -1 -17 -1 -25c0 -163 48 -251 136 -251z" />
    <glyph glyph-name="seven" unicode="7" horiz-adv-x="520" 
d="M461 713l22 -26l-243 -687h-118v24l292 593h-228c-58 0 -75 -9 -107 -54l-28 -40l-29 8l29 182h410z" />
    <glyph glyph-name="eight" unicode="8" horiz-adv-x="597" 
d="M431 345c78 -49 111 -95 111 -165c0 -112 -110 -196 -250 -196c-142 0 -237 74 -237 180c0 82 51 144 161 197l-16 10c-87 55 -121 102 -121 173c0 109 94 182 222 182c134 0 221 -75 221 -174c0 -65 -55 -133 -139 -177zM176 567c0 -44 21 -75 83 -114l93 -58
c52 44 71 88 71 152c0 73 -45 124 -121 124c-78 0 -126 -46 -126 -104zM292 40c85 0 140 45 140 121c0 49 -22 78 -89 120l-97 61c-62 -33 -89 -87 -89 -163c0 -90 53 -139 135 -139z" />
    <glyph glyph-name="nine" unicode="9" horiz-adv-x="580" 
d="M279 726c156 0 254 -128 254 -317c0 -233 -171 -413 -405 -425l-18 36c160 15 277 140 301 326l-9 4c-48 -38 -117 -66 -172 -66c-116 0 -195 84 -195 208c0 133 110 234 244 234zM286 346c36 0 81 15 128 46c1 8 1 17 1 25c0 163 -48 251 -136 251
c-82 0 -128 -59 -128 -155c0 -110 46 -167 135 -167z" />
    <glyph glyph-name="uni2776" unicode="&#x2776;" horiz-adv-x="932" 
d="M466 -51c224 0 406 182 406 406s-182 406 -406 406s-406 -182 -406 -406s182 -406 406 -406zM322 114v33l61 7c24 3 29 12 29 38v330c0 11 -5 16 -17 16h-73v31c78 5 116 20 159 67h31v-444c0 -26 6 -35 30 -38l53 -6v-34h-273z" />
    <glyph glyph-name="uni2777" unicode="&#x2777;" horiz-adv-x="932" 
d="M466 -51c224 0 406 182 406 406s-182 406 -406 406s-406 -182 -406 -406s182 -406 406 -406zM396 198h242v-82h-323l-26 33c48 45 94 91 132 134c58 66 99 130 99 192c0 55 -30 94 -86 94c-49 0 -87 -33 -110 -94l-30 12c24 92 87 147 179 147c94 0 147 -55 147 -138
c0 -80 -65 -159 -227 -292z" />
    <glyph glyph-name="uni2778" unicode="&#x2778;" horiz-adv-x="932" 
d="M466 -51c224 0 406 182 406 406s-182 406 -406 406s-406 -182 -406 -406s182 -406 406 -406zM524 416c80 -16 118 -62 118 -131c0 -105 -93 -181 -203 -181c-48 0 -100 11 -136 34l33 63c28 -34 59 -51 95 -51c60 0 105 42 105 110c0 59 -34 90 -107 99l-39 5l-5 21
l51 20c63 25 86 58 86 99c0 34 -23 66 -77 66c-47 0 -83 -27 -105 -75l-31 14c27 79 87 125 167 125c97 0 140 -48 140 -101c0 -44 -32 -84 -92 -113v-4z" />
    <glyph glyph-name="uni2779" unicode="&#x2779;" horiz-adv-x="932" 
d="M466 -51c224 0 406 182 406 406s-182 406 -406 406s-406 -182 -406 -406s182 -406 406 -406zM637 298v-54h-78v-130h-100v130h-202l-18 26l234 353h86v-325h78zM312 298h147v225h-2l-146 -221z" />
    <glyph glyph-name="uni277A" unicode="&#x277a;" horiz-adv-x="932" 
d="M466 -51c224 0 406 182 406 406s-182 406 -406 406s-406 -182 -406 -406s182 -406 406 -406zM453 432c118 -10 170 -63 170 -155c0 -101 -93 -180 -199 -180c-41 0 -81 9 -129 32l31 55c29 -29 57 -40 90 -40c62 0 108 41 108 108c0 59 -37 92 -110 99l-76 7l30 260h171
c19 0 31 5 42 22l9 14l28 -7l-18 -118h-196l-11 -92z" />
    <glyph glyph-name="uni277B" unicode="&#x277b;" horiz-adv-x="932" 
d="M466 -51c224 0 406 182 406 406s-182 406 -406 406s-406 -182 -406 -406s182 -406 406 -406zM499 422c81 0 135 -61 135 -151c0 -99 -80 -173 -181 -173c-109 0 -190 82 -190 228c0 177 136 296 304 302l15 -29c-111 -12 -192 -87 -210 -225l5 -2c35 30 83 50 122 50z
M455 144c48 0 77 36 77 108c0 79 -29 115 -84 115c-23 0 -51 -9 -79 -26c-1 -8 -1 -17 -1 -26c0 -119 31 -171 87 -171z" />
    <glyph glyph-name="uni277C" unicode="&#x277c;" horiz-adv-x="932" 
d="M466 -51c224 0 406 182 406 406s-182 406 -406 406s-406 -182 -406 -406s182 -406 406 -406zM635 613l12 -16l-175 -493h-107v21l214 402h-156c-43 0 -60 -8 -82 -42l-17 -27l-28 8l25 147h314z" />
    <glyph glyph-name="uni277D" unicode="&#x277d;" horiz-adv-x="932" 
d="M466 -51c224 0 406 182 406 406s-182 406 -406 406s-406 -182 -406 -406s182 -406 406 -406zM569 359c56 -34 77 -69 77 -116c0 -82 -75 -148 -185 -148c-109 0 -177 54 -177 126c0 57 35 105 110 137l-15 9c-52 31 -78 69 -78 119c0 82 70 139 169 139
c108 0 164 -55 164 -122c0 -47 -37 -95 -99 -123zM469 581c-51 0 -83 -30 -83 -67c0 -30 15 -50 56 -76l67 -42c30 31 41 60 41 101c0 50 -29 84 -81 84zM461 139c52 0 87 30 87 77c0 32 -14 53 -57 80l-71 45c-35 -25 -51 -60 -51 -108c0 -62 35 -94 92 -94z" />
    <glyph glyph-name="uni277E" unicode="&#x277e;" horiz-adv-x="932" 
d="M466 -51c224 0 406 182 406 406s-182 406 -406 406s-406 -182 -406 -406s182 -406 406 -406zM428 302c-81 0 -135 61 -135 151c0 99 80 173 181 173c109 0 190 -82 190 -228c0 -177 -136 -296 -304 -302l-15 29c111 12 192 87 210 225l-5 2c-35 -30 -83 -50 -122 -50z
M472 580c-48 0 -77 -36 -77 -108c0 -79 29 -115 84 -115c23 0 51 9 79 26c1 8 1 17 1 26c0 119 -31 171 -87 171z" />
    <glyph glyph-name="uni277F" unicode="&#x277f;" horiz-adv-x="932" 
d="M466 -51c224 0 406 182 406 406s-182 406 -406 406s-406 -182 -406 -406s182 -406 406 -406zM211 108v33l46 7c24 4 29 12 29 38v330c0 11 -5 16 -17 16h-58v31c63 5 101 20 144 67h31v-444c0 -26 6 -34 30 -38l38 -6v-34h-243zM592 96c-93 0 -168 106 -168 267
c0 165 72 263 168 263c97 0 169 -99 169 -263c0 -161 -74 -267 -169 -267zM592 142c48 0 74 80 74 221c0 142 -26 217 -74 217c-47 0 -73 -75 -73 -217c0 -141 26 -221 73 -221z" />
    <glyph glyph-name="uni2460" unicode="&#x2460;" horiz-adv-x="932" 
d="M466 -51c-224 0 -406 182 -406 406s182 406 406 406s406 -182 406 -406s-182 -406 -406 -406zM466 13c189 0 342 153 342 342s-153 342 -342 342s-342 -153 -342 -342s153 -342 342 -342zM322 114v33l61 7c24 3 29 12 29 38v330c0 11 -5 16 -17 16h-73v31
c78 5 116 20 159 67h31v-444c0 -26 6 -35 30 -38l53 -6v-34h-273z" />
    <glyph glyph-name="uni2461" unicode="&#x2461;" horiz-adv-x="932" 
d="M466 -51c-224 0 -406 182 -406 406s182 406 406 406s406 -182 406 -406s-182 -406 -406 -406zM466 13c189 0 342 153 342 342s-153 342 -342 342s-342 -153 -342 -342s153 -342 342 -342zM396 198h242v-82h-323l-26 33c48 45 94 91 132 134c58 66 99 130 99 192
c0 55 -30 94 -86 94c-49 0 -87 -33 -110 -94l-30 12c24 92 87 147 179 147c94 0 147 -55 147 -138c0 -80 -65 -159 -227 -292z" />
    <glyph glyph-name="uni2462" unicode="&#x2462;" horiz-adv-x="932" 
d="M466 -51c-224 0 -406 182 -406 406s182 406 406 406s406 -182 406 -406s-182 -406 -406 -406zM466 13c189 0 342 153 342 342s-153 342 -342 342s-342 -153 -342 -342s153 -342 342 -342zM524 416c80 -16 118 -62 118 -131c0 -105 -93 -181 -203 -181
c-48 0 -100 11 -136 34l33 63c28 -34 59 -51 95 -51c60 0 105 42 105 110c0 59 -34 90 -107 99l-39 5l-5 21l51 20c63 25 86 58 86 99c0 34 -23 66 -77 66c-47 0 -83 -27 -105 -75l-31 14c27 79 87 125 167 125c97 0 140 -48 140 -101c0 -44 -32 -84 -92 -113v-4z" />
    <glyph glyph-name="uni2463" unicode="&#x2463;" horiz-adv-x="932" 
d="M466 -51c-224 0 -406 182 -406 406s182 406 406 406s406 -182 406 -406s-182 -406 -406 -406zM466 13c189 0 342 153 342 342s-153 342 -342 342s-342 -153 -342 -342s153 -342 342 -342zM637 298v-54h-78v-130h-100v130h-202l-18 26l234 353h86v-325h78zM312 298h147
v225h-2l-146 -221z" />
    <glyph glyph-name="uni2464" unicode="&#x2464;" horiz-adv-x="932" 
d="M466 -51c-224 0 -406 182 -406 406s182 406 406 406s406 -182 406 -406s-182 -406 -406 -406zM466 13c189 0 342 153 342 342s-153 342 -342 342s-342 -153 -342 -342s153 -342 342 -342zM453 432c118 -10 170 -63 170 -155c0 -101 -93 -180 -199 -180
c-41 0 -81 9 -129 32l31 55c29 -29 57 -40 90 -40c62 0 108 41 108 108c0 59 -37 92 -110 99l-76 7l30 260h171c19 0 31 5 42 22l9 14l28 -7l-18 -118h-196l-11 -92z" />
    <glyph glyph-name="uni2465" unicode="&#x2465;" horiz-adv-x="932" 
d="M466 -51c-224 0 -406 182 -406 406s182 406 406 406s406 -182 406 -406s-182 -406 -406 -406zM466 13c189 0 342 153 342 342s-153 342 -342 342s-342 -153 -342 -342s153 -342 342 -342zM499 422c81 0 135 -61 135 -151c0 -99 -80 -173 -181 -173
c-109 0 -190 82 -190 228c0 177 136 296 304 302l15 -29c-111 -12 -192 -87 -210 -225l5 -2c35 30 83 50 122 50zM455 144c48 0 77 36 77 108c0 79 -29 115 -84 115c-23 0 -51 -9 -79 -26c-1 -8 -1 -17 -1 -26c0 -119 31 -171 87 -171z" />
    <glyph glyph-name="uni2466" unicode="&#x2466;" horiz-adv-x="932" 
d="M466 -51c-224 0 -406 182 -406 406s182 406 406 406s406 -182 406 -406s-182 -406 -406 -406zM466 13c189 0 342 153 342 342s-153 342 -342 342s-342 -153 -342 -342s153 -342 342 -342zM635 613l12 -16l-175 -493h-107v21l214 402h-156c-43 0 -60 -8 -82 -42l-17 -27
l-28 8l25 147h314z" />
    <glyph glyph-name="uni2467" unicode="&#x2467;" horiz-adv-x="932" 
d="M466 -51c-224 0 -406 182 -406 406s182 406 406 406s406 -182 406 -406s-182 -406 -406 -406zM466 13c189 0 342 153 342 342s-153 342 -342 342s-342 -153 -342 -342s153 -342 342 -342zM569 359c56 -34 77 -69 77 -116c0 -82 -75 -148 -185 -148
c-109 0 -177 54 -177 126c0 57 35 105 110 137l-15 9c-52 31 -78 69 -78 119c0 82 70 139 169 139c108 0 164 -55 164 -122c0 -47 -37 -95 -99 -123zM469 581c-51 0 -83 -30 -83 -67c0 -30 15 -50 56 -76l67 -42c30 31 41 60 41 101c0 50 -29 84 -81 84zM461 139
c52 0 87 30 87 77c0 32 -14 53 -57 80l-71 45c-35 -25 -51 -60 -51 -108c0 -62 35 -94 92 -94z" />
    <glyph glyph-name="uni2468" unicode="&#x2468;" horiz-adv-x="932" 
d="M466 -51c-224 0 -406 182 -406 406s182 406 406 406s406 -182 406 -406s-182 -406 -406 -406zM466 13c189 0 342 153 342 342s-153 342 -342 342s-342 -153 -342 -342s153 -342 342 -342zM428 302c-81 0 -135 61 -135 151c0 99 80 173 181 173c109 0 190 -82 190 -228
c0 -177 -136 -296 -304 -302l-15 29c111 12 192 87 210 225l-5 2c-35 -30 -83 -50 -122 -50zM472 580c-48 0 -77 -36 -77 -108c0 -79 29 -115 84 -115c23 0 51 9 79 26c1 8 1 17 1 26c0 119 -31 171 -87 171z" />
    <glyph glyph-name="uni2469" unicode="&#x2469;" horiz-adv-x="932" 
d="M466 761c224 0 406 -182 406 -406s-182 -406 -406 -406s-406 182 -406 406s182 406 406 406zM466 13c189 0 342 153 342 342s-153 342 -342 342s-342 -153 -342 -342c0 -88 33 -168 87 -228v14l46 7c24 4 29 12 29 38v330c0 11 -5 16 -17 16h-58v31c63 5 101 20 144 67
h31v-444c0 -26 6 -34 30 -38l38 -6v-34h-225c62 -59 145 -95 237 -95zM592 626c97 0 169 -99 169 -263c0 -161 -74 -267 -169 -267c-93 0 -168 106 -168 267c0 165 72 263 168 263zM592 142c48 0 74 80 74 221c0 142 -26 217 -74 217c-47 0 -73 -75 -73 -217
c0 -141 26 -221 73 -221z" />
    <glyph glyph-name="zero.osf" horiz-adv-x="647" 
d="M317 -16c-71 0 -136 24 -183 65c-52 45 -79 117 -79 206c0 172 108 283 275 283c72 0 137 -23 183 -65c51 -46 79 -118 79 -206c0 -172 -108 -283 -275 -283zM330 34c108 0 154 73 154 217c0 158 -49 237 -167 237c-107 0 -154 -73 -154 -218c0 -156 48 -236 167 -236z
" />
    <glyph glyph-name="one.osf" horiz-adv-x="428" 
d="M50 0v32l97 13c30 4 41 17 41 54v306c0 16 -8 23 -25 23h-113v31c103 8 148 23 204 85h29v-445c0 -37 10 -49 41 -54l86 -13v-32h-360z" />
    <glyph glyph-name="two.osf" horiz-adv-x="502" 
d="M170 87h277v-87h-376l-26 35c72 60 129 117 183 175c65 69 84 106 84 163c0 63 -41 103 -104 103c-53 0 -97 -33 -128 -97l-33 11c26 95 95 148 194 148c112 0 179 -58 179 -152c0 -83 -53 -146 -252 -295z" />
    <glyph glyph-name="three.osf" horiz-adv-x="533" 
d="M308 219c110 -26 165 -81 165 -171c0 -145 -111 -252 -260 -252c-60 0 -123 17 -165 45l32 65c44 -38 88 -60 140 -60c79 0 144 69 144 162c0 79 -37 131 -144 145l-61 8l-6 23l77 35c73 33 107 83 107 151c0 54 -31 102 -103 102c-56 0 -104 -37 -135 -103l-39 12
c33 98 99 157 208 157c105 0 171 -59 171 -151c0 -71 -55 -125 -131 -161v-7z" />
    <glyph glyph-name="four.osf" horiz-adv-x="591" 
d="M551 80v-66h-118v-193l-95 -20v213h-296l-24 29l339 483h76v-446h118zM113 80h225v325h-5l-222 -322z" />
    <glyph glyph-name="five.osf" horiz-adv-x="533" 
d="M217 255c207 -19 251 -92 251 -211c0 -125 -106 -248 -252 -248c-81 0 -141 17 -185 45l34 68c44 -43 87 -63 137 -63c104 0 163 81 163 177c0 97 -51 133 -193 145l-85 7l42 351h239c26 0 42 8 51 28l16 34l31 -9l-22 -140h-266l-20 -179z" />
    <glyph glyph-name="six.osf" horiz-adv-x="573" 
d="M350 404c107 0 178 -78 178 -193c0 -126 -101 -227 -226 -227c-146 0 -232 121 -232 318c0 230 175 416 388 424l17 -28c-186 -24 -295 -164 -299 -359l6 -3c62 43 118 68 168 68zM305 34c77 0 124 62 124 161c0 93 -45 148 -125 148c-41 0 -62 -9 -128 -41
c3 -180 41 -268 129 -268z" />
    <glyph glyph-name="seven.osf" horiz-adv-x="540" 
d="M474 526l16 -16l-254 -696h-99v21l271 604h-233c-54 0 -69 -8 -96 -45l-25 -34l-26 6l27 160h419z" />
    <glyph glyph-name="eight.osf" horiz-adv-x="578" 
d="M424 334c69 -44 94 -95 94 -152c0 -115 -100 -198 -235 -198c-127 0 -223 76 -223 176c0 84 50 147 157 203l-26 16c-80 50 -109 96 -109 167c0 104 92 180 218 180c125 0 203 -75 203 -170c0 -65 -56 -136 -139 -183zM167 564c0 -51 19 -78 73 -112l94 -60
c54 50 78 96 78 149c0 84 -47 135 -124 135c-75 0 -121 -43 -121 -112zM298 34c73 0 127 51 127 121c0 49 -13 86 -66 119l-112 70c-61 -37 -88 -90 -88 -169c0 -91 49 -141 139 -141z" />
    <glyph glyph-name="nine.osf" horiz-adv-x="573" 
d="M271 538c146 0 232 -121 232 -318c0 -230 -175 -416 -388 -424l-17 28c186 24 295 164 299 359l-6 3c-62 -43 -118 -68 -168 -68c-107 0 -178 78 -178 193c0 126 101 227 226 227zM269 179c41 0 62 9 128 41c-3 180 -41 268 -129 268c-77 0 -124 -62 -124 -161
c0 -93 45 -148 125 -148z" />
    <glyph glyph-name="zero.tf" 
d="M255 -16c-137 0 -221 143 -221 374c0 224 95 368 241 368c142 0 221 -131 221 -368c0 -228 -94 -374 -241 -374zM265 42c75 0 113 102 113 316c0 213 -38 310 -113 310c-73 0 -113 -105 -113 -310c0 -213 39 -316 113 -316z" />
    <glyph glyph-name="one.tf" 
d="M67 0v37l109 10c31 3 42 16 42 53v476c0 15 -8 22 -25 22h-126v34c111 7 174 34 234 98h28v-630c0 -37 10 -50 41 -53l92 -8v-39h-395z" />
    <glyph glyph-name="two.tf" 
d="M158 97h350v-97h-443l2 3l-3 -3l-30 35c64 61 125 125 177 184c90 102 155 199 155 288c0 84 -44 144 -126 144c-73 0 -130 -50 -158 -139l-37 13c29 125 117 201 236 201c125 0 201 -76 201 -201c0 -114 -81 -209 -326 -425z" />
    <glyph glyph-name="three.tf" 
d="M325 416c111 -23 169 -87 169 -189c0 -136 -120 -243 -274 -243c-71 0 -142 19 -188 49l48 79c39 -45 83 -70 140 -70c87 0 155 63 155 162c0 86 -53 129 -158 143l-61 8l-6 23l79 32c81 33 124 81 124 143c0 49 -33 93 -119 93c-65 0 -116 -32 -150 -107l-39 18
c35 105 117 169 220 169c135 0 194 -69 194 -143c0 -61 -45 -122 -134 -161v-6z" />
    <glyph glyph-name="four.tf" 
d="M510 264v-72h-85v-192h-111v192h-278l-21 29l316 492h94v-449h85zM117 264h197v315h-3l-198 -309z" />
    <glyph glyph-name="five.tf" 
d="M226 451c169 -17 242 -88 242 -216c0 -137 -122 -251 -269 -251c-64 0 -121 15 -177 47l43 72c38 -40 82 -60 137 -60c92 0 163 62 163 163c0 88 -56 136 -166 147l-115 11l39 349h247c23 0 36 7 51 28l13 19l31 -8l-22 -141h-271l-19 -153z" />
    <glyph glyph-name="six.tf" 
d="M320 426c106 0 180 -84 180 -208c0 -133 -95 -234 -228 -234c-148 0 -237 128 -237 317c0 235 162 414 379 425l16 -36c-146 -8 -253 -137 -274 -326l7 -4c47 41 106 66 157 66zM273 41c74 0 114 56 114 163c0 105 -41 157 -125 157c-32 0 -68 -11 -109 -35
c-1 -11 -1 -22 -1 -33c0 -166 42 -252 121 -252z" />
    <glyph glyph-name="seven.tf" 
d="M477 713l16 -16l-233 -697h-118v24l270 593h-206c-58 0 -75 -9 -107 -54l-28 -40l-29 8l29 182h406z" />
    <glyph glyph-name="eight.tf" 
d="M385 352c80 -52 112 -102 112 -178c0 -108 -107 -190 -235 -190c-142 0 -230 80 -230 180c0 83 49 144 157 197l-31 21c-60 40 -94 89 -94 158c0 106 77 186 211 186c131 0 198 -78 198 -172c0 -62 -50 -131 -127 -177zM153 565c0 -45 23 -76 84 -116l75 -49
c45 45 66 88 66 142c0 83 -43 127 -115 127c-62 0 -110 -38 -110 -104zM260 41c77 0 125 46 125 118c0 52 -21 85 -72 119l-96 64c-54 -33 -81 -83 -81 -160c0 -90 51 -141 124 -141z" />
    <glyph glyph-name="nine.tf" 
d="M258 726c148 0 237 -128 237 -317c0 -235 -162 -414 -379 -425l-16 36c146 8 253 137 274 326l-7 4c-47 -41 -106 -66 -157 -66c-106 0 -180 84 -180 208c0 133 95 234 228 234zM268 349c32 0 68 11 109 35c1 11 1 22 1 33c0 166 -42 252 -121 252
c-74 0 -114 -56 -114 -163c0 -105 41 -157 125 -157z" />
    <glyph glyph-name="zero.tosf" 
d="M259 -16c-62 0 -118 23 -159 65c-45 46 -69 117 -69 206c0 172 94 283 240 283c62 0 118 -24 159 -65c45 -45 69 -118 69 -206c0 -171 -95 -283 -240 -283zM271 34c75 0 120 83 120 217c0 149 -48 237 -132 237c-77 0 -120 -80 -120 -218c0 -149 48 -236 132 -236z" />
    <glyph glyph-name="one.tosf" 
d="M86 0v31l96 7c35 3 47 16 47 51v316c0 16 -8 23 -25 23h-118v31c110 8 157 27 209 85h29v-451c0 -37 10 -51 41 -54l86 -8v-31h-365z" />
    <glyph glyph-name="two.tosf" 
d="M190 87h277v-87h-376l-26 35c72 60 129 117 183 175c65 69 84 106 84 163c0 63 -41 103 -104 103c-53 0 -97 -33 -128 -97l-33 11c26 95 95 148 194 148c112 0 179 -58 179 -152c0 -83 -53 -146 -252 -295z" />
    <glyph glyph-name="three.tosf" 
d="M309 219c110 -26 165 -81 165 -171c0 -145 -111 -252 -260 -252c-60 0 -123 17 -165 45l32 65c44 -38 88 -60 140 -60c79 0 144 69 144 162c0 79 -37 131 -144 145l-61 8l-6 23l77 35c73 33 107 83 107 151c0 54 -31 102 -103 102c-56 0 -104 -37 -135 -103l-39 12
c33 98 99 157 208 157c105 0 171 -59 171 -151c0 -71 -55 -125 -131 -161v-7z" />
    <glyph glyph-name="four.tosf" 
d="M509 80v-66h-76v-193l-95 -20v213h-282l-21 24l322 488h76v-446h76zM133 80h205v320h-6l-203 -315z" />
    <glyph glyph-name="five.tosf" 
d="M224 255c207 -19 251 -92 251 -211c0 -125 -106 -248 -252 -248c-81 0 -141 17 -185 45l34 68c44 -43 87 -63 137 -63c104 0 163 81 163 177c0 97 -51 133 -193 145l-85 7l42 351h239c26 0 42 8 51 28l16 34l31 -9l-22 -140h-266l-20 -179z" />
    <glyph glyph-name="six.tosf" 
d="M327 404c104 0 173 -78 173 -193c0 -126 -100 -227 -231 -227c-139 0 -225 121 -225 325c0 225 176 412 390 417l14 -29c-182 -25 -291 -162 -296 -357l7 -4c63 44 119 68 168 68zM284 34c69 0 116 65 116 161c0 93 -41 148 -125 148c-35 0 -61 -8 -123 -37
c3 -182 40 -272 132 -272z" />
    <glyph glyph-name="seven.tosf" 
d="M478 526l16 -16l-247 -696h-99v21l262 604h-209c-54 0 -69 -8 -96 -45l-25 -34l-26 6l27 160h397z" />
    <glyph glyph-name="eight.tosf" 
d="M361 360c104 -65 137 -107 137 -176c0 -115 -102 -200 -239 -200c-129 0 -227 76 -227 176c0 85 50 148 162 204l-26 16c-78 49 -104 91 -104 166c0 105 88 180 211 180c113 0 197 -73 197 -170c0 -67 -49 -137 -131 -183zM141 570c0 -58 20 -85 89 -128l81 -51
c55 49 76 95 76 150c0 84 -47 135 -125 135c-74 0 -121 -43 -121 -106zM274 34c76 0 133 53 133 122c0 55 -26 91 -95 134l-88 55c-64 -37 -94 -91 -94 -170c0 -91 51 -141 144 -141z" />
    <glyph glyph-name="nine.tosf" 
d="M261 538c139 0 225 -121 225 -325c0 -225 -176 -412 -390 -417l-14 29c182 25 291 162 296 357l-7 4c-63 -44 -119 -68 -168 -68c-104 0 -173 78 -173 193c0 126 100 227 231 227zM255 179c35 0 61 8 123 37c-3 182 -40 272 -132 272c-69 0 -116 -65 -116 -161
c0 -93 41 -148 125 -148z" />
    <glyph glyph-name="uni2080" unicode="&#x2080;" horiz-adv-x="491" 
d="M246 -58c-113 0 -197 101 -197 238c0 139 80 235 197 235c116 0 195 -95 195 -235c0 -138 -82 -238 -195 -238zM245 -19c63 0 105 80 105 199c0 118 -42 196 -105 196s-105 -77 -105 -196c0 -120 42 -199 105 -199z" />
    <glyph glyph-name="uni2081" unicode="&#x2081;" horiz-adv-x="345" 
d="M55 -47v36l61 7c24 3 32 13 32 40v256c0 12 -6 17 -18 17h-75v33c80 7 110 22 148 76h30v-382c0 -27 7 -37 30 -40l55 -7v-36h-263z" />
    <glyph glyph-name="uni2082" unicode="&#x2082;" horiz-adv-x="412" 
d="M137 26h225v-73h-298l-24 30l133 138c60 62 80 98 80 159c0 50 -31 83 -80 83c-47 0 -82 -30 -99 -87l-31 11c19 81 75 127 157 127c86 0 141 -44 141 -121c0 -75 -32 -108 -207 -262z" />
    <glyph glyph-name="uni2083" unicode="&#x2083;" horiz-adv-x="403" 
d="M248 210c68 -14 105 -48 105 -112c0 -88 -82 -155 -189 -155c-48 0 -93 10 -124 27l25 52c29 -23 56 -40 85 -40c69 0 108 45 108 110c0 53 -38 71 -102 76l-28 2h-6l-7 18l27 9c65 22 100 53 100 104c0 41 -26 64 -70 64c-43 0 -77 -27 -97 -77l-29 12
c24 72 79 115 150 115c85 0 132 -36 132 -99c0 -41 -31 -77 -80 -97v-9z" />
    <glyph glyph-name="uni2084" unicode="&#x2084;" horiz-adv-x="423" 
d="M390 117v-53h-65v-111h-85v111h-187l-19 26l220 322h71v-295h65zM112 117h128v202h-4l-129 -193z" />
    <glyph glyph-name="uni2085" unicode="&#x2085;" horiz-adv-x="360" 
d="M191 242c87 -8 133 -56 133 -137c0 -89 -84 -163 -185 -163c-44 0 -84 10 -124 30l27 55c28 -32 56 -46 91 -46c58 0 98 44 98 103c0 62 -24 82 -127 91l-44 4l28 220h159c15 0 23 4 32 17l8 12l20 -5l-15 -97h-175l-10 -76z" />
    <glyph glyph-name="uni2086" unicode="&#x2086;" horiz-adv-x="423" 
d="M252 241c74 0 126 -60 126 -144c0 -86 -75 -155 -167 -155c-103 0 -171 86 -171 221c0 145 119 255 282 255l5 -29c-104 0 -185 -81 -200 -197l6 -4c36 33 76 53 119 53zM212 -22c58 0 86 36 86 106c0 67 -32 106 -91 107c-24 0 -51 -10 -82 -28v-8
c0 -122 24 -177 87 -177z" />
    <glyph glyph-name="uni2087" unicode="&#x2087;" horiz-adv-x="389" 
d="M341 408l14 -19l-172 -436h-86v13l195 369h-143c-40 0 -52 -6 -75 -38l-20 -27l-20 6l21 132h286z" />
    <glyph glyph-name="uni2088" unicode="&#x2088;" horiz-adv-x="444" 
d="M310 185c61 -34 82 -68 82 -118c0 -71 -75 -124 -175 -124c-93 0 -165 49 -165 113c0 50 31 88 98 121l-10 6c-55 32 -74 65 -74 114c0 65 63 119 162 119c86 0 147 -43 147 -107c0 -39 -34 -81 -87 -111zM139 319c0 -26 12 -44 50 -66l73 -41c26 26 38 53 38 87
c0 52 -30 84 -80 84c-46 0 -81 -30 -81 -64zM228 -23c51 0 80 33 80 71c0 28 -14 45 -55 69l-79 46c-31 -20 -43 -47 -43 -94c0 -52 42 -92 97 -92z" />
    <glyph glyph-name="uni2089" unicode="&#x2089;" horiz-adv-x="423" 
d="M212 418c103 0 171 -86 171 -221c0 -145 -119 -255 -282 -255l-5 29c104 0 185 81 200 197l-6 4c-36 -33 -76 -53 -119 -53c-74 0 -126 60 -126 144c0 86 75 155 167 155zM216 169c24 0 51 10 82 28v8c0 122 -24 177 -87 177c-58 0 -86 -36 -86 -106
c0 -67 32 -106 91 -107z" />
    <glyph glyph-name="zero.dnom" horiz-adv-x="491" 
d="M246 -16c-113 0 -197 101 -197 238c0 139 80 235 197 235c116 0 195 -95 195 -235c0 -138 -82 -238 -195 -238zM245 23c63 0 105 80 105 199c0 118 -42 196 -105 196s-105 -77 -105 -196c0 -120 42 -199 105 -199z" />
    <glyph glyph-name="one.dnom" horiz-adv-x="345" 
d="M55 0v36l61 7c24 3 32 13 32 40v256c0 12 -6 17 -18 17h-75v33c80 7 110 22 148 76h30v-382c0 -27 7 -37 30 -40l55 -7v-36h-263z" />
    <glyph glyph-name="two.dnom" horiz-adv-x="412" 
d="M137 73h225v-73h-298l-24 30l133 138c60 62 80 98 80 159c0 50 -31 83 -80 83c-47 0 -82 -30 -99 -87l-31 11c19 81 75 127 157 127c86 0 141 -44 141 -121c0 -75 -32 -108 -207 -262z" />
    <glyph glyph-name="three.dnom" horiz-adv-x="403" 
d="M248 252c68 -14 105 -48 105 -112c0 -88 -82 -155 -189 -155c-48 0 -93 10 -124 27l25 52c29 -23 56 -40 85 -40c69 0 108 45 108 110c0 53 -38 71 -102 76l-28 2h-6l-7 18l27 9c65 22 100 53 100 104c0 41 -26 64 -70 64c-43 0 -77 -27 -97 -77l-29 12
c24 72 79 115 150 115c85 0 132 -36 132 -99c0 -41 -31 -77 -80 -97v-9z" />
    <glyph glyph-name="four.dnom" horiz-adv-x="423" 
d="M390 164v-53h-65v-111h-85v111h-187l-19 26l220 322h71v-295h65zM112 164h128v202h-4l-129 -193z" />
    <glyph glyph-name="five.dnom" horiz-adv-x="360" 
d="M191 284c87 -8 133 -56 133 -137c0 -89 -84 -163 -185 -163c-44 0 -84 10 -124 30l27 55c28 -32 56 -46 91 -46c58 0 98 44 98 103c0 62 -24 82 -127 91l-44 4l28 220h159c15 0 23 4 32 17l8 12l20 -5l-15 -97h-175l-10 -76z" />
    <glyph glyph-name="six.dnom" horiz-adv-x="423" 
d="M252 283c74 0 126 -60 126 -144c0 -86 -75 -155 -167 -155c-103 0 -171 86 -171 221c0 145 119 255 282 255l5 -29c-104 0 -185 -81 -200 -197l6 -4c36 33 76 53 119 53zM212 20c58 0 86 36 86 106c0 67 -32 106 -91 107c-24 0 -51 -10 -82 -28v-8
c0 -122 24 -177 87 -177z" />
    <glyph glyph-name="seven.dnom" horiz-adv-x="389" 
d="M341 455l14 -19l-172 -436h-86v13l195 369h-143c-40 0 -52 -6 -75 -38l-20 -27l-20 6l21 132h286z" />
    <glyph glyph-name="eight.dnom" horiz-adv-x="444" 
d="M310 227c61 -34 82 -68 82 -118c0 -71 -75 -124 -175 -124c-93 0 -165 49 -165 113c0 50 31 88 98 121l-10 6c-55 32 -74 65 -74 114c0 65 63 119 162 119c86 0 147 -43 147 -107c0 -39 -34 -81 -87 -111zM139 361c0 -26 12 -44 50 -66l73 -41c26 26 38 53 38 87
c0 52 -30 84 -80 84c-46 0 -81 -30 -81 -64zM228 19c51 0 80 33 80 71c0 28 -14 45 -55 69l-79 46c-31 -20 -43 -47 -43 -94c0 -52 42 -92 97 -92z" />
    <glyph glyph-name="nine.dnom" horiz-adv-x="423" 
d="M212 455c103 0 171 -86 171 -221c0 -145 -119 -255 -282 -255l-5 29c104 0 185 81 200 197l-6 4c-36 -33 -76 -53 -119 -53c-74 0 -126 60 -126 144c0 86 75 155 167 155zM216 206c24 0 51 10 82 28v8c0 122 -24 177 -87 177c-58 0 -86 -36 -86 -106
c0 -67 32 -106 91 -107z" />
    <glyph glyph-name="zero.numr" horiz-adv-x="491" 
d="M246 254c-113 0 -197 101 -197 238c0 139 80 235 197 235c116 0 195 -95 195 -235c0 -138 -82 -238 -195 -238zM245 293c63 0 105 80 105 199c0 118 -42 196 -105 196s-105 -77 -105 -196c0 -120 42 -199 105 -199z" />
    <glyph glyph-name="one.numr" horiz-adv-x="345" 
d="M55 265v36l61 7c24 3 32 13 32 40v256c0 12 -6 17 -18 17h-75v33c80 7 110 22 148 76h30v-382c0 -27 7 -37 30 -40l55 -7v-36h-263z" />
    <glyph glyph-name="two.numr" horiz-adv-x="412" 
d="M137 338h225v-73h-298l-24 30l133 138c60 62 80 98 80 159c0 50 -31 83 -80 83c-47 0 -82 -30 -99 -87l-31 11c19 81 75 127 157 127c86 0 141 -44 141 -121c0 -75 -32 -108 -207 -262z" />
    <glyph glyph-name="three.numr" horiz-adv-x="403" 
d="M248 522c68 -14 105 -48 105 -112c0 -88 -82 -155 -189 -155c-48 0 -93 10 -124 27l25 52c29 -23 56 -40 85 -40c69 0 108 45 108 110c0 53 -38 71 -102 76l-28 2h-6l-7 18l27 9c65 22 100 53 100 104c0 41 -26 64 -70 64c-43 0 -77 -27 -97 -77l-29 12
c24 72 79 115 150 115c85 0 132 -36 132 -99c0 -41 -31 -77 -80 -97v-9z" />
    <glyph glyph-name="four.numr" horiz-adv-x="423" 
d="M390 429v-53h-65v-111h-85v111h-187l-19 26l220 322h71v-295h65zM112 429h128v202h-4l-129 -193z" />
    <glyph glyph-name="five.numr" horiz-adv-x="360" 
d="M191 554c87 -8 133 -56 133 -137c0 -89 -84 -163 -185 -163c-44 0 -84 10 -124 30l27 55c28 -32 56 -46 91 -46c58 0 98 44 98 103c0 62 -24 82 -127 91l-44 4l28 220h159c15 0 23 4 32 17l8 12l20 -5l-15 -97h-175l-10 -76z" />
    <glyph glyph-name="six.numr" horiz-adv-x="423" 
d="M252 553c74 0 126 -60 126 -144c0 -86 -75 -155 -167 -155c-103 0 -171 86 -171 221c0 145 119 255 282 255l5 -29c-104 0 -185 -81 -200 -197l6 -4c36 33 76 53 119 53zM212 290c58 0 86 36 86 106c0 67 -32 106 -91 107c-24 0 -51 -10 -82 -28v-8
c0 -122 24 -177 87 -177z" />
    <glyph glyph-name="seven.numr" horiz-adv-x="389" 
d="M341 720l14 -19l-172 -436h-86v13l195 369h-143c-40 0 -52 -6 -75 -38l-20 -27l-20 6l21 132h286z" />
    <glyph glyph-name="eight.numr" horiz-adv-x="444" 
d="M310 497c61 -34 82 -68 82 -118c0 -71 -75 -124 -175 -124c-93 0 -165 49 -165 113c0 50 31 88 98 121l-10 6c-55 32 -74 65 -74 114c0 65 63 119 162 119c86 0 147 -43 147 -107c0 -39 -34 -81 -87 -111zM139 631c0 -26 12 -44 50 -66l73 -41c26 26 38 53 38 87
c0 52 -30 84 -80 84c-46 0 -81 -30 -81 -64zM228 289c51 0 80 33 80 71c0 28 -14 45 -55 69l-79 46c-31 -20 -43 -47 -43 -94c0 -52 42 -92 97 -92z" />
    <glyph glyph-name="nine.numr" horiz-adv-x="423" 
d="M212 730c103 0 171 -86 171 -221c0 -145 -119 -255 -282 -255l-5 29c104 0 185 81 200 197l-6 4c-36 -33 -76 -53 -119 -53c-74 0 -126 60 -126 144c0 86 75 155 167 155zM216 481c24 0 51 10 82 28v8c0 122 -24 177 -87 177c-58 0 -86 -36 -86 -106
c0 -67 32 -106 91 -107z" />
    <glyph glyph-name="uni2070" unicode="&#x2070;" horiz-adv-x="491" 
d="M246 398c-113 0 -197 101 -197 238c0 139 80 235 197 235c116 0 195 -95 195 -235c0 -138 -82 -238 -195 -238zM245 437c63 0 105 80 105 199c0 118 -42 196 -105 196s-105 -77 -105 -196c0 -120 42 -199 105 -199z" />
    <glyph glyph-name="uni00B9" unicode="&#xb9;" horiz-adv-x="345" 
d="M55 409v36l61 7c24 3 32 13 32 40v256c0 12 -6 17 -18 17h-75v33c80 7 110 22 148 76h30v-382c0 -27 7 -37 30 -40l55 -7v-36h-263z" />
    <glyph glyph-name="uni00B2" unicode="&#xb2;" horiz-adv-x="412" 
d="M137 483h225v-73h-298l-24 30l133 138c60 62 80 98 80 159c0 50 -31 83 -80 83c-47 0 -82 -30 -99 -87l-31 11c19 81 75 127 157 127c86 0 141 -44 141 -121c0 -75 -32 -108 -207 -262z" />
    <glyph glyph-name="uni00B3" unicode="&#xb3;" horiz-adv-x="403" 
d="M248 666c68 -14 105 -48 105 -112c0 -88 -82 -155 -189 -155c-48 0 -93 10 -124 27l25 52c29 -23 56 -40 85 -40c69 0 108 45 108 110c0 53 -38 71 -102 76l-28 2h-6l-7 18l27 9c65 22 100 53 100 104c0 41 -26 64 -70 64c-43 0 -77 -27 -97 -77l-29 12
c24 72 79 115 150 115c85 0 132 -36 132 -99c0 -41 -31 -77 -80 -97v-9z" />
    <glyph glyph-name="uni2074" unicode="&#x2074;" horiz-adv-x="423" 
d="M390 573v-53h-65v-111h-85v111h-187l-19 26l220 322h71v-295h65zM112 573h128v202h-4l-129 -193z" />
    <glyph glyph-name="uni2075" unicode="&#x2075;" horiz-adv-x="360" 
d="M191 698c87 -8 133 -56 133 -137c0 -89 -84 -163 -185 -163c-44 0 -84 10 -124 30l27 55c28 -32 56 -46 91 -46c58 0 98 44 98 103c0 62 -24 82 -127 91l-44 4l28 220h159c15 0 23 4 32 17l8 12l20 -5l-15 -97h-175l-10 -76z" />
    <glyph glyph-name="uni2076" unicode="&#x2076;" horiz-adv-x="423" 
d="M252 697c74 0 126 -60 126 -144c0 -86 -75 -155 -167 -155c-103 0 -171 86 -171 221c0 145 119 255 282 255l5 -29c-104 0 -185 -81 -200 -197l6 -4c36 33 76 53 119 53zM212 434c58 0 86 36 86 106c0 67 -32 106 -91 107c-24 0 -51 -10 -82 -28v-8
c0 -122 24 -177 87 -177z" />
    <glyph glyph-name="uni2077" unicode="&#x2077;" horiz-adv-x="389" 
d="M341 864l14 -19l-172 -436h-86v13l195 369h-143c-40 0 -52 -6 -75 -38l-20 -27l-20 6l21 132h286z" />
    <glyph glyph-name="uni2078" unicode="&#x2078;" horiz-adv-x="444" 
d="M310 640c61 -34 82 -68 82 -118c0 -71 -75 -124 -175 -124c-93 0 -165 49 -165 113c0 50 31 88 98 121l-10 6c-55 32 -74 65 -74 114c0 65 63 119 162 119c86 0 147 -43 147 -107c0 -39 -34 -81 -87 -111zM139 774c0 -26 12 -44 50 -66l73 -41c26 26 38 53 38 87
c0 52 -30 84 -80 84c-46 0 -81 -30 -81 -64zM228 432c51 0 80 33 80 71c0 28 -14 45 -55 69l-79 46c-31 -20 -43 -47 -43 -94c0 -52 42 -92 97 -92z" />
    <glyph glyph-name="uni2079" unicode="&#x2079;" horiz-adv-x="423" 
d="M212 874c103 0 171 -86 171 -221c0 -145 -119 -255 -282 -255l-5 29c104 0 185 81 200 197l-6 4c-36 -33 -76 -53 -119 -53c-74 0 -126 60 -126 144c0 86 75 155 167 155zM216 625c24 0 51 10 82 28v8c0 122 -24 177 -87 177c-58 0 -86 -36 -86 -106
c0 -67 32 -106 91 -107z" />
    <glyph glyph-name="fraction" unicode="&#x2044;" horiz-adv-x="97" 
d="M-169 -22l-38 24l474 728l37 -24z" />
    <glyph glyph-name="onehalf" unicode="&#xbd;" horiz-adv-x="941" 
d="M318 301v-36h-263v36l61 7c24 3 32 13 32 40v256c0 12 -6 17 -18 17h-75v33c80 7 110 22 148 76h30v-382c0 -27 7 -37 30 -40zM666 730l37 -24l-473 -728l-38 24zM666 73h225v-73h-298l-24 30l133 138c60 62 80 98 80 159c0 50 -31 83 -80 83c-47 0 -82 -30 -99 -87
l-31 11c19 81 75 127 157 127c86 0 141 -44 141 -121c0 -75 -32 -108 -207 -262z" />
    <glyph glyph-name="onequarter" unicode="&#xbc;" horiz-adv-x="887" 
d="M318 301v-36h-263v36l61 7c24 3 32 13 32 40v256c0 12 -6 17 -18 17h-75v33c80 7 110 22 148 76h30v-382c0 -27 7 -37 30 -40zM669 730l37 -24l-473 -728l-38 24zM854 164v-53h-65v-111h-85v111h-187l-19 26l220 322h71v-295h65zM576 164h128v202h-4l-129 -193z" />
    <glyph glyph-name="threequarters" unicode="&#xbe;" horiz-adv-x="900" 
d="M688 730l37 -24l-473 -728l-38 24zM353 410c0 -88 -82 -155 -189 -155c-48 0 -93 10 -124 27l25 52c29 -23 56 -40 85 -40c69 0 108 45 108 110c0 53 -38 71 -102 76l-28 2h-6l-7 18l27 9c65 22 100 53 100 104c0 41 -26 64 -70 64c-43 0 -77 -27 -97 -77l-29 12
c24 72 79 115 150 115c85 0 132 -36 132 -99c0 -41 -31 -77 -80 -97v-9c68 -14 105 -48 105 -112zM867 164v-53h-65v-111h-85v111h-187l-19 26l220 322h71v-295h65zM589 164h128v202h-4l-129 -193z" />
    <glyph glyph-name="oneeighth" unicode="&#x215b;" horiz-adv-x="961" 
d="M318 301v-36h-263v36l61 7c24 3 32 13 32 40v256c0 12 -6 17 -18 17h-75v33c80 7 110 22 148 76h30v-382c0 -27 7 -37 30 -40zM674 730l37 -24l-473 -728l-38 24zM827 227c61 -34 82 -68 82 -118c0 -71 -75 -124 -175 -124c-93 0 -165 49 -165 113c0 50 31 88 98 121
l-10 6c-55 32 -74 65 -74 114c0 65 63 119 162 119c86 0 147 -43 147 -107c0 -39 -34 -81 -87 -111zM656 361c0 -26 12 -44 50 -66l73 -41c26 26 38 53 38 87c0 52 -30 84 -80 84c-46 0 -81 -30 -81 -64zM745 19c51 0 80 33 80 71c0 28 -14 45 -55 69l-79 46
c-31 -20 -43 -47 -43 -94c0 -52 42 -92 97 -92z" />
    <glyph glyph-name="threeeighths" unicode="&#x215c;" horiz-adv-x="958" 
d="M684 730l37 -24l-473 -728l-38 24zM353 410c0 -88 -82 -155 -189 -155c-48 0 -93 10 -124 27l25 52c29 -23 56 -40 85 -40c69 0 108 45 108 110c0 53 -38 71 -102 76l-28 2h-6l-7 18l27 9c65 22 100 53 100 104c0 41 -26 64 -70 64c-43 0 -77 -27 -97 -77l-29 12
c24 72 79 115 150 115c85 0 132 -36 132 -99c0 -41 -31 -77 -80 -97v-9c68 -14 105 -48 105 -112zM824 227c61 -34 82 -68 82 -118c0 -71 -75 -124 -175 -124c-93 0 -165 49 -165 113c0 50 31 88 98 121l-10 6c-55 32 -74 65 -74 114c0 65 63 119 162 119
c86 0 147 -43 147 -107c0 -39 -34 -81 -87 -111zM653 361c0 -26 12 -44 50 -66l73 -41c26 26 38 53 38 87c0 52 -30 84 -80 84c-46 0 -81 -30 -81 -64zM742 19c51 0 80 33 80 71c0 28 -14 45 -55 69l-79 46c-31 -20 -43 -47 -43 -94c0 -52 42 -92 97 -92z" />
    <glyph glyph-name="fiveeighths" unicode="&#x215d;" horiz-adv-x="947" 
d="M324 417c0 -89 -84 -163 -185 -163c-44 0 -84 10 -124 30l27 55c28 -32 56 -46 91 -46c58 0 98 44 98 103c0 62 -24 82 -127 91l-44 4l28 220h159c15 0 23 4 32 17l8 12l20 -5l-15 -97h-175l-10 -76l84 -8c87 -8 133 -56 133 -137zM680 730l37 -24l-473 -728l-38 24z
M813 227c61 -34 82 -68 82 -118c0 -71 -75 -124 -175 -124c-93 0 -165 49 -165 113c0 50 31 88 98 121l-10 6c-55 32 -74 65 -74 114c0 65 63 119 162 119c86 0 147 -43 147 -107c0 -39 -34 -81 -87 -111zM642 361c0 -26 12 -44 50 -66l73 -41c26 26 38 53 38 87
c0 52 -30 84 -80 84c-46 0 -81 -30 -81 -64zM731 19c51 0 80 33 80 71c0 28 -14 45 -55 69l-79 46c-31 -20 -43 -47 -43 -94c0 -52 42 -92 97 -92z" />
    <glyph glyph-name="seveneighths" unicode="&#x215e;" horiz-adv-x="910" 
d="M633 730l37 -24l-473 -728l-38 24zM97 265v13l195 369h-143c-40 0 -52 -6 -75 -38l-20 -27l-20 6l21 132h286l14 -19l-172 -436h-86zM776 227c61 -34 82 -68 82 -118c0 -71 -75 -124 -175 -124c-93 0 -165 49 -165 113c0 50 31 88 98 121l-10 6c-55 32 -74 65 -74 114
c0 65 63 119 162 119c86 0 147 -43 147 -107c0 -39 -34 -81 -87 -111zM605 361c0 -26 12 -44 50 -66l73 -41c26 26 38 53 38 87c0 52 -30 84 -80 84c-46 0 -81 -30 -81 -64zM694 19c51 0 80 33 80 71c0 28 -14 45 -55 69l-79 46c-31 -20 -43 -47 -43 -94
c0 -52 42 -92 97 -92z" />
    <glyph glyph-name="asterisk" unicode="*" 
d="M217 304l41 211l-160 -142l-49 84l205 69l-205 72l49 84l160 -145l-41 213h96l-40 -212l160 144l49 -84l-205 -72l205 -69l-49 -84l-160 142l40 -211h-96z" />
    <glyph glyph-name="backslash" unicode="\" horiz-adv-x="265" 
d="M236 -153l-267 928l59 18l268 -930z" />
    <glyph glyph-name="periodcentered" unicode="&#xb7;" horiz-adv-x="265" 
d="M135 206c-46 0 -82 36 -82 79c0 44 36 79 82 79c41 0 77 -35 77 -79c0 -43 -36 -79 -77 -79z" />
    <glyph glyph-name="bullet" unicode="&#x2022;" horiz-adv-x="407" 
d="M209 172c-86 0 -154 67 -154 148c0 82 68 148 154 148c76 0 144 -66 144 -148c0 -81 -68 -148 -144 -148z" />
    <glyph glyph-name="colon" unicode=":" horiz-adv-x="265" 
d="M135 338c-46 0 -82 36 -82 79c0 44 36 79 82 79c41 0 77 -35 77 -79c0 -43 -36 -79 -77 -79zM135 -16c-46 0 -82 36 -82 79c0 44 36 79 82 79c41 0 77 -35 77 -79c0 -43 -36 -79 -77 -79z" />
    <glyph glyph-name="comma" unicode="," horiz-adv-x="265" 
d="M57 -158l-10 34c71 26 98 54 98 103c0 44 -32 67 -93 67c-2 55 32 96 79 96c55 0 87 -39 87 -106c0 -100 -64 -177 -161 -194z" />
    <glyph glyph-name="ellipsis" unicode="&#x2026;" horiz-adv-x="1060" 
d="M135 -16c-46 0 -82 36 -82 79c0 44 36 79 82 79c41 0 77 -35 77 -79c0 -43 -36 -79 -77 -79zM533 -16c-46 0 -82 36 -82 79c0 44 36 79 82 79c41 0 77 -35 77 -79c0 -43 -36 -79 -77 -79zM930 -16c-46 0 -82 36 -82 79c0 44 36 79 82 79c41 0 77 -35 77 -79
c0 -43 -36 -79 -77 -79z" />
    <glyph glyph-name="exclam" unicode="!" horiz-adv-x="268" 
d="M119 215l-57 466v32h148v-32l-58 -466h-33zM136 -16c-45 0 -81 35 -81 78c0 45 35 80 81 80c43 0 78 -36 78 -80c0 -42 -36 -78 -78 -78z" />
    <glyph glyph-name="exclamdown" unicode="&#xa1;" horiz-adv-x="268" 
d="M135 538c42 0 78 -36 78 -78c0 -44 -35 -80 -78 -80c-46 0 -81 35 -81 80c0 43 36 78 81 78zM118 307h33l58 -466v-32h-148v32z" />
    <glyph glyph-name="numbersign" unicode="#" 
d="M513 464h-109l-44 -200h89v-53h-101l-47 -211l-49 11l43 200h-132l-47 -211l-49 11l44 200h-95v53h106l44 200h-89v53h100l46 209l52 -13l-44 -196h131l45 209l52 -13l-43 -196h97v-53zM307 264l43 200h-131l-44 -200h132z" />
    <glyph glyph-name="period" unicode="." horiz-adv-x="265" 
d="M135 -16c-46 0 -82 36 -82 79c0 44 36 79 82 79c41 0 77 -35 77 -79c0 -43 -36 -79 -77 -79z" />
    <glyph glyph-name="question" unicode="?" horiz-adv-x="429" 
d="M129 215l-12 171l55 14c97 25 116 66 116 117c0 96 -52 140 -144 140c-30 0 -62 -5 -93 -14l-13 75c24 5 48 8 71 8c154 0 281 -102 281 -245c0 -83 -43 -132 -145 -162l-68 -20l-14 -84h-34zM147 -17c-45 0 -81 35 -81 78c0 45 35 80 81 80c43 0 78 -36 78 -80
c0 -42 -36 -78 -78 -78z" />
    <glyph glyph-name="questiondown" unicode="&#xbf;" horiz-adv-x="429" 
d="M282 538c45 0 81 -35 81 -78c0 -45 -35 -80 -81 -80c-43 0 -78 36 -78 80c0 42 36 78 78 78zM300 306l12 -171l-55 -14c-97 -25 -116 -66 -116 -117c0 -96 52 -140 144 -140c30 0 62 5 93 14l13 -75c-24 -5 -48 -8 -71 -8c-154 0 -281 102 -281 245c0 83 43 132 145 162
l68 20l14 84h34z" />
    <glyph glyph-name="quotedbl" unicode="&#x22;" horiz-adv-x="465" 
d="M125 485c-48 117 -60 156 -60 202c0 52 25 81 70 81c41 0 66 -31 66 -81c0 -43 -8 -71 -57 -202h-19zM325 485c-48 117 -60 156 -60 202c0 52 25 81 70 81c41 0 66 -31 66 -81c0 -43 -8 -71 -57 -202h-19z" />
    <glyph glyph-name="quotesingle" unicode="'" horiz-adv-x="265" 
d="M125 485c-48 117 -60 156 -60 202c0 52 25 81 70 81c41 0 66 -31 66 -81c0 -43 -8 -71 -57 -202h-19z" />
    </font>
</defs>
</svg>
